<svg viewBox="0 0 242 37" fill="none" xmlns="http://www.w3.org/2000/svg">
	<path d="M48 18.4023C48 11.9518 52.392 7 58.8379 7C64.1147 7 67.464 10.1275 68.4751 13.6785L64.7782 15.1119C63.9883 12.7663 62.282 10.4858 58.8063 10.4858C54.7303 10.4858 52.1709 13.4178 52.1709 18.3697C52.1709 23.3541 54.6987 26.449 58.8063 26.449C62.2504 26.449 64.0199 24.364 64.873 21.7252L68.5067 23.1912C67.148 27.1657 63.9883 29.9674 58.8063 29.9674C52.1393 30 48 24.983 48 18.4023Z" fill="#0094FF" />
	<path fill-rule="evenodd" clip-rule="evenodd" d="M78.3335 13.3853C73.8467 13.3853 70.6238 16.7734 70.6238 21.6926C70.6238 26.4816 73.8783 30 78.3335 30C82.7888 30 86.0117 26.677 86.0117 21.6926C86.0117 16.7734 82.7888 13.3853 78.3335 13.3853ZM78.3019 16.5127C80.5453 16.5127 82.0936 18.2719 82.0936 21.7578C82.0936 25.211 80.5453 26.8725 78.3019 26.8725C76.0269 26.8725 74.4786 25.211 74.4786 21.7578C74.4786 18.2719 76.0269 16.5127 78.3019 16.5127Z" fill="#0094FF" />
	<path d="M89.4558 29.5113V13.8414H92.8368C92.8368 14.8187 92.9315 17.4575 92.9315 17.4575V17.4575C93.5319 15.4703 95.2382 13.3527 97.8923 13.3527C101.368 13.3527 103.106 15.6983 103.106 19.1841V29.5113H99.3774V19.966C99.3774 17.6204 98.3031 16.6105 96.6284 16.6105C93.2159 16.6105 93.1527 20.5198 93.1527 22.4093V29.5439H89.4558V29.5113Z" fill="#0094FF" />
	<path d="M112.838 29.5113C110.373 29.5113 108.983 28.0128 108.983 25.5043V16.806H105.697V13.8088H108.983V8.88953H112.712V13.8088H116.756V16.806H112.712V24.8853C112.712 25.8952 113.154 26.3513 114.102 26.3513H117.325V29.4788H112.838V29.5113Z" fill="#0094FF" />
	<path fill-rule="evenodd" clip-rule="evenodd" d="M126.456 13.3853C122.254 13.3853 119.094 16.6756 119.094 21.6926C119.094 26.8725 122.033 30 126.52 30C130.532 30 132.65 27.8824 133.629 25.4391L130.28 24.136C129.743 25.4717 128.731 26.9702 126.583 26.9702C124.624 26.9702 122.949 25.83 122.823 22.6374H133.534C134.04 17.4575 131.354 13.3853 126.456 13.3853ZM126.456 16.2521C128.384 16.2521 129.711 17.4901 129.837 19.8031H122.917C123.202 17.5226 124.624 16.2521 126.456 16.2521Z" fill="#0094FF" />
	<path d="M137.168 29.5113V13.8413H140.422C140.422 14.7861 140.454 17.0666 140.454 17.0666V17.0666C140.928 15.1445 142.697 13.3853 145.13 13.3853C147.058 13.3853 148.764 14.6558 149.27 17.0666V17.0666C149.902 14.9164 152.84 13.3853 154.989 13.3853C157.896 13.3853 160.044 15.4377 160.044 19.3144V29.5439H156.316V19.966C156.316 17.5552 155.242 16.643 153.599 16.643C150.47 16.643 150.407 19.966 150.407 21.7904V29.5439H146.742V19.966C146.742 17.5552 145.636 16.643 143.993 16.643C140.896 16.643 140.802 19.966 140.802 21.7904V29.5439H137.168V29.5113Z" fill="#0094FF" />
	<path fill-rule="evenodd" clip-rule="evenodd" d="M167.817 29.5439C167.817 28.4688 168.228 26.2535 168.228 26.2535C168.923 27.7521 170.061 30 173.284 30C176.917 30 179.508 26.7096 179.508 21.6926C179.508 16.6756 176.917 13.3853 173.284 13.3853C170.187 13.3853 168.892 15.4702 168.26 17.1317C168.26 17.1317 168.165 14.3626 168.165 10.8116V7.52124H164.468V29.5439H167.817ZM171.862 16.415C174.011 16.415 175.654 17.7507 175.654 21.66C175.654 25.602 174.011 26.9702 171.862 26.9702C169.587 26.9702 168.007 25.211 168.007 21.66C168.007 18.1416 169.587 16.415 171.862 16.415Z" fill="#0094FF" />
	<path fill-rule="evenodd" clip-rule="evenodd" d="M189.335 13.3853C185.133 13.3853 181.973 16.6756 181.973 21.6926C181.973 26.8725 184.912 30 189.398 30C193.411 30 195.528 27.8824 196.508 25.4391L193.159 24.136C192.621 25.4717 191.61 26.9702 189.462 26.9702C187.503 26.9702 185.828 25.83 185.702 22.6374H196.413C196.919 17.4575 194.233 13.3853 189.335 13.3853ZM189.335 16.2521C191.263 16.2521 192.59 17.4901 192.716 19.8031H185.796C186.081 17.5226 187.503 16.2521 189.335 16.2521Z" fill="#0094FF" />
	<path d="M200.047 29.5113V13.8414H203.459C203.459 15.3725 203.428 18.4674 203.428 18.4674V18.4674C204.091 15.4703 205.703 13.5482 208.862 13.5482C209.4 13.5482 209.716 13.5807 210 13.6459V17.5552C209.463 17.4901 208.894 17.4575 208.357 17.4575C205.166 17.4575 203.744 19.0212 203.744 23.0935V29.5113H200.047V29.5113Z" fill="#0094FF" />
	<path d="M37.2283 20.4084C36.469 20.3129 35.9628 19.5805 35.9628 18.8162V11.046H12.5823C12.3925 11.046 12.1711 11.0779 12.0129 11.1734C11.4434 11.3963 11.0637 11.9695 11.0637 12.6064V21.0772C11.0637 21.8415 10.5575 22.5739 9.79821 22.6694C8.88071 22.7968 8.08976 22.0962 8.08976 21.1727V9.58118C8.08976 8.72137 8.78579 8.02078 9.64002 8.02078H39V18.9117C38.9367 19.8352 38.1458 20.5358 37.2283 20.4084Z" fill="url(#paint0_linear)" />
	<path d="M17.5495 22.6058C17.2648 22.6058 16.98 22.5102 16.6953 22.351C9.41855 17.3513 8.08976 10.1226 8.02648 9.80411C7.86829 8.97614 8.43777 8.21187 9.22872 8.05264C9.70329 7.95711 10.7473 8.0208 10.7473 8.0208C10.7473 8.0208 10.9055 8.9443 10.9688 9.29459C10.9688 9.35828 12.171 15.6317 18.3721 19.8671C19.0681 20.3448 19.2263 21.2683 18.7517 21.9689C18.4986 22.3828 18.0241 22.6058 17.5495 22.6058Z" fill="url(#paint1_linear)" />
	<path d="M17.4546 32C17.1698 32 16.8851 31.9045 16.6004 31.7452C9.32364 26.7456 8.1214 21.7778 8.05812 21.4593C7.89993 20.6314 8.46941 19.8671 9.26036 19.7079C10.0829 19.5805 10.8423 20.1219 11.0004 20.918C11.0321 21.0135 12.1394 24.9941 18.2772 29.2295C18.9732 29.7072 19.1314 30.6307 18.6568 31.3313C18.4037 31.7452 17.9291 32 17.4546 32Z" fill="url(#paint2_linear)" />
	<path fill-rule="evenodd" clip-rule="evenodd" d="M16.6953 31.7771C16.9167 31.9363 17.2015 32 17.4546 32C17.7077 32 17.9608 31.9363 18.2139 31.7771L39 19.7716V9.51751V8.02081C39 8.02081 37.1966 7.98896 36.7221 8.24372L16.8535 19.8034C16.3789 20.0582 16.0942 20.5358 16.0942 21.0772L15.9676 30.4715C15.936 31.0128 16.2207 31.4905 16.6953 31.7771ZM18.9732 27.8602L19.0365 21.9689L35.9311 12.1606V18.0519L18.9732 27.8602Z" fill="url(#paint3_linear)" />
	<defs>
		<linearGradient id="paint0_linear" x1="8.03705" y1="22.691" x2="38.9391" y2="22.691" gradientUnits="userSpaceOnUse">
			<stop stop-color="#1F00B0" />
			<stop offset="1" stop-color="#000067" />
		</linearGradient>
		<linearGradient id="paint1_linear" x1="8.0368" y1="22.6054" x2="19.0589" y2="22.6054" gradientUnits="userSpaceOnUse">
			<stop stop-color="#006EFF" />
			<stop offset="1" stop-color="#45CFF2" />
		</linearGradient>
		<linearGradient id="paint2_linear" x1="8.0368" y1="31.9929" x2="18.9449" y2="31.9929" gradientUnits="userSpaceOnUse">
			<stop stop-color="#15009C" />
			<stop offset="0.7625" stop-color="#3DA9EB" />
		</linearGradient>
		<linearGradient id="paint3_linear" x1="15.9485" y1="31.978" x2="38.9707" y2="31.978" gradientUnits="userSpaceOnUse">
			<stop stop-color="#15009C" />
			<stop offset="1" stop-color="#3DA9EB" />
		</linearGradient>
	</defs>
</svg>
