<svg width="200" height="36" viewBox="0 0 200 36" fill="none" xmlns="http://www.w3.org/2000/svg">
<rect width="200" height="36" fill="white"/>
<g clip-path="url(#clip0_834_1512)">
<path d="M42.02 17.4023C42.02 10.9518 46.1946 6 52.3214 6C57.337 6 60.5205 9.1275 61.4815 12.6785L57.9676 14.1119C57.2168 11.7663 55.595 9.4858 52.2914 9.4858C48.4171 9.4858 45.9844 12.4178 45.9844 17.3697C45.9844 22.3541 48.3871 25.449 52.2914 25.449C55.565 25.449 57.2469 23.364 58.0577 20.7252L61.5115 22.1912C60.2201 26.1657 57.2168 28.9674 52.2914 28.9674C45.9544 29 42.02 23.983 42.02 17.4023Z" fill="#131350"/>
<path fill-rule="evenodd" clip-rule="evenodd" d="M70.8515 12.3853C66.5868 12.3853 63.5234 15.7734 63.5234 20.6926C63.5234 25.4816 66.6168 29 70.8515 29C75.0862 29 78.1496 25.677 78.1496 20.6926C78.1496 15.7734 75.0862 12.3853 70.8515 12.3853ZM70.8214 15.5127C72.9538 15.5127 74.4254 17.2719 74.4254 20.7578C74.4254 24.211 72.9538 25.8725 70.8214 25.8725C68.6591 25.8725 67.1874 24.211 67.1874 20.7578C67.1874 17.2719 68.6591 15.5127 70.8214 15.5127Z" fill="#131350"/>
<path d="M81.4233 28.5111V12.8412H84.637C84.637 13.8185 84.727 16.4573 84.727 16.4573C85.2977 14.4701 86.9195 12.3525 89.4422 12.3525C92.7458 12.3525 94.3978 14.6981 94.3978 18.1839V28.5111H90.8538V18.9658C90.8538 16.6202 89.8327 15.6103 88.2409 15.6103C84.9973 15.6103 84.9372 19.5196 84.9372 21.4091V28.5437H81.4233V28.5111Z" fill="#131350"/>
<path d="M103.648 28.5114C101.305 28.5114 99.9837 27.0129 99.9837 24.5044V15.8061H96.8604V12.8089H99.9837V7.88965H103.528V12.8089H107.372V15.8061H103.528V23.8854C103.528 24.8953 103.948 25.3514 104.849 25.3514H107.913V28.4789H103.648V28.5114Z" fill="#131350"/>
<path fill-rule="evenodd" clip-rule="evenodd" d="M116.592 12.3853C112.598 12.3853 109.594 15.6756 109.594 20.6926C109.594 25.8725 112.388 29 116.653 29C120.466 29 122.479 26.8824 123.41 24.4391L120.226 23.136C119.716 24.4717 118.754 25.9702 116.712 25.9702C114.85 25.9702 113.258 24.83 113.139 21.6374H123.319C123.8 16.4575 121.247 12.3853 116.592 12.3853ZM116.592 15.2521C118.424 15.2521 119.686 16.4901 119.805 18.8031H113.228C113.499 16.5226 114.85 15.2521 116.592 15.2521Z" fill="#131350"/>
<path d="M126.773 28.5113V12.8413H129.866C129.866 13.7861 129.897 16.0666 129.897 16.0666C130.347 14.1445 132.029 12.3853 134.341 12.3853C136.174 12.3853 137.795 13.6558 138.276 16.0666C138.877 13.9164 141.67 12.3853 143.712 12.3853C146.475 12.3853 148.517 14.4377 148.517 18.3144V28.5439H144.974V18.966C144.974 16.5552 143.953 15.643 142.391 15.643C139.417 15.643 139.357 18.966 139.357 20.7904V28.5439H135.873V18.966C135.873 16.5552 134.822 15.643 133.261 15.643C130.317 15.643 130.228 18.966 130.228 20.7904V28.5439H126.773V28.5113Z" fill="#131350"/>
<path fill-rule="evenodd" clip-rule="evenodd" d="M155.905 28.5437C155.905 27.4686 156.296 25.2533 156.296 25.2533C156.957 26.7519 158.038 28.9998 161.102 28.9998C164.555 28.9998 167.018 25.7094 167.018 20.6924C167.018 15.6754 164.555 12.3851 161.102 12.3851C158.158 12.3851 156.927 14.47 156.326 16.1315C156.326 16.1315 156.236 13.3624 156.236 9.81136V6.521H152.722V28.5437H155.905ZM159.75 15.4148C161.793 15.4148 163.354 16.7505 163.354 20.6598C163.354 24.6018 161.793 25.97 159.75 25.97C157.588 25.97 156.086 24.2108 156.086 20.6598C156.086 17.1414 157.588 15.4148 159.75 15.4148Z" fill="#131350"/>
<path fill-rule="evenodd" clip-rule="evenodd" d="M176.358 12.3853C172.364 12.3853 169.36 15.6756 169.36 20.6926C169.36 25.8725 172.154 29 176.418 29C180.232 29 182.244 26.8824 183.176 24.4391L179.993 23.136C179.481 24.4717 178.52 25.9702 176.479 25.9702C174.617 25.9702 173.024 24.83 172.905 21.6374H183.085C183.566 16.4575 181.013 12.3853 176.358 12.3853ZM176.358 15.2521C178.19 15.2521 179.452 16.4901 179.572 18.8031H172.994C173.265 16.5226 174.617 15.2521 176.358 15.2521Z" fill="#131350"/>
<path d="M186.54 28.5114V12.8415H189.783C189.783 14.3726 189.753 17.4675 189.753 17.4675C190.383 14.4704 191.916 12.5483 194.918 12.5483C195.43 12.5483 195.73 12.5808 196 12.646V16.5553C195.489 16.4902 194.949 16.4576 194.438 16.4576C191.405 16.4576 190.054 18.0213 190.054 22.0936V28.5114H186.54Z" fill="#131350"/>
<path d="M31.7815 19.4082C31.0598 19.3127 30.5787 18.5803 30.5787 17.816V10.0458H8.35562C8.17522 10.0458 7.96478 10.0777 7.81441 10.1732C7.27311 10.3961 6.9122 10.9693 6.9122 11.6062V20.077C6.9122 20.8413 6.43106 21.5737 5.70932 21.6692C4.83724 21.7966 4.08545 21.096 4.08545 20.1725V8.58091C4.08545 7.7211 4.74702 7.02051 5.55896 7.02051H33.4655V17.9115C33.4053 18.835 32.6536 19.5356 31.7815 19.4082Z" fill="#AA3393"/>
<path d="M13.0768 21.6058C12.8061 21.6058 12.5354 21.5102 12.2648 21.351C5.34833 16.3513 4.08532 9.1226 4.02517 8.80411C3.87481 7.97614 4.4161 7.21187 5.16789 7.05264C5.61897 6.95711 6.6113 7.0208 6.6113 7.0208C6.6113 7.0208 6.76167 7.9443 6.82183 8.29459C6.82183 8.35828 7.96452 14.6317 13.8586 18.8671C14.5202 19.3448 14.6705 20.2683 14.2194 20.9689C13.9789 21.3828 13.5279 21.6058 13.0768 21.6058Z" fill="#AA3393"/>
<path d="M12.9868 31.0001C12.7161 31.0001 12.4455 30.9046 12.1749 30.7453C5.25832 25.7457 4.11559 20.7779 4.05544 20.4594C3.90509 19.6315 4.44637 18.8672 5.19817 18.708C5.98001 18.5806 6.70181 19.122 6.85209 19.9181C6.88222 20.0136 7.9347 23.9942 13.7686 28.2296C14.4302 28.7073 14.5806 29.6308 14.1295 30.3314C13.8889 30.7453 13.4378 31.0001 12.9868 31.0001Z" fill="#AA3393"/>
<path fill-rule="evenodd" clip-rule="evenodd" d="M12.2647 30.7771C12.4752 30.9363 12.7459 31 12.9865 31C13.227 31 13.4676 30.9363 13.7082 30.7771L33.4652 18.7716V8.51751V7.02081C33.4652 7.02081 31.7511 6.98896 31.3001 7.24372L12.4151 18.8034C11.964 19.0582 11.6934 19.5358 11.6934 20.0772L11.5731 29.4715C11.543 30.0128 11.8136 30.4905 12.2647 30.7771ZM14.4299 26.8602L14.49 20.9689L30.5483 11.1606V17.0519L14.4299 26.8602Z" fill="#AA3393"/>
</g>
<defs>
<clipPath id="clip0_834_1512">
<rect width="192" height="25" fill="white" transform="translate(4 6)"/>
</clipPath>
</defs>
</svg>
