<?xml version="1.0" encoding="UTF-8"?>
<svg width="512px" height="512px" viewBox="0 0 512 512" version="1.1" xmlns="http://www.w3.org/2000/svg" xmlns:xlink="http://www.w3.org/1999/xlink">
    <!-- Generator: Sketch Beta 57 (83077) - https://sketch.com -->
    <title>icon</title>
    <desc>Created with Sketch Beta.</desc>
    <g id="icon" stroke="none" stroke-width="1" fill="none" fill-rule="evenodd">
        <g id="logo" transform="translate(66.000000, 78.000000)">
            <g>
                <path d="M9.51899401,134.759914 C5.86778952,134.759914 2.47869153,132.409159 1.29616453,128.726514 C-0.160659964,124.147758 2.33239953,119.24984 6.87354702,117.776782 L368.525657,0.656387673 C373.0729,-0.810532681 377.931013,1.69980382 379.393933,6.27242166 C380.856853,10.8450395 378.357698,15.7429577 373.816551,17.2160158 L12.1705365,134.342548 C11.286689,134.624884 10.396746,134.759914 9.51899401,134.759914" id="Fill-38" fill="#0094FF"></path>
                <path d="M9.51899401,299.798888 C5.84950302,299.798888 2.44821403,297.42972 1.28397353,293.716386 C-0.154564464,289.13763 2.36897253,284.251987 6.92231102,282.80348 L368.568325,167.812883 C373.115568,166.364375 377.967586,168.899263 379.41222,173.484156 C380.844662,178.06905 378.321125,182.954692 373.773882,184.403199 L12.1217725,299.393797 C11.2562115,299.669995 10.384555,299.798888 9.51899401,299.798888" id="Fill-21" fill="#7ED321"></path>
                <path d="M227.352658,355.958614 C225.377716,355.958614 223.396678,355.283462 221.775275,353.90247 C218.130166,350.796773 217.679099,345.309632 220.757327,341.639262 L364.574554,170.488324 C367.658877,166.811817 373.108254,166.363762 376.753363,169.463321 C380.392376,172.569019 380.849539,178.05616 377.765216,181.72653 L233.954084,352.877468 C232.241249,354.90906 229.803049,355.958614 227.352658,355.958614" id="Fill-24" fill="#0094FF"></path>
                <path d="M371.171104,184.805835 C366.398327,184.805835 362.53378,180.908369 362.53378,176.108655 L362.53378,8.93497417 C362.53378,4.12912213 366.398327,0.237793664 371.171104,0.237793664 C375.94388,0.237793664 379.808427,4.12912213 379.808427,8.93497417 L379.808427,176.108655 C379.808427,180.908369 375.94388,184.805835 371.171104,184.805835" id="Fill-26" fill="#7ED321"></path>
                <path d="M227.367897,355.958614 C226.953403,355.958614 226.538909,355.927925 226.118319,355.866548 C80.551684,334.62996 8.75888517,300.38136 5.77209017,298.932853 C1.47476268,296.852158 -0.323409814,291.659628 1.73686918,287.33252 C3.80324368,282.999274 8.97222766,281.182503 13.2634597,283.257059 C13.9766332,283.600773 85.98887,317.849374 228.593092,338.650181 C233.317105,339.337609 236.590388,343.750645 235.907692,348.507395 C235.279856,352.840641 231.585983,355.958614 227.367897,355.958614" id="Fill-28" fill="#FF0000"></path>
                <path d="M227.355706,355.958614 C222.582929,355.958614 218.718382,352.061148 218.718382,347.261434 L218.718382,182.223687 C218.718382,177.423973 222.582929,173.526507 227.355706,173.526507 C232.128482,173.526507 235.993029,177.423973 235.993029,182.223687 L235.993029,347.261434 C235.993029,352.061148 232.128482,355.958614 227.355706,355.958614" id="Fill-30" fill="#9013FE"></path>
                <path d="M227.34961,191.186632 C225.392955,191.186632 223.430204,190.523756 221.808801,189.155039 C218.151501,186.073893 217.669956,180.586751 220.729897,176.904106 L364.547124,3.8443309 C367.600969,0.161685662 373.044251,-0.335471445 376.713742,2.75795056 C380.371042,5.83909707 380.858682,11.3262385 377.798741,15.0088837 L233.981514,188.068659 C232.274774,190.124803 229.818288,191.186632 227.34961,191.186632" id="Fill-32" fill="#FF00B8"></path>
                <path d="M9.52204176,299.798888 C4.74926527,299.798888 0.884718284,295.901422 0.884718284,291.101707 L0.884718284,126.057823 C0.884718284,121.258109 4.74926527,117.360643 9.52204176,117.360643 C14.2948183,117.360643 18.1593652,121.258109 18.1593652,126.057823 L18.1593652,291.101707 C18.1593652,295.901422 14.2948183,299.798888 9.52204176,299.798888" id="Fill-34" fill="#FF00B8"></path>
                <path d="M227.367897,191.186632 C226.953403,191.186632 226.538909,191.155943 226.118319,191.094566 C80.5333975,169.857978 8.73450317,135.345455 5.75380367,133.884672 C1.45647618,131.791702 -0.329505314,126.593034 1.74906018,122.265926 C3.82762568,117.944956 9.00880066,116.14046 13.2878417,118.23343 C14.0010152,118.577143 86.0071565,153.077391 228.593092,173.878199 C233.317105,174.565626 236.590388,178.978663 235.907692,183.735413 C235.279856,188.068659 231.585983,191.186632 227.367897,191.186632" id="Fill-36" fill="#FF0000"></path>
            </g>
        </g>
    </g>
</svg>