<?xml version="1.0" encoding="UTF-8"?>
<svg width="1382px" height="206px" viewBox="0 0 1382 206" version="1.1" xmlns="http://www.w3.org/2000/svg" xmlns:xlink="http://www.w3.org/1999/xlink">
    <!-- Generator: Sketch Beta 57 (83077) - https://sketch.com -->
    <title>logo-text</title>
    <desc>Created with Sketch Beta.</desc>
    <g id="logo-text" stroke="none" stroke-width="1" fill="none" fill-rule="evenodd">
        <g transform="translate(0.000000, 0.000000)" fill="#FFFFFF">
            <path d="M1377.90489,51.4003951 L1377.90489,84.4473086 C1370.56267,81.5643457 1360.856,79.9880494 1350.63081,80.7761975 C1340.40563,81.5643457 1333.05649,85.2354568 1328.0718,90.4759506 C1321.78044,97.2996543 1318.89748,106.736691 1318.89748,117.224593 L1318.89748,192.755457 L1282.9676,192.755457 L1282.9676,51.137679 L1314.43822,51.137679 L1314.43822,70.5510123 C1318.10933,64.2527407 1323.09402,58.7426173 1329.65501,54.8087901 C1337.25304,50.0937284 1345.90884,47.992 1354.30193,47.4665679 C1361.90686,46.9411358 1370.03723,48.254716 1377.90489,51.4003951" id="Fill-18"></path>
            <path d="M173.088395,137.158519 C168.36642,152.893827 161.024198,167.315556 145.288889,179.905185 C129.290864,192.494815 110.14716,196.691358 89.1644444,196.691358 C61.3649383,196.691358 37.2434568,185.678025 21.7708642,165.746173 C6.56098765,146.077037 -3.55271368e-14,123.262222 -3.55271368e-14,98.345679 C-3.55271368e-14,72.3782716 6.02864198,49.0380247 21.5081481,30.4197531 C38.2874074,9.96938272 61.897284,2.66453526e-14 89.1644444,2.66453526e-14 C110.935309,2.66453526e-14 129.55358,4.45925926 145.026173,17.0419753 C162.075062,30.6824691 170.205432,46.6804938 174.401975,64.7802469 L138.734815,69.7580247 C136.895802,63.4666667 134.01284,57.4311111 130.079012,52.4533333 C120.641975,39.8637037 107.78963,33.8281481 91.5288889,33.5723457 C75.2681481,33.3096296 59.5328395,39.8637037 50.3585185,52.4533333 C40.6518519,64.7802469 37.2434568,81.8222222 37.5061728,98.345679 C37.7619753,114.869136 40.6518519,131.655309 50.3585185,144.238025 C59.5328395,156.827654 75.2681481,162.86321 91.5288889,163.119012 C107.78963,163.381728 120.641975,156.827654 130.079012,144.238025 C133.487407,139.516049 136.37037,134.275556 138.209383,128.50963 L173.088395,137.158519 Z" id="Fill-1"></path>
            <path d="M280.255802,92.3142716 C274.489877,84.4466173 264.78321,80.5127901 254.295309,80.5127901 C243.807407,80.5127901 234.100741,84.4466173 228.327901,92.3142716 C222.299259,100.181926 220.460247,111.195259 220.460247,121.945877 C220.460247,132.703407 222.299259,143.454025 228.327901,151.321679 C234.100741,159.189333 243.807407,163.385877 254.295309,163.385877 C264.78321,163.385877 274.489877,159.189333 280.255802,151.321679 C286.291358,143.454025 288.386173,132.703407 288.386173,121.945877 C288.386173,111.195259 286.291358,100.181926 280.255802,92.3142716 M200.009877,173.08563 C187.938765,158.401185 182.698272,141.352296 182.698272,121.945877 C182.698272,102.014025 188.726914,84.4466173 200.009877,70.8061235 C213.118025,55.3335309 233.575309,47.2031605 254.295309,47.2031605 C275.271111,47.2031605 295.465679,55.0708148 308.580741,70.8061235 C321.163457,85.753284 326.155062,102.802173 326.155062,121.945877 C326.155062,142.140444 320.644938,158.138469 308.580741,173.08563 C295.202963,188.820938 275.533827,196.688593 254.295309,196.688593 C233.312593,196.688593 213.118025,188.558222 200.009877,173.08563" id="Fill-4"></path>
            <path d="M477.640593,124.310321 L477.640593,192.754765 L441.448,192.754765 L441.448,125.886617 C441.448,111.195259 439.353185,96.5108148 432.004049,88.6431605 C427.026272,83.133037 419.421333,80.2500741 409.714667,80.5127901 C403.160593,80.7755062 397.650469,82.6076049 392.935407,86.016 C387.688,89.9567407 384.016889,96.2480988 382.440593,104.115753 C381.133926,110.407111 380.864296,121.427358 380.864296,131.127111 L380.864296,192.754765 L344.941333,192.754765 L344.941333,51.1439012 L376.411951,51.1439012 L376.411951,65.8283457 C376.937383,65.3029136 377.718617,64.5147654 378.244049,63.7266173 C387.425284,52.713284 401.847012,47.9913086 414.699358,47.2031605 C431.485531,46.1592099 448.53442,49.0421728 462.168,62.413037 C477.640593,77.6298272 477.640593,102.276741 477.640593,124.310321" id="Fill-6"></path>
            <path d="M545.729679,130.60237 C545.729679,141.615704 545.204247,150.796938 548.612642,156.044346 C552.021037,161.547556 558.056593,163.649284 563.559802,164.167802 C570.376593,164.693235 579.032395,164.167802 586.637333,163.123852 L586.637333,192.755457 C575.624,195.901136 555.692148,195.645333 545.204247,193.806321 C532.089185,191.44879 523.965728,187.252247 516.353877,175.969284 C508.486222,164.437432 510.062519,149.746074 510.062519,132.704099 L510.062519,78.6744691 L485.934123,78.6744691 L485.934123,51.137679 L510.062519,51.137679 L510.062519,11.7994074 L545.729679,11.7994074 L545.729679,51.137679 L586.637333,51.137679 L586.637333,78.6744691 L545.729679,78.6744691 L545.729679,130.60237 Z" id="Fill-8"></path>
            <path d="M638.205728,89.6919506 C634.534617,94.4139259 632.695605,99.1359012 631.388938,104.376395 L694.592889,104.376395 C694.067457,98.6104691 692.49116,93.3630617 688.820049,88.6410864 C683.309926,81.5615802 673.610173,78.1531852 663.903506,78.1531852 C654.729185,78.1531852 645.285235,80.7734321 638.205728,89.6919506 M637.943012,151.319605 C643.708938,159.187259 653.415605,163.383802 663.903506,163.383802 C672.296593,163.383802 678.850667,161.282074 684.098074,157.092444 C689.345481,152.895901 691.703012,148.962074 693.279309,145.553679 L728.946469,155.778864 C724.224494,167.31763 715.305975,178.330963 704.292642,185.417383 C693.279309,192.496889 679.113383,196.693432 666.005235,196.693432 C644.497086,196.693432 622.47042,188.563062 609.618074,173.090469 C598.079309,158.924543 592.306469,141.882568 592.306469,123.782815 C592.306469,103.332444 598.342025,84.4445432 609.618074,70.810963 C622.733136,55.3383704 642.927704,47.2010864 663.903506,47.2010864 C684.886222,47.2010864 701.409679,54.0247901 714.524741,69.4973827 C728.683753,86.0208395 732.092148,107.266272 730.253136,131.913185 L630.60079,131.913185 C631.651654,138.992691 633.746469,145.816395 637.943012,151.319605" id="Fill-10"></path>
            <path d="M953.077136,106.476049 L953.077136,192.757531 L916.884543,192.757531 L916.884543,109.096296 C916.884543,98.8711111 915.052444,92.5728395 910.067753,87.0696296 C905.608494,82.0849383 898.791704,79.4646914 891.974914,79.4646914 C885.15121,79.4646914 878.33442,82.3476543 873.87516,87.3323457 C868.371951,93.6237037 867.321086,99.9219753 867.321086,107.001481 L867.321086,192.757531 L831.128494,192.757531 L831.128494,109.096296 C831.128494,98.8711111 829.289481,92.5728395 824.311704,87.0696296 C819.852444,82.0849383 813.035654,79.4646914 806.211951,79.4646914 C799.39516,79.4646914 792.57837,82.3476543 788.119111,87.3323457 C782.608988,93.6237037 781.558123,99.9219753 781.558123,107.001481 L781.558123,192.757531 L745.63516,192.757531 L745.63516,51.1397531 L777.105778,51.1397531 L777.105778,66.3496296 C787.068247,54.5481481 802.278123,47.731358 818.013432,47.731358 C829.814914,47.731358 844.762074,51.4024691 853.680593,60.8395062 C856.30084,63.7293827 858.665284,66.6123457 860.24158,69.4953086 C870.204049,55.8617284 886.46479,47.731358 903.776395,47.731358 C915.577877,47.731358 930.525037,51.4024691 939.436642,60.8395062 C951.770469,73.6918519 953.077136,88.3762963 953.077136,106.476049" id="Fill-12"></path>
            <path d="M1077.02933,121.947259 C1077.02933,109.883062 1074.40909,98.8697284 1069.4244,91.5275062 C1063.38884,82.3462716 1054.21452,78.9378765 1042.41304,78.9378765 C1032.70637,78.9378765 1024.31328,82.0835556 1018.54736,88.9072593 C1011.73057,96.768 1008.58489,109.101827 1008.58489,121.947259 C1008.58489,134.799605 1011.73057,147.389235 1018.54736,154.994173 C1024.83872,161.810963 1033.49452,164.956642 1043.72662,164.956642 C1053.68909,164.956642 1063.92119,161.548247 1069.94983,152.367012 C1074.93452,145.02479 1077.02933,134.011457 1077.02933,121.947259 M1114.79131,121.947259 C1114.79131,141.353679 1110.33205,159.453432 1098.27477,174.137877 C1086.72909,188.559605 1068.11081,196.689975 1049.49254,196.689975 C1033.75723,196.689975 1019.59131,192.493432 1008.58489,184.100346 L1008.58489,192.756148 L977.107358,192.756148 L977.107358,3.93244444 L1013.03723,3.93244444 L1013.03723,56.9112099 C1023.00662,50.8756543 1035.07081,47.2045432 1047.65353,47.2045432 C1067.32958,47.2045432 1086.21057,54.8094815 1098.27477,69.7635556 C1109.2881,83.6598519 1114.79131,102.278123 1114.79131,121.947259" id="Fill-14"></path>
            <path d="M1171.6078,89.6919506 C1167.93669,94.4139259 1166.09768,99.1359012 1164.79101,104.376395 L1227.99496,104.376395 C1227.46953,98.6104691 1225.89323,93.3630617 1222.22212,88.6410864 C1216.712,81.5615802 1207.01225,78.1531852 1197.30558,78.1531852 C1188.13126,78.1531852 1178.68731,80.7734321 1171.6078,89.6919506 M1171.34509,151.319605 C1177.11101,159.187259 1186.81768,163.383802 1197.30558,163.383802 C1205.69867,163.383802 1212.25274,161.282074 1217.50015,157.092444 C1222.74756,152.895901 1225.10509,148.962074 1226.68138,145.553679 L1262.34854,155.778864 C1257.62657,167.31763 1248.70805,178.330963 1237.69472,185.417383 C1226.68138,192.496889 1212.51546,196.693432 1199.40731,196.693432 C1177.89916,196.693432 1155.87249,188.563062 1143.02015,173.090469 C1131.48138,158.924543 1125.71546,141.882568 1125.71546,123.782815 C1125.71546,103.332444 1131.7441,84.4445432 1143.02015,70.810963 C1156.13521,55.3383704 1176.32978,47.2010864 1197.30558,47.2010864 C1218.2883,47.2010864 1234.81175,54.0247901 1247.92681,69.4973827 C1262.08583,86.0208395 1265.49422,107.266272 1263.65521,131.913185 L1164.00286,131.913185 C1165.05373,138.992691 1167.14854,145.816395 1171.34509,151.319605" id="Fill-16"></path>
        </g>
    </g>
</svg>