<?xml version="1.0" encoding="UTF-8"?>
<svg width="907px" height="561px" viewBox="0 0 907 561" version="1.1" xmlns="http://www.w3.org/2000/svg" xmlns:xlink="http://www.w3.org/1999/xlink">
    <!-- Generator: Sketch Beta 57 (83077) - https://sketch.com -->
    <title>Group 19</title>
    <desc>Created with Sketch Beta.</desc>
    <g id="Page-1" stroke="none" stroke-width="1" fill="none" fill-rule="evenodd">
        <g id="00-home" transform="translate(-266.000000, -3560.000000)">
            <g id="Group-19" transform="translate(268.000000, 3561.000000)">
                <path d="M383,285 L297,158" id="Line-52" stroke="#FFFFFF" stroke-width="2" stroke-linecap="round" stroke-linejoin="round"></path>
                <path d="M383,286 L154,268" id="Line-53" stroke="#FFFFFF" stroke-width="2" stroke-linecap="round" stroke-linejoin="round"></path>
                <path d="M383,285 L181.5,375" id="Line-54" stroke="#FFFFFF" stroke-width="2" stroke-linecap="round" stroke-linejoin="round"></path>
                <path d="M383.5,287 L297,397" id="Line-55" stroke="#FFFFFF" stroke-width="2" stroke-linecap="round" stroke-linejoin="round"></path>
                <path d="M383,285 L489,285" id="Line-56" stroke="#FFFFFF" stroke-width="2" stroke-linecap="round" stroke-linejoin="round"></path>
                <rect id="Rectangle" fill="#FFFFFF" x="311" y="213" width="144" height="144" rx="72"></rect>
                <path d="M346.348987,281.427071 L348.288578,281.908322 C348.026077,282.783326 347.617742,283.585412 346.742739,284.285414 C345.853152,284.985417 344.788565,285.218751 343.621894,285.218751 C342.076056,285.218751 340.734384,284.606249 339.873965,283.497911 C339.028128,282.404158 338.663544,281.135403 338.663544,279.749982 C338.663544,278.306226 338.998962,277.008305 339.859381,275.972885 C340.792718,274.835381 342.105222,274.281212 343.621894,274.281212 C344.832315,274.281212 345.867736,274.52913 346.728155,275.229132 C347.676075,275.987468 348.12816,276.877055 348.361494,277.883308 L346.378154,278.160393 C346.27607,277.810391 346.115653,277.474974 345.896902,277.197889 C345.371901,276.497887 344.657315,276.162469 343.753145,276.147886 C342.848975,276.133302 341.973972,276.497887 341.463554,277.197889 C340.923968,277.883308 340.734384,278.831228 340.748968,279.749982 C340.763551,280.668735 340.923968,281.602071 341.463554,282.302074 C341.973972,283.002076 342.848975,283.337494 343.753145,283.352078 C344.657315,283.366661 345.371901,283.002076 345.896902,282.302074 C346.086486,282.039573 346.246904,281.747905 346.348987,281.427071 Z M354.471895,285.218751 C352.969806,285.218751 351.511468,284.635415 350.607298,283.497911 C349.761462,282.477074 349.382294,281.149986 349.382294,279.749982 C349.382294,278.349977 349.761462,277.008305 350.607298,275.987468 C351.526051,274.835381 352.955223,274.281212 354.471895,274.281212 C355.988567,274.281212 357.403155,274.849964 358.336492,275.987468 C359.226078,277.066639 359.532329,278.349977 359.561496,279.749982 C359.532329,281.20832 359.196912,282.447908 358.336492,283.497911 C357.373988,284.664582 355.930233,285.218751 354.471895,285.218751 Z M354.471895,283.352078 C355.376065,283.366661 356.236484,283.002076 356.761486,282.302074 C357.286488,281.602071 357.461489,280.668735 357.461489,279.749982 C357.461489,278.831228 357.286488,277.883308 356.761486,277.197889 C356.236484,276.497887 355.376065,276.162469 354.471895,276.147886 C353.567725,276.133302 352.692722,276.497887 352.182304,277.197889 C351.642718,277.883308 351.453134,278.831228 351.467718,279.749982 C351.482301,280.668735 351.642718,281.602071 352.182304,282.302074 C352.692722,283.002076 353.567725,283.337494 354.471895,283.352078 Z M363.178136,274.499963 L367.742735,281.499988 L367.742735,274.499963 L369.755242,274.499963 L369.755242,285 L367.742735,285 L363.178136,277.999975 L363.178136,285 L361.165629,285 L361.165629,274.499963 L363.178136,274.499963 Z M379.526072,274.499963 L379.526072,276.352053 L376.215644,276.352053 L376.215644,285 L374.232304,285 L374.232304,276.352053 L370.921876,276.352053 L370.921876,274.499963 L379.526072,274.499963 Z M387.546903,276.352053 L382.676052,276.352053 L382.676052,278.597894 L386.6719,278.597894 L386.6719,280.449984 L382.676052,280.449984 L382.676052,283.14791 L387.546903,283.14791 L387.546903,285 L380.692712,285 L380.692712,274.499963 L387.546903,274.499963 L387.546903,276.352053 Z M400.088582,274.499963 L400.088582,285 L398.236492,285 L398.236492,278.729145 L395.188565,285 L394.488562,285 L391.440635,278.743728 L391.440635,285 L389.588545,285 L389.588545,274.499963 L391.367718,274.499963 L394.838564,281.470821 L398.309409,274.499963 L400.088582,274.499963 Z M409.130237,279.866649 C409.640655,280.30415 409.961489,281.062486 409.961489,281.791655 C409.961489,282.739575 409.713572,283.614578 409.05732,284.227081 C408.444817,284.795833 407.817732,285 406.563561,285 L402.130212,285 L402.130212,274.499963 L406.315643,274.499963 C407.234397,274.499963 407.934399,274.689547 408.561485,275.272882 C409.203153,275.870801 409.465654,276.614554 409.480238,277.489557 C409.494821,278.247893 409.173987,278.933312 408.721902,279.297897 C408.634401,279.370814 408.561485,279.429147 408.459401,279.472897 C408.707318,279.574981 408.940653,279.706231 409.130237,279.866649 Z M406.30106,276.352053 L404.142719,276.352053 L404.142719,278.597894 L406.30106,278.597894 C406.738561,278.597894 407.001062,278.466644 407.219813,278.247893 C407.423981,278.043726 407.467731,277.766641 407.467731,277.489557 C407.467731,277.197889 407.38023,276.891638 407.146896,276.658304 C406.928145,276.439553 406.651061,276.352053 406.30106,276.352053 Z M407.569814,282.754159 C407.832315,282.506241 407.963566,282.170823 407.963566,281.791655 C407.963566,281.441654 407.861482,281.062486 407.598981,280.799985 C407.29273,280.493734 406.884395,280.449984 406.578144,280.449984 L404.142719,280.449984 L404.142719,283.133327 L406.578144,283.133327 C407.001062,283.133327 407.307313,283.002076 407.569814,282.754159 Z M418.419819,276.352053 L413.548969,276.352053 L413.548969,278.597894 L417.544816,278.597894 L417.544816,280.449984 L413.548969,280.449984 L413.548969,283.14791 L418.419819,283.14791 L418.419819,285 L411.565629,285 L411.565629,274.499963 L418.419819,274.499963 L418.419819,276.352053 Z M426.382316,285 L424.646893,281.427071 L422.444802,281.427071 L422.444802,285 L420.461462,285 L420.461462,274.499963 L424.894811,274.499963 C426.134399,274.499963 426.819818,274.806214 427.417736,275.38955 C428.176072,276.118719 428.46774,276.877055 428.482323,277.970809 C428.496907,278.962479 428.117739,279.866649 427.534403,280.449984 C427.286486,280.697902 427.009402,280.902069 426.703151,281.047903 L428.628157,285 L426.382316,285 Z M422.444802,276.366636 L422.444802,279.574981 L424.953144,279.574981 C425.346896,279.574981 425.828147,279.39998 426.134399,279.020812 C426.367733,278.743728 426.469816,278.32081 426.469816,277.970809 C426.469816,277.591641 426.382316,277.124972 426.119815,276.804138 C425.857314,276.497887 425.49273,276.366636 424.953144,276.366636 L422.444802,276.366636 Z M379.248985,304 L378.578149,301.812492 L374.626052,301.812492 L373.955217,304 L371.913543,304 L375.121887,293.499963 L378.082314,293.499963 L381.290659,304 L379.248985,304 Z M375.180221,299.960402 L377.994814,299.960402 L376.580226,295.366636 L375.180221,299.960402 Z M390.62399,296.970809 C390.638574,297.962479 390.259406,298.866649 389.67607,299.449984 C389.005234,300.135403 388.115648,300.427071 387.036478,300.427071 L384.586469,300.427071 L384.586469,304 L382.603129,304 L382.603129,293.499963 L387.036478,293.499963 C388.276065,293.499963 388.961484,293.806214 389.559403,294.38955 C390.317739,295.118719 390.609407,295.877055 390.62399,296.970809 Z M388.276065,298.020812 C388.509399,297.743728 388.611483,297.32081 388.611483,296.970809 C388.611483,296.591641 388.523983,296.124972 388.261482,295.804138 C387.998981,295.497887 387.634396,295.366636 387.094811,295.366636 L384.586469,295.366636 L384.586469,298.574981 L387.094811,298.574981 C387.488562,298.574981 387.969814,298.39998 388.276065,298.020812 Z M392.228129,293.499963 L394.211469,293.499963 L394.211469,304 L392.228129,304 L392.228129,293.499963 Z" id="CONTEMBERAPI" fill="#0094FF" fill-rule="nonzero"></path>
                <g id="Group-17" transform="translate(505.496933, 167.000000)">
                    <rect id="Rectangle-Copy-9" stroke="#0094FF" stroke-width="3" x="1.5" y="1.5" width="194" height="220" rx="10"></rect>
                    <path d="M63.1969088,18.7499815 C63.1969088,20.1645698 62.7594073,21.6083249 61.8406541,22.5708283 C60.9510676,23.5479151 59.6531464,24 58.2823082,24 L54.5927119,24 L54.5927119,13.4999631 L58.2968916,13.4999631 C59.7406467,13.4999631 60.9510676,13.9812148 61.7969039,14.9145514 C62.7448239,15.9062215 63.1969088,17.3062265 63.1969088,18.7499815 Z M61.0969015,18.7499815 C61.0969015,17.7874782 60.8927341,16.8833083 60.3239821,16.2124726 C59.7552301,15.5853871 59.1135612,15.4103865 58.2968916,15.3666363 L56.605219,15.3812197 L56.605219,22.1333268 L58.2823082,22.1479102 C59.069811,22.1187434 59.7843968,21.8854092 60.2948153,21.3312406 C60.8927341,20.6312382 61.0969015,19.7708185 61.0969015,18.7499815 Z M71.2614852,24 L70.5906495,21.8124923 L66.6385522,21.8124923 L65.9677165,24 L63.9260427,24 L67.1343873,13.4999631 L70.0948144,13.4999631 L73.303159,24 L71.2614852,24 Z M67.1927208,19.9604025 L70.0073141,19.9604025 L68.5927258,15.3666363 L67.1927208,19.9604025 Z M74.7614624,13.4999631 L76.7448027,13.4999631 L76.7448027,24 L74.7614624,24 L74.7614624,13.4999631 Z M81.0614694,13.4999631 L81.0614694,22.1479102 L85.5823186,22.1479102 L85.5823186,24 L79.0781291,24 L79.0781291,13.4999631 L81.0614694,13.4999631 Z M91.2114825,13.4999631 L93.5302406,13.4999631 L89.942728,19.7270683 L89.942728,24 L87.9302209,24 L87.9302209,19.7270683 L84.3427083,13.4999631 L86.6614665,13.4999631 L88.9364745,17.4520603 L91.2114825,13.4999631 Z M104.90524,16.9708086 C104.919824,17.9624788 104.540656,18.8666486 103.95732,19.449984 C103.286484,20.1354031 102.396898,20.4270708 101.317728,20.4270708 L98.8677189,20.4270708 L98.8677189,24 L96.8843786,24 L96.8843786,13.4999631 L101.317728,13.4999631 C102.557315,13.4999631 103.242734,13.8062142 103.840653,14.3895495 C104.598989,15.1187188 104.890657,15.8770548 104.90524,16.9708086 Z M102.557315,18.0208123 C102.790649,17.743728 102.892733,17.3208098 102.892733,16.9708086 C102.892733,16.5916406 102.805233,16.1249723 102.542732,15.8041378 C102.280231,15.4978868 101.915646,15.3666363 101.376061,15.3666363 L98.8677189,15.3666363 L98.8677189,18.5749809 L101.376061,18.5749809 C101.769812,18.5749809 102.251064,18.3999803 102.557315,18.0208123 Z M112.240652,24 L111.569816,21.8124923 L107.617719,21.8124923 L106.946883,24 L104.905209,24 L108.113554,13.4999631 L111.073981,13.4999631 L114.282326,24 L112.240652,24 Z M108.171888,19.9604025 L110.986481,19.9604025 L109.571892,15.3666363 L108.171888,19.9604025 Z M123.615657,16.9708086 C123.63024,17.9624788 123.251072,18.8666486 122.667737,19.449984 C121.996901,20.1354031 121.107315,20.4270708 120.028144,20.4270708 L117.578136,20.4270708 L117.578136,24 L115.594795,24 L115.594795,13.4999631 L120.028144,13.4999631 C121.267732,13.4999631 121.953151,13.8062142 122.55107,14.3895495 C123.309406,15.1187188 123.601073,15.8770548 123.615657,16.9708086 Z M121.267732,18.0208123 C121.501066,17.743728 121.60315,17.3208098 121.60315,16.9708086 C121.60315,16.5916406 121.515649,16.1249723 121.253148,15.8041378 C120.990648,15.4978868 120.626063,15.3666363 120.086478,15.3666363 L117.578136,15.3666363 L117.578136,18.5749809 L120.086478,18.5749809 C120.480229,18.5749809 120.961481,18.3999803 121.267732,18.0208123 Z M131.928153,15.3520529 L127.057302,15.3520529 L127.057302,17.5978942 L131.05315,17.5978942 L131.05315,19.449984 L127.057302,19.449984 L127.057302,22.1479102 L131.928153,22.1479102 L131.928153,24 L125.073962,24 L125.073962,13.4999631 L131.928153,13.4999631 L131.928153,15.3520529 Z M139.890649,24 L138.155227,20.4270708 L135.953136,20.4270708 L135.953136,24 L133.969795,24 L133.969795,13.4999631 L138.403144,13.4999631 C139.642732,13.4999631 140.328151,13.8062142 140.92607,14.3895495 C141.684406,15.1187188 141.976073,15.8770548 141.990657,16.9708086 C142.00524,17.9624788 141.626072,18.8666486 141.042737,19.449984 C140.794819,19.6979015 140.517735,19.9020689 140.211484,20.0479028 L142.136491,24 L139.890649,24 Z M135.953136,15.3666363 L135.953136,18.5749809 L138.461478,18.5749809 C138.855229,18.5749809 139.336481,18.3999803 139.642732,18.0208123 C139.876066,17.743728 139.97815,17.3208098 139.97815,16.9708086 C139.97815,16.5916406 139.890649,16.1249723 139.628148,15.8041378 C139.365648,15.4978868 139.001063,15.3666363 138.461478,15.3666363 L135.953136,15.3666363 Z M81.7250268,43 L81.0541911,40.8124923 L77.1020939,40.8124923 L76.4312582,43 L74.3895844,43 L77.597929,32.4999631 L80.5583561,32.4999631 L83.7667007,43 L81.7250268,43 Z M77.6562625,38.9604025 L80.4708557,38.9604025 L79.0562674,34.3666363 L77.6562625,38.9604025 Z M93.6833672,37.7499815 C93.6833672,39.1645698 93.2458656,40.6083249 92.3271124,41.5708283 C91.437526,42.5479151 90.1396047,43 88.7687666,43 L85.0791703,43 L85.0791703,32.4999631 L88.7833499,32.4999631 C90.227105,32.4999631 91.437526,32.9812148 92.2833623,33.9145514 C93.2312823,34.9062215 93.6833672,36.3062265 93.6833672,37.7499815 Z M91.5833598,37.7499815 C91.5833598,36.7874782 91.3791924,35.8833083 90.8104404,35.2124726 C90.2416884,34.5853871 89.6000195,34.4103865 88.7833499,34.3666363 L87.0916773,34.3812197 L87.0916773,41.1333268 L88.7687666,41.1479102 C89.5562693,41.1187434 90.2708552,40.8854092 90.7812736,40.3312406 C91.3791924,39.6312382 91.5833598,38.7708185 91.5833598,37.7499815 Z M105.933374,32.4999631 L105.933374,43 L104.081284,43 L104.081284,36.7291446 L101.033357,43 L100.333354,43 L97.2854268,36.743728 L97.2854268,43 L95.4333369,43 L95.4333369,32.4999631 L97.2125098,32.4999631 L100.683355,39.4708209 L104.154201,32.4999631 L105.933374,32.4999631 Z M108.120837,32.4999631 L110.104178,32.4999631 L110.104178,43 L108.120837,43 L108.120837,32.4999631 Z M114.304177,32.4999631 L118.868777,39.4999877 L118.868777,32.4999631 L120.881284,32.4999631 L120.881284,43 L118.868777,43 L114.304177,35.9999754 L114.304177,43 L112.29167,43 L112.29167,32.4999631 L114.304177,32.4999631 Z" id="DAILYPAPERADMIN" fill="#0094FF" fill-rule="nonzero"></path>
                    <rect id="Rectangle" stroke="#0094FF" stroke-width="2" x="52.5030675" y="77" width="91" height="12"></rect>
                    <rect id="Rectangle-Copy-11" stroke="#0094FF" stroke-width="2" x="52.5030675" y="143" width="91" height="12"></rect>
                    <rect id="Rectangle-Copy-10" stroke="#0094FF" stroke-width="2" x="52.5030675" y="110" width="91" height="12"></rect>
                    <rect id="Rectangle-Copy-12" stroke="#0094FF" stroke-width="2" x="52.5030675" y="176" width="91" height="34"></rect>
                    <path d="M52.5030675,69.5 L99.8173532,69.5" id="Line-51" stroke="#0094FF" stroke-width="2" stroke-linecap="square"></path>
                    <path d="M52.5030675,103.5 L99.8173532,103.5" id="Line-51-Copy" stroke="#0094FF" stroke-width="2" stroke-linecap="square"></path>
                    <path d="M52.5030675,136.5 L99.8173532,136.5" id="Line-51-Copy-2" stroke="#0094FF" stroke-width="2" stroke-linecap="square"></path>
                    <path d="M52.5030675,168.5 L99.8173532,168.5" id="Line-51-Copy-3" stroke="#0094FF" stroke-width="2" stroke-linecap="square"></path>
                </g>
                <g id="Group-18" transform="translate(760.000000, 126.000000)">
                    <rect id="Rectangle-Copy-13" stroke="#0094FF" stroke-width="3" x="1.5" y="1.5" width="141" height="139" rx="10"></rect>
                    <path d="M45.1547141,16.8749855 C45.1547141,17.9864477 44.8109629,19.1208267 44.0890853,19.8770794 C43.3901246,20.6447904 42.3703293,21 41.2932422,21 L38.3942737,21 L38.3942737,12.749971 L41.3047006,12.749971 C42.4390795,12.749971 43.3901246,13.1280973 44.0547102,13.8614332 C44.7995045,14.6406026 45.1547141,15.7406065 45.1547141,16.8749855 Z M43.5047083,16.8749855 C43.5047083,16.1187328 43.3442911,15.4083137 42.8974145,14.8812285 C42.4505379,14.3885184 41.9463695,14.2510179 41.3047006,14.2166428 L39.9755292,14.2281012 L39.9755292,19.5333282 L41.2932422,19.5447865 C41.9119944,19.5218698 42.4734547,19.3385358 42.8744977,18.9031176 C43.3442911,18.3531157 43.5047083,17.6770716 43.5047083,16.8749855 Z M51.4911669,21 L50.9640817,19.281244 L47.8588625,19.281244 L47.3317773,21 L45.727605,21 L48.2484472,12.749971 L50.574497,12.749971 L53.0953392,21 L51.4911669,21 Z M48.2942807,17.8260305 L50.5057468,17.8260305 L49.3942845,14.2166428 L48.2942807,17.8260305 Z M54.2411491,12.749971 L55.7994879,12.749971 L55.7994879,21 L54.2411491,21 L54.2411491,12.749971 Z M59.1911545,12.749971 L59.1911545,19.5447865 L62.7432504,19.5447865 L62.7432504,21 L57.6328157,21 L57.6328157,12.749971 L59.1911545,12.749971 Z M67.1661648,12.749971 L68.9880462,12.749971 L66.1692863,17.6426965 L66.1692863,21 L64.5880307,21 L64.5880307,17.6426965 L61.7692708,12.749971 L63.5911522,12.749971 L65.3786585,15.8551902 L67.1661648,12.749971 Z M77.9255458,15.4770639 C77.9370042,16.2562333 77.6390865,16.9666525 77.1807515,17.4249874 C76.6536663,17.963531 75.9547056,18.1926985 75.1067859,18.1926985 L73.1817791,18.1926985 L73.1817791,21 L71.6234403,21 L71.6234403,12.749971 L75.1067859,12.749971 C76.0807477,12.749971 76.6192912,12.9905968 77.0890845,13.4489318 C77.68492,14.0218505 77.9140874,14.6176859 77.9255458,15.4770639 Z M76.0807477,16.3020668 C76.2640816,16.0843577 76.3442903,15.7520649 76.3442903,15.4770639 C76.3442903,15.1791462 76.27554,14.8124782 76.0692893,14.560394 C75.8630386,14.3197682 75.5765792,14.2166428 75.1526194,14.2166428 L73.1817791,14.2166428 L73.1817791,16.737485 L75.1526194,16.737485 C75.4619955,16.737485 75.8401218,16.5999845 76.0807477,16.3020668 Z M83.6890836,21 L83.1619984,19.281244 L80.0567791,19.281244 L79.5296939,21 L77.9255216,21 L80.4463638,12.749971 L82.7724137,12.749971 L85.2932559,21 L83.6890836,21 Z M80.4921973,17.8260305 L82.7036634,17.8260305 L81.5922012,14.2166428 L80.4921973,17.8260305 Z M92.6265875,15.4770639 C92.6380459,16.2562333 92.3401281,16.9666525 91.8817932,17.4249874 C91.354708,17.963531 90.6557472,18.1926985 89.8078276,18.1926985 L87.8828208,18.1926985 L87.8828208,21 L86.324482,21 L86.324482,12.749971 L89.8078276,12.749971 C90.7817893,12.749971 91.3203329,12.9905968 91.7901262,13.4489318 C92.3859616,14.0218505 92.6151291,14.6176859 92.6265875,15.4770639 Z M90.7817893,16.3020668 C90.9651233,16.0843577 91.0453319,15.7520649 91.0453319,15.4770639 C91.0453319,15.1791462 90.9765817,14.8124782 90.770331,14.560394 C90.5640802,14.3197682 90.2776209,14.2166428 89.8536611,14.2166428 L87.8828208,14.2166428 L87.8828208,16.737485 L89.8536611,16.737485 C90.1630372,16.737485 90.5411635,16.5999845 90.7817893,16.3020668 Z M99.1578343,14.2051844 L95.3307375,14.2051844 L95.3307375,15.969774 L98.4703318,15.969774 L98.4703318,17.4249874 L95.3307375,17.4249874 L95.3307375,19.5447865 L99.1578343,19.5447865 L99.1578343,21 L93.7723987,21 L93.7723987,12.749971 L99.1578343,12.749971 L99.1578343,14.2051844 Z M105.414082,21 L104.050535,18.1926985 L102.320321,18.1926985 L102.320321,21 L100.761982,21 L100.761982,12.749971 L104.245328,12.749971 C105.219289,12.749971 105.757833,12.9905968 106.227626,13.4489318 C106.823462,14.0218505 107.052629,14.6176859 107.064087,15.4770639 C107.075546,16.2562333 106.777628,16.9666525 106.319293,17.4249874 C106.124501,17.6197798 105.906792,17.780197 105.666166,17.8947807 L107.178671,21 L105.414082,21 Z M102.320321,14.2166428 L102.320321,16.737485 L104.291161,16.737485 C104.600537,16.737485 104.978663,16.5999845 105.219289,16.3020668 C105.402623,16.0843577 105.482832,15.7520649 105.482832,15.4770639 C105.482832,15.1791462 105.414082,14.8124782 105.207831,14.560394 C105.00158,14.3197682 104.715121,14.2166428 104.291161,14.2166428 L102.320321,14.2166428 Z M29.5255458,30.4770639 C29.5370042,31.2562333 29.2390865,31.9666525 28.7807515,32.4249874 C28.2536663,32.963531 27.5547056,33.1926985 26.7067859,33.1926985 L24.7817791,33.1926985 L24.7817791,36 L23.2234403,36 L23.2234403,27.749971 L26.7067859,27.749971 C27.6807477,27.749971 28.2192912,27.9905968 28.6890845,28.4489318 C29.28492,29.0218505 29.5140874,29.6176859 29.5255458,30.4770639 Z M27.6807477,31.3020668 C27.8640816,31.0843577 27.9442903,30.7520649 27.9442903,30.4770639 C27.9442903,30.1791462 27.87554,29.8124782 27.6692893,29.560394 C27.4630386,29.3197682 27.1765792,29.2166428 26.7526194,29.2166428 L24.7817791,29.2166428 L24.7817791,31.737485 L26.7526194,31.737485 C27.0619955,31.737485 27.4401218,31.5999845 27.6807477,31.3020668 Z M36.0567926,29.2051844 L32.2296958,29.2051844 L32.2296958,30.969774 L35.3692902,30.969774 L35.3692902,32.4249874 L32.2296958,32.4249874 L32.2296958,34.5447865 L36.0567926,34.5447865 L36.0567926,36 L30.671357,36 L30.671357,27.749971 L36.0567926,27.749971 L36.0567926,29.2051844 Z M42.31304,36 L40.9494936,33.1926985 L39.2192791,33.1926985 L39.2192791,36 L37.6609403,36 L37.6609403,27.749971 L41.1442859,27.749971 C42.1182477,27.749971 42.6567912,27.9905968 43.1265845,28.4489318 C43.72242,29.0218505 43.9515874,29.6176859 43.9630458,30.4770639 C43.9745042,31.2562333 43.6765865,31.9666525 43.2182515,32.4249874 C43.0234592,32.6197798 42.8057501,32.780197 42.5651242,32.8947807 L44.0776296,36 L42.31304,36 Z M39.2192791,29.2166428 L39.2192791,31.737485 L41.1901194,31.737485 C41.4994955,31.737485 41.8776218,31.5999845 42.1182477,31.3020668 C42.3015816,31.0843577 42.3817903,30.7520649 42.3817903,30.4770639 C42.3817903,30.1791462 42.31304,29.8124782 42.1067893,29.560394 C41.9005386,29.3197682 41.6140792,29.2166428 41.1901194,29.2166428 L39.2192791,29.2166428 Z M51.4682544,29.8468534 L49.8869988,30.2708132 C49.6807481,29.8583117 49.5088725,29.5718524 49.1192878,29.3426849 C48.8557452,29.1822677 48.5234523,29.0447672 48.145326,29.0447672 C47.7557413,29.0333088 47.3890733,29.1249758 47.1484475,29.2739347 C46.8619882,29.4458103 46.7244877,29.7093529 46.7244877,29.9614371 C46.7244877,30.110396 46.7817795,30.2478964 46.8849049,30.3510218 C47.0338638,30.511439 47.4119901,30.6603979 47.8244915,30.78644 L49.2567882,31.1989414 C49.9901242,31.4166505 50.414084,31.6343596 50.7807519,31.9781109 C51.273462,32.4479042 51.548463,33.055198 51.548463,33.731242 C51.548463,34.4531196 51.1359615,35.2093722 50.4828342,35.6447904 C49.8526237,36.0687502 49.096371,36.1718756 48.2255346,36.1718756 C47.1255307,36.1718756 46.1859441,35.8854163 45.5099001,35.0604134 C45.108857,34.5677033 44.8911479,33.9947846 44.7651058,33.4562411 L46.3463613,33.0322812 C46.4151116,33.4333243 46.5526121,33.7999923 46.7588628,34.0520765 C47.0911556,34.5104114 47.7328245,34.7166622 48.2828265,34.7166622 C48.7182447,34.7166622 49.2682466,34.59062 49.5661643,34.3614526 C49.8297069,34.1666602 49.8984572,33.914576 49.8984572,33.6854085 C49.8984572,33.4676994 49.8182485,33.2614487 49.6463729,33.1124898 C49.463039,32.9520726 49.2338715,32.8374889 48.913037,32.7458219 L47.377615,32.2989453 C46.7588628,32.1270697 46.1974025,31.8864439 45.7963594,31.5312343 C45.3036493,31.1187328 45.0859402,30.4999807 45.0859402,29.927062 C45.0859402,29.0218505 45.6703173,28.2426811 46.42657,27.8989298 C47.0224054,27.6239289 47.6182408,27.5780954 48.1682427,27.5780954 C48.7297031,27.5895538 49.3484552,27.6812207 49.8984572,27.9791385 C50.597418,28.3572648 51.1474199,29.0103921 51.4682544,29.8468534 Z M56.4640782,36.1718756 C55.2838657,36.1718756 54.1380283,35.7135407 53.4276092,34.8197875 C52.7630235,34.0177014 52.4651058,32.9749894 52.4651058,31.8749855 C52.4651058,30.7749816 52.7630235,29.7208113 53.4276092,28.9187251 C54.1494867,28.0135136 55.2724073,27.5780954 56.4640782,27.5780954 C57.655749,27.5780954 58.7672113,28.024972 59.5005472,28.9187251 C60.199508,29.7666447 60.4401338,30.7749816 60.4630506,31.8749855 C60.4401338,33.0208229 60.1765912,33.9947846 59.5005472,34.8197875 C58.7442945,35.7364574 57.6099155,36.1718756 56.4640782,36.1718756 Z M56.4640782,34.7052038 C57.1744973,34.7166622 57.8505414,34.4302028 58.2630428,33.8802009 C58.6755443,33.3301989 58.8130448,32.596863 58.8130448,31.8749855 C58.8130448,31.153108 58.6755443,30.4083137 58.2630428,29.8697701 C57.8505414,29.3197682 57.1744973,29.0562256 56.4640782,29.0447672 C55.753659,29.0333088 55.0661566,29.3197682 54.6651135,29.8697701 C54.2411537,30.4083137 54.0921948,31.153108 54.1036532,31.8749855 C54.1151116,32.596863 54.2411537,33.3301989 54.6651135,33.8802009 C55.0661566,34.4302028 55.753659,34.6937454 56.4640782,34.7052038 Z M63.3046959,27.749971 L66.8911668,33.2499903 L66.8911668,27.749971 L68.4724224,27.749971 L68.4724224,36 L66.8911668,36 L63.3046959,30.4999807 L63.3046959,36 L61.7234403,36 L61.7234403,27.749971 L63.3046959,27.749971 Z M75.2672086,36 L74.7401234,34.281244 L71.6349041,34.281244 L71.1078189,36 L69.5036466,36 L72.0244888,27.749971 L74.3505387,27.749971 L76.8713809,36 L75.2672086,36 Z M72.0703223,32.8260305 L74.2817884,32.8260305 L73.1703262,29.2166428 L72.0703223,32.8260305 Z M79.5755295,27.749971 L79.5755295,34.5447865 L83.1276254,34.5447865 L83.1276254,36 L78.0171907,36 L78.0171907,27.749971 L79.5755295,27.749971 Z M91.0109586,36 L90.4838734,34.281244 L87.3786541,34.281244 L86.8515689,36 L85.2473966,36 L87.7682388,27.749971 L90.0942887,27.749971 L92.6151309,36 L91.0109586,36 Z M87.8140723,32.8260305 L90.0255384,32.8260305 L88.9140762,29.2166428 L87.8140723,32.8260305 Z M100.406797,31.8749855 C100.406797,32.9864477 100.063046,34.1208267 99.3411687,34.8770794 C98.6422079,35.6447904 97.6224126,36 96.5453255,36 L93.646357,36 L93.646357,27.749971 L96.5567839,27.749971 C97.6911629,27.749971 98.6422079,28.1280973 99.3067936,28.8614332 C100.051588,29.6406026 100.406797,30.7406065 100.406797,31.8749855 Z M98.7567916,31.8749855 C98.7567916,31.1187328 98.5963744,30.4083137 98.1494978,29.8812285 C97.7026213,29.3885184 97.1984528,29.2510179 96.5567839,29.2166428 L95.2276125,29.2281012 L95.2276125,34.5333282 L96.5453255,34.5447865 C97.1640777,34.5218698 97.725538,34.3385358 98.1265811,33.9031176 C98.5963744,33.3531157 98.7567916,32.6770716 98.7567916,31.8749855 Z M110.031803,27.749971 L110.031803,36 L108.576589,36 L108.576589,31.0728993 L106.181789,36 L105.631787,36 L103.236987,31.0843577 L103.236987,36 L101.781774,36 L101.781774,27.749971 L103.179695,27.749971 L105.906788,33.2270736 L108.633881,27.749971 L110.031803,27.749971 Z M111.750524,27.749971 L113.308863,27.749971 L113.308863,36 L111.750524,36 L111.750524,27.749971 Z M116.608863,27.749971 L120.195333,33.2499903 L120.195333,27.749971 L121.776589,27.749971 L121.776589,36 L120.195333,36 L116.608863,30.4999807 L116.608863,36 L115.027607,36 L115.027607,27.749971 L116.608863,27.749971 Z" id="DAILYPAPERPERSONALADMIN" fill="#0094FF" fill-rule="nonzero"></path>
                    <rect id="Rectangle-Copy-14" stroke="#0094FF" stroke-width="2" x="39" y="57" width="66" height="8"></rect>
                    <rect id="Rectangle-Copy-15" fill="#0094FF" x="55" y="73" width="33" height="10"></rect>
                    <path d="M39,51 L73.5,51" id="Line-51-Copy-4" stroke="#0094FF" stroke-width="2" stroke-linecap="square"></path>
                </g>
                <g id="Group-18-Copy" transform="translate(761.000000, 290.000000)">
                    <rect id="Rectangle-Copy-13" stroke="#0094FF" stroke-width="3" x="1.5" y="1.5" width="141" height="139" rx="10"></rect>
                    <path d="M45.1547141,16.8749855 C45.1547141,17.9864477 44.8109629,19.1208267 44.0890853,19.8770794 C43.3901246,20.6447904 42.3703293,21 41.2932422,21 L38.3942737,21 L38.3942737,12.749971 L41.3047006,12.749971 C42.4390795,12.749971 43.3901246,13.1280973 44.0547102,13.8614332 C44.7995045,14.6406026 45.1547141,15.7406065 45.1547141,16.8749855 Z M43.5047083,16.8749855 C43.5047083,16.1187328 43.3442911,15.4083137 42.8974145,14.8812285 C42.4505379,14.3885184 41.9463695,14.2510179 41.3047006,14.2166428 L39.9755292,14.2281012 L39.9755292,19.5333282 L41.2932422,19.5447865 C41.9119944,19.5218698 42.4734547,19.3385358 42.8744977,18.9031176 C43.3442911,18.3531157 43.5047083,17.6770716 43.5047083,16.8749855 Z M51.4911669,21 L50.9640817,19.281244 L47.8588625,19.281244 L47.3317773,21 L45.727605,21 L48.2484472,12.749971 L50.574497,12.749971 L53.0953392,21 L51.4911669,21 Z M48.2942807,17.8260305 L50.5057468,17.8260305 L49.3942845,14.2166428 L48.2942807,17.8260305 Z M54.2411491,12.749971 L55.7994879,12.749971 L55.7994879,21 L54.2411491,21 L54.2411491,12.749971 Z M59.1911545,12.749971 L59.1911545,19.5447865 L62.7432504,19.5447865 L62.7432504,21 L57.6328157,21 L57.6328157,12.749971 L59.1911545,12.749971 Z M67.1661648,12.749971 L68.9880462,12.749971 L66.1692863,17.6426965 L66.1692863,21 L64.5880307,21 L64.5880307,17.6426965 L61.7692708,12.749971 L63.5911522,12.749971 L65.3786585,15.8551902 L67.1661648,12.749971 Z M77.9255458,15.4770639 C77.9370042,16.2562333 77.6390865,16.9666525 77.1807515,17.4249874 C76.6536663,17.963531 75.9547056,18.1926985 75.1067859,18.1926985 L73.1817791,18.1926985 L73.1817791,21 L71.6234403,21 L71.6234403,12.749971 L75.1067859,12.749971 C76.0807477,12.749971 76.6192912,12.9905968 77.0890845,13.4489318 C77.68492,14.0218505 77.9140874,14.6176859 77.9255458,15.4770639 Z M76.0807477,16.3020668 C76.2640816,16.0843577 76.3442903,15.7520649 76.3442903,15.4770639 C76.3442903,15.1791462 76.27554,14.8124782 76.0692893,14.560394 C75.8630386,14.3197682 75.5765792,14.2166428 75.1526194,14.2166428 L73.1817791,14.2166428 L73.1817791,16.737485 L75.1526194,16.737485 C75.4619955,16.737485 75.8401218,16.5999845 76.0807477,16.3020668 Z M83.6890836,21 L83.1619984,19.281244 L80.0567791,19.281244 L79.5296939,21 L77.9255216,21 L80.4463638,12.749971 L82.7724137,12.749971 L85.2932559,21 L83.6890836,21 Z M80.4921973,17.8260305 L82.7036634,17.8260305 L81.5922012,14.2166428 L80.4921973,17.8260305 Z M92.6265875,15.4770639 C92.6380459,16.2562333 92.3401281,16.9666525 91.8817932,17.4249874 C91.354708,17.963531 90.6557472,18.1926985 89.8078276,18.1926985 L87.8828208,18.1926985 L87.8828208,21 L86.324482,21 L86.324482,12.749971 L89.8078276,12.749971 C90.7817893,12.749971 91.3203329,12.9905968 91.7901262,13.4489318 C92.3859616,14.0218505 92.6151291,14.6176859 92.6265875,15.4770639 Z M90.7817893,16.3020668 C90.9651233,16.0843577 91.0453319,15.7520649 91.0453319,15.4770639 C91.0453319,15.1791462 90.9765817,14.8124782 90.770331,14.560394 C90.5640802,14.3197682 90.2776209,14.2166428 89.8536611,14.2166428 L87.8828208,14.2166428 L87.8828208,16.737485 L89.8536611,16.737485 C90.1630372,16.737485 90.5411635,16.5999845 90.7817893,16.3020668 Z M99.1578343,14.2051844 L95.3307375,14.2051844 L95.3307375,15.969774 L98.4703318,15.969774 L98.4703318,17.4249874 L95.3307375,17.4249874 L95.3307375,19.5447865 L99.1578343,19.5447865 L99.1578343,21 L93.7723987,21 L93.7723987,12.749971 L99.1578343,12.749971 L99.1578343,14.2051844 Z M105.414082,21 L104.050535,18.1926985 L102.320321,18.1926985 L102.320321,21 L100.761982,21 L100.761982,12.749971 L104.245328,12.749971 C105.219289,12.749971 105.757833,12.9905968 106.227626,13.4489318 C106.823462,14.0218505 107.052629,14.6176859 107.064087,15.4770639 C107.075546,16.2562333 106.777628,16.9666525 106.319293,17.4249874 C106.124501,17.6197798 105.906792,17.780197 105.666166,17.8947807 L107.178671,21 L105.414082,21 Z M102.320321,14.2166428 L102.320321,16.737485 L104.291161,16.737485 C104.600537,16.737485 104.978663,16.5999845 105.219289,16.3020668 C105.402623,16.0843577 105.482832,15.7520649 105.482832,15.4770639 C105.482832,15.1791462 105.414082,14.8124782 105.207831,14.560394 C105.00158,14.3197682 104.715121,14.2166428 104.291161,14.2166428 L102.320321,14.2166428 Z M29.5255458,30.4770639 C29.5370042,31.2562333 29.2390865,31.9666525 28.7807515,32.4249874 C28.2536663,32.963531 27.5547056,33.1926985 26.7067859,33.1926985 L24.7817791,33.1926985 L24.7817791,36 L23.2234403,36 L23.2234403,27.749971 L26.7067859,27.749971 C27.6807477,27.749971 28.2192912,27.9905968 28.6890845,28.4489318 C29.28492,29.0218505 29.5140874,29.6176859 29.5255458,30.4770639 Z M27.6807477,31.3020668 C27.8640816,31.0843577 27.9442903,30.7520649 27.9442903,30.4770639 C27.9442903,30.1791462 27.87554,29.8124782 27.6692893,29.560394 C27.4630386,29.3197682 27.1765792,29.2166428 26.7526194,29.2166428 L24.7817791,29.2166428 L24.7817791,31.737485 L26.7526194,31.737485 C27.0619955,31.737485 27.4401218,31.5999845 27.6807477,31.3020668 Z M36.0567926,29.2051844 L32.2296958,29.2051844 L32.2296958,30.969774 L35.3692902,30.969774 L35.3692902,32.4249874 L32.2296958,32.4249874 L32.2296958,34.5447865 L36.0567926,34.5447865 L36.0567926,36 L30.671357,36 L30.671357,27.749971 L36.0567926,27.749971 L36.0567926,29.2051844 Z M42.31304,36 L40.9494936,33.1926985 L39.2192791,33.1926985 L39.2192791,36 L37.6609403,36 L37.6609403,27.749971 L41.1442859,27.749971 C42.1182477,27.749971 42.6567912,27.9905968 43.1265845,28.4489318 C43.72242,29.0218505 43.9515874,29.6176859 43.9630458,30.4770639 C43.9745042,31.2562333 43.6765865,31.9666525 43.2182515,32.4249874 C43.0234592,32.6197798 42.8057501,32.780197 42.5651242,32.8947807 L44.0776296,36 L42.31304,36 Z M39.2192791,29.2166428 L39.2192791,31.737485 L41.1901194,31.737485 C41.4994955,31.737485 41.8776218,31.5999845 42.1182477,31.3020668 C42.3015816,31.0843577 42.3817903,30.7520649 42.3817903,30.4770639 C42.3817903,30.1791462 42.31304,29.8124782 42.1067893,29.560394 C41.9005386,29.3197682 41.6140792,29.2166428 41.1901194,29.2166428 L39.2192791,29.2166428 Z M51.4682544,29.8468534 L49.8869988,30.2708132 C49.6807481,29.8583117 49.5088725,29.5718524 49.1192878,29.3426849 C48.8557452,29.1822677 48.5234523,29.0447672 48.145326,29.0447672 C47.7557413,29.0333088 47.3890733,29.1249758 47.1484475,29.2739347 C46.8619882,29.4458103 46.7244877,29.7093529 46.7244877,29.9614371 C46.7244877,30.110396 46.7817795,30.2478964 46.8849049,30.3510218 C47.0338638,30.511439 47.4119901,30.6603979 47.8244915,30.78644 L49.2567882,31.1989414 C49.9901242,31.4166505 50.414084,31.6343596 50.7807519,31.9781109 C51.273462,32.4479042 51.548463,33.055198 51.548463,33.731242 C51.548463,34.4531196 51.1359615,35.2093722 50.4828342,35.6447904 C49.8526237,36.0687502 49.096371,36.1718756 48.2255346,36.1718756 C47.1255307,36.1718756 46.1859441,35.8854163 45.5099001,35.0604134 C45.108857,34.5677033 44.8911479,33.9947846 44.7651058,33.4562411 L46.3463613,33.0322812 C46.4151116,33.4333243 46.5526121,33.7999923 46.7588628,34.0520765 C47.0911556,34.5104114 47.7328245,34.7166622 48.2828265,34.7166622 C48.7182447,34.7166622 49.2682466,34.59062 49.5661643,34.3614526 C49.8297069,34.1666602 49.8984572,33.914576 49.8984572,33.6854085 C49.8984572,33.4676994 49.8182485,33.2614487 49.6463729,33.1124898 C49.463039,32.9520726 49.2338715,32.8374889 48.913037,32.7458219 L47.377615,32.2989453 C46.7588628,32.1270697 46.1974025,31.8864439 45.7963594,31.5312343 C45.3036493,31.1187328 45.0859402,30.4999807 45.0859402,29.927062 C45.0859402,29.0218505 45.6703173,28.2426811 46.42657,27.8989298 C47.0224054,27.6239289 47.6182408,27.5780954 48.1682427,27.5780954 C48.7297031,27.5895538 49.3484552,27.6812207 49.8984572,27.9791385 C50.597418,28.3572648 51.1474199,29.0103921 51.4682544,29.8468534 Z M56.4640782,36.1718756 C55.2838657,36.1718756 54.1380283,35.7135407 53.4276092,34.8197875 C52.7630235,34.0177014 52.4651058,32.9749894 52.4651058,31.8749855 C52.4651058,30.7749816 52.7630235,29.7208113 53.4276092,28.9187251 C54.1494867,28.0135136 55.2724073,27.5780954 56.4640782,27.5780954 C57.655749,27.5780954 58.7672113,28.024972 59.5005472,28.9187251 C60.199508,29.7666447 60.4401338,30.7749816 60.4630506,31.8749855 C60.4401338,33.0208229 60.1765912,33.9947846 59.5005472,34.8197875 C58.7442945,35.7364574 57.6099155,36.1718756 56.4640782,36.1718756 Z M56.4640782,34.7052038 C57.1744973,34.7166622 57.8505414,34.4302028 58.2630428,33.8802009 C58.6755443,33.3301989 58.8130448,32.596863 58.8130448,31.8749855 C58.8130448,31.153108 58.6755443,30.4083137 58.2630428,29.8697701 C57.8505414,29.3197682 57.1744973,29.0562256 56.4640782,29.0447672 C55.753659,29.0333088 55.0661566,29.3197682 54.6651135,29.8697701 C54.2411537,30.4083137 54.0921948,31.153108 54.1036532,31.8749855 C54.1151116,32.596863 54.2411537,33.3301989 54.6651135,33.8802009 C55.0661566,34.4302028 55.753659,34.6937454 56.4640782,34.7052038 Z M63.3046959,27.749971 L66.8911668,33.2499903 L66.8911668,27.749971 L68.4724224,27.749971 L68.4724224,36 L66.8911668,36 L63.3046959,30.4999807 L63.3046959,36 L61.7234403,36 L61.7234403,27.749971 L63.3046959,27.749971 Z M75.2672086,36 L74.7401234,34.281244 L71.6349041,34.281244 L71.1078189,36 L69.5036466,36 L72.0244888,27.749971 L74.3505387,27.749971 L76.8713809,36 L75.2672086,36 Z M72.0703223,32.8260305 L74.2817884,32.8260305 L73.1703262,29.2166428 L72.0703223,32.8260305 Z M79.5755295,27.749971 L79.5755295,34.5447865 L83.1276254,34.5447865 L83.1276254,36 L78.0171907,36 L78.0171907,27.749971 L79.5755295,27.749971 Z M91.0109586,36 L90.4838734,34.281244 L87.3786541,34.281244 L86.8515689,36 L85.2473966,36 L87.7682388,27.749971 L90.0942887,27.749971 L92.6151309,36 L91.0109586,36 Z M87.8140723,32.8260305 L90.0255384,32.8260305 L88.9140762,29.2166428 L87.8140723,32.8260305 Z M100.406797,31.8749855 C100.406797,32.9864477 100.063046,34.1208267 99.3411687,34.8770794 C98.6422079,35.6447904 97.6224126,36 96.5453255,36 L93.646357,36 L93.646357,27.749971 L96.5567839,27.749971 C97.6911629,27.749971 98.6422079,28.1280973 99.3067936,28.8614332 C100.051588,29.6406026 100.406797,30.7406065 100.406797,31.8749855 Z M98.7567916,31.8749855 C98.7567916,31.1187328 98.5963744,30.4083137 98.1494978,29.8812285 C97.7026213,29.3885184 97.1984528,29.2510179 96.5567839,29.2166428 L95.2276125,29.2281012 L95.2276125,34.5333282 L96.5453255,34.5447865 C97.1640777,34.5218698 97.725538,34.3385358 98.1265811,33.9031176 C98.5963744,33.3531157 98.7567916,32.6770716 98.7567916,31.8749855 Z M110.031803,27.749971 L110.031803,36 L108.576589,36 L108.576589,31.0728993 L106.181789,36 L105.631787,36 L103.236987,31.0843577 L103.236987,36 L101.781774,36 L101.781774,27.749971 L103.179695,27.749971 L105.906788,33.2270736 L108.633881,27.749971 L110.031803,27.749971 Z M111.750524,27.749971 L113.308863,27.749971 L113.308863,36 L111.750524,36 L111.750524,27.749971 Z M116.608863,27.749971 L120.195333,33.2499903 L120.195333,27.749971 L121.776589,27.749971 L121.776589,36 L120.195333,36 L116.608863,30.4999807 L116.608863,36 L115.027607,36 L115.027607,27.749971 L116.608863,27.749971 Z" id="DAILYPAPERPERSONALADMIN" fill="#0094FF" fill-rule="nonzero"></path>
                    <rect id="Rectangle-Copy-14" stroke="#0094FF" stroke-width="2" x="39" y="57" width="66" height="8"></rect>
                    <rect id="Rectangle-Copy-16" stroke="#0094FF" stroke-width="2" x="39" y="81" width="66" height="37"></rect>
                    <path d="M39,51 L73.5,51" id="Line-51-Copy-4" stroke="#0094FF" stroke-width="2" stroke-linecap="square"></path>
                    <path d="M39,76 L73.5,76" id="Line-51-Copy-5" stroke="#0094FF" stroke-width="2" stroke-linecap="square"></path>
                </g>
                <g id="Group-14" transform="translate(95.000000, 366.000000)">
                    <g id="Group" stroke="#FF00B8" stroke-width="3">
                        <rect id="Rectangle" stroke-linecap="square" x="0" y="0" width="59" height="110" rx="5"></rect>
                        <path d="M20.5,105.5 L38.5,105.5" id="Line-46" stroke-linecap="round"></path>
                        <path d="M38.5,5.5 L40.5,5.5" id="Line-47" stroke-linecap="round"></path>
                    </g>
                    <path d="M9.61251934,15.9999894 C9.61251934,16.8083256 9.36251846,17.6333285 8.83751662,18.1833305 C8.3291815,18.7416658 7.58751222,19 6.80417613,19 L4.69583538,19 L4.69583538,12.9999789 L6.8125095,12.9999789 C7.6375124,12.9999789 8.3291815,13.2749799 8.81251653,13.8083151 C9.3541851,14.3749837 9.61251934,15.1749865 9.61251934,15.9999894 Z M8.41251512,15.9999894 C8.41251512,15.4499875 8.29584804,14.933319 7.9708469,14.5499844 C7.64584576,14.1916498 7.2791778,14.0916494 6.8125095,14.0666493 L5.84583943,14.0749827 L5.84583943,17.9333296 L6.80417613,17.9416629 C7.25417771,17.9249962 7.66251248,17.7916624 7.95418018,17.4749946 C8.29584804,17.0749932 8.41251512,16.5833248 8.41251512,15.9999894 Z M14.2208487,19 L13.837514,17.7499956 L11.5791727,17.7499956 L11.195838,19 L10.0291673,19 L11.862507,12.9999789 L13.5541796,12.9999789 L15.3875194,19 L14.2208487,19 Z M11.8958405,16.6916585 L13.5041795,16.6916585 L12.6958433,14.0666493 L11.8958405,16.6916585 Z M16.2208357,12.9999789 L17.354173,12.9999789 L17.354173,19 L16.2208357,19 L16.2208357,12.9999789 Z M19.8208397,12.9999789 L19.8208397,17.9416629 L22.4041821,17.9416629 L22.4041821,19 L18.6875023,19 L18.6875023,12.9999789 L19.8208397,12.9999789 Z M25.6208471,12.9999789 L26.9458518,12.9999789 L24.8958446,16.5583247 L24.8958446,19 L23.7458405,19 L23.7458405,16.5583247 L21.6958333,12.9999789 L23.020838,12.9999789 L24.3208426,15.2583202 L25.6208471,12.9999789 Z M33.4458515,14.9833192 C33.4541849,15.5499879 33.2375174,16.0666564 32.9041829,16.3999909 C32.5208482,16.7916589 32.0125131,16.9583262 31.3958443,16.9583262 L29.9958394,16.9583262 L29.9958394,19 L28.8625021,19 L28.8625021,12.9999789 L31.3958443,12.9999789 C32.1041801,12.9999789 32.4958482,13.1749795 32.837516,13.508314 C33.2708509,13.9249822 33.4375181,14.358317 33.4458515,14.9833192 Z M32.1041801,15.5833213 C32.2375139,15.4249874 32.2958475,15.1833199 32.2958475,14.9833192 C32.2958475,14.7666518 32.2458473,14.4999842 32.0958468,14.3166502 C31.9458462,14.1416496 31.7375122,14.0666493 31.4291777,14.0666493 L29.9958394,14.0666493 L29.9958394,15.8999891 L31.4291777,15.8999891 C31.6541785,15.8999891 31.9291795,15.7999887 32.1041801,15.5833213 Z M37.6375153,19 L37.2541806,17.7499956 L34.9958394,17.7499956 L34.6125047,19 L33.4458339,19 L35.2791737,12.9999789 L36.9708463,12.9999789 L38.8041861,19 L37.6375153,19 Z M35.3125072,16.6916585 L36.9208461,16.6916585 L36.11251,14.0666493 L35.3125072,16.6916585 Z M44.1375182,14.9833192 C44.1458515,15.5499879 43.9291841,16.0666564 43.5958496,16.3999909 C43.2125149,16.7916589 42.7041798,16.9583262 42.087511,16.9583262 L40.687506,16.9583262 L40.687506,19 L39.5541687,19 L39.5541687,12.9999789 L42.087511,12.9999789 C42.7958468,12.9999789 43.1875148,13.1749795 43.5291827,13.508314 C43.9625176,13.9249822 44.1291848,14.358317 44.1375182,14.9833192 Z M42.7958468,15.5833213 C42.9291806,15.4249874 42.9875141,15.1833199 42.9875141,14.9833192 C42.9875141,14.7666518 42.9375139,14.4999842 42.7875134,14.3166502 C42.6375129,14.1416496 42.4291788,14.0666493 42.1208444,14.0666493 L40.687506,14.0666493 L40.687506,15.8999891 L42.1208444,15.8999891 C42.3458452,15.8999891 42.6208462,15.7999887 42.7958468,15.5833213 Z M48.8875158,14.058316 L46.1041727,14.058316 L46.1041727,15.3416538 L48.3875141,15.3416538 L48.3875141,16.3999909 L46.1041727,16.3999909 L46.1041727,17.9416629 L48.8875158,17.9416629 L48.8875158,19 L44.9708354,19 L44.9708354,12.9999789 L48.8875158,12.9999789 L48.8875158,14.058316 Z M53.4375139,19 L52.4458438,16.9583262 L51.187506,16.9583262 L51.187506,19 L50.0541687,19 L50.0541687,12.9999789 L52.587511,12.9999789 C53.2958468,12.9999789 53.6875148,13.1749795 54.0291827,13.508314 C54.4625176,13.9249822 54.6291848,14.358317 54.6375182,14.9833192 C54.6458515,15.5499879 54.4291841,16.0666564 54.0958496,16.3999909 C53.9541824,16.541658 53.7958485,16.6583251 53.6208479,16.7416587 L54.7208518,19 L53.4375139,19 Z M51.187506,14.0666493 L51.187506,15.8999891 L52.6208444,15.8999891 C52.8458452,15.8999891 53.1208462,15.7999887 53.2958468,15.5833213 C53.4291806,15.4249874 53.4875141,15.1833199 53.4875141,14.9833192 C53.4875141,14.7666518 53.4375139,14.4999842 53.2875134,14.3166502 C53.1375129,14.1416496 52.9291788,14.0666493 52.6208444,14.0666493 L51.187506,14.0666493 Z" id="DAILYPAPER" fill="#FF00B8" fill-rule="nonzero"></path>
                    <g id="Group-12-Copy-2" transform="translate(9.000000, 65.000000)" stroke="#FF00B8" stroke-linecap="round" stroke-linejoin="round" stroke-width="2">
                        <path d="M0.28,1 L41.9914329,1" id="Line-48"></path>
                        <path d="M0.28,13 L41.9914329,13" id="Line-48-Copy-2"></path>
                        <path d="M0.28,25 L41.9914329,25" id="Line-48-Copy-4"></path>
                        <path d="M0.28,7 L41.9914329,7" id="Line-48-Copy"></path>
                        <path d="M0.28,18.5 L41.9914329,18.5" id="Line-48-Copy-3"></path>
                    </g>
                    <g id="Group-11-Copy-2" transform="translate(7.000000, 25.000000)" stroke="#FF00B8" stroke-width="2">
                        <rect id="Rectangle" x="1" y="1" width="44" height="32" rx="2"></rect>
                        <polyline id="Line-49" stroke-linecap="round" stroke-linejoin="round" points="2 26 16.7207657 14 30.7720588 20 38.7017663 18.125 45 26"></polyline>
                    </g>
                </g>
                <g id="Group-15" transform="translate(211.000000, 411.000000)">
                    <g id="Group-8" stroke="#7ED321" stroke-width="3">
                        <rect id="Rectangle-Copy-3" stroke-linecap="square" x="0" y="0" width="76" height="119" rx="5"></rect>
                        <rect id="Rectangle-Copy-6" stroke-linecap="square" x="5.42857143" y="12" width="65.1428571" height="95"></rect>
                        <path d="M25.5,7 L43.5,7" id="Line-46-Copy" stroke-linecap="round"></path>
                        <path d="M48.5,7 L50.5,7" id="Line-47-Copy" stroke-linecap="round"></path>
                        <path d="M37,113.5 L39,113.5" id="Line-47-Copy-2" stroke-linecap="round"></path>
                    </g>
                    <path d="M18.6125193,22.9999894 C18.6125193,23.8083256 18.3625185,24.6333285 17.8375166,25.1833305 C17.3291815,25.7416658 16.5875122,26 15.8041761,26 L13.6958354,26 L13.6958354,19.9999789 L15.8125095,19.9999789 C16.6375124,19.9999789 17.3291815,20.2749799 17.8125165,20.8083151 C18.3541851,21.3749837 18.6125193,22.1749865 18.6125193,22.9999894 Z M17.4125151,22.9999894 C17.4125151,22.4499875 17.295848,21.933319 16.9708469,21.5499844 C16.6458458,21.1916498 16.2791778,21.0916494 15.8125095,21.0666493 L14.8458394,21.0749827 L14.8458394,24.9333296 L15.8041761,24.9416629 C16.2541777,24.9249962 16.6625125,24.7916624 16.9541802,24.4749946 C17.295848,24.0749932 17.4125151,23.5833248 17.4125151,22.9999894 Z M23.2208487,26 L22.837514,24.7499956 L20.5791727,24.7499956 L20.195838,26 L19.0291673,26 L20.862507,19.9999789 L22.5541796,19.9999789 L24.3875194,26 L23.2208487,26 Z M20.8958405,23.6916585 L22.5041795,23.6916585 L21.6958433,21.0666493 L20.8958405,23.6916585 Z M25.2208357,19.9999789 L26.354173,19.9999789 L26.354173,26 L25.2208357,26 L25.2208357,19.9999789 Z M28.8208397,19.9999789 L28.8208397,24.9416629 L31.4041821,24.9416629 L31.4041821,26 L27.6875023,26 L27.6875023,19.9999789 L28.8208397,19.9999789 Z M34.6208471,19.9999789 L35.9458518,19.9999789 L33.8958446,23.5583247 L33.8958446,26 L32.7458405,26 L32.7458405,23.5583247 L30.6958333,19.9999789 L32.020838,19.9999789 L33.3208426,22.2583202 L34.6208471,19.9999789 Z M42.4458515,21.9833192 C42.4541849,22.5499879 42.2375174,23.0666564 41.9041829,23.3999909 C41.5208482,23.7916589 41.0125131,23.9583262 40.3958443,23.9583262 L38.9958394,23.9583262 L38.9958394,26 L37.8625021,26 L37.8625021,19.9999789 L40.3958443,19.9999789 C41.1041801,19.9999789 41.4958482,20.1749795 41.837516,20.508314 C42.2708509,20.9249822 42.4375181,21.358317 42.4458515,21.9833192 Z M41.1041801,22.5833213 C41.2375139,22.4249874 41.2958475,22.1833199 41.2958475,21.9833192 C41.2958475,21.7666518 41.2458473,21.4999842 41.0958468,21.3166502 C40.9458462,21.1416496 40.7375122,21.0666493 40.4291777,21.0666493 L38.9958394,21.0666493 L38.9958394,22.8999891 L40.4291777,22.8999891 C40.6541785,22.8999891 40.9291795,22.7999887 41.1041801,22.5833213 Z M46.6375153,26 L46.2541806,24.7499956 L43.9958394,24.7499956 L43.6125047,26 L42.4458339,26 L44.2791737,19.9999789 L45.9708463,19.9999789 L47.8041861,26 L46.6375153,26 Z M44.3125072,23.6916585 L45.9208461,23.6916585 L45.11251,21.0666493 L44.3125072,23.6916585 Z M53.1375182,21.9833192 C53.1458515,22.5499879 52.9291841,23.0666564 52.5958496,23.3999909 C52.2125149,23.7916589 51.7041798,23.9583262 51.087511,23.9583262 L49.687506,23.9583262 L49.687506,26 L48.5541687,26 L48.5541687,19.9999789 L51.087511,19.9999789 C51.7958468,19.9999789 52.1875148,20.1749795 52.5291827,20.508314 C52.9625176,20.9249822 53.1291848,21.358317 53.1375182,21.9833192 Z M51.7958468,22.5833213 C51.9291806,22.4249874 51.9875141,22.1833199 51.9875141,21.9833192 C51.9875141,21.7666518 51.9375139,21.4999842 51.7875134,21.3166502 C51.6375129,21.1416496 51.4291788,21.0666493 51.1208444,21.0666493 L49.687506,21.0666493 L49.687506,22.8999891 L51.1208444,22.8999891 C51.3458452,22.8999891 51.6208462,22.7999887 51.7958468,22.5833213 Z M57.8875158,21.058316 L55.1041727,21.058316 L55.1041727,22.3416538 L57.3875141,22.3416538 L57.3875141,23.3999909 L55.1041727,23.3999909 L55.1041727,24.9416629 L57.8875158,24.9416629 L57.8875158,26 L53.9708354,26 L53.9708354,19.9999789 L57.8875158,19.9999789 L57.8875158,21.058316 Z M62.4375139,26 L61.4458438,23.9583262 L60.187506,23.9583262 L60.187506,26 L59.0541687,26 L59.0541687,19.9999789 L61.587511,19.9999789 C62.2958468,19.9999789 62.6875148,20.1749795 63.0291827,20.508314 C63.4625176,20.9249822 63.6291848,21.358317 63.6375182,21.9833192 C63.6458515,22.5499879 63.4291841,23.0666564 63.0958496,23.3999909 C62.9541824,23.541658 62.7958485,23.6583251 62.6208479,23.7416587 L63.7208518,26 L62.4375139,26 Z M60.187506,21.0666493 L60.187506,22.8999891 L61.6208444,22.8999891 C61.8458452,22.8999891 62.1208462,22.7999887 62.2958468,22.5833213 C62.4291806,22.4249874 62.4875141,22.1833199 62.4875141,21.9833192 C62.4875141,21.7666518 62.4375139,21.4999842 62.2875134,21.3166502 C62.1375129,21.1416496 61.9291788,21.0666493 61.6208444,21.0666493 L60.187506,21.0666493 Z" id="DAILYPAPER" fill="#7ED321" fill-rule="nonzero"></path>
                    <g id="Group-12-Copy-4" transform="translate(18.000000, 72.000000)" stroke="#7ED321" stroke-linecap="round" stroke-linejoin="round" stroke-width="2">
                        <path d="M0.28,1 L41.9914329,1" id="Line-48"></path>
                        <path d="M0.28,13 L41.9914329,13" id="Line-48-Copy-2"></path>
                        <path d="M0.28,25 L41.9914329,25" id="Line-48-Copy-4"></path>
                        <path d="M0.28,7 L41.9914329,7" id="Line-48-Copy"></path>
                        <path d="M0.28,18.5 L41.9914329,18.5" id="Line-48-Copy-3"></path>
                    </g>
                    <g id="Group-11-Copy-3" transform="translate(16.000000, 32.000000)" stroke="#7ED321" stroke-width="2">
                        <rect id="Rectangle" x="1" y="1" width="44" height="32" rx="2"></rect>
                        <polyline id="Line-49" stroke-linecap="round" stroke-linejoin="round" points="2 26 16.7207657 14 30.7720588 20 38.7017663 18.125 45 26"></polyline>
                    </g>
                </g>
                <g id="Group-16" transform="translate(103.477477, 0.984520)">
                    <g id="Group-10" stroke="#9013FE" stroke-linecap="square" stroke-width="3">
                        <rect id="Rectangle-Copy-2" transform="translate(104.522523, 66.538003) rotate(-90.000000) translate(-104.522523, -66.538003) " x="38" y="-37.4619972" width="133.045045" height="208" rx="5"></rect>
                        <rect id="Rectangle-Copy-7" transform="translate(104.522523, 57.492958) rotate(-90.000000) translate(-104.522523, -57.492958) " x="53.5225225" y="-41" width="102" height="196.985915"></rect>
                        <polygon id="Rectangle" stroke-linejoin="round" points="90 133.538003 120 133.538003 130 169.538003 80 169.538003"></polygon>
                    </g>
                    <path d="M69.7194314,20.7654618 C69.7194314,22.1800501 69.2819298,23.6238052 68.3631766,24.5863086 C67.4735901,25.5633953 66.1756689,26.0154803 64.8048308,26.0154803 L61.1152344,26.0154803 L61.1152344,15.5154433 L64.8194141,15.5154433 C66.2631692,15.5154433 67.4735901,15.996695 68.3194264,16.9300317 C69.2673464,17.9217018 69.7194314,19.3217067 69.7194314,20.7654618 Z M67.619424,20.7654618 C67.619424,19.8029584 67.4152566,18.8987886 66.8465046,18.2279529 C66.2777526,17.6008673 65.6360837,17.4258667 64.8194141,17.3821166 L63.1277415,17.3967 L63.1277415,24.148807 L64.8048308,24.1633904 C65.5923335,24.1342237 66.3069194,23.9008895 66.8173378,23.3467209 C67.4152566,22.6467184 67.619424,21.7862987 67.619424,20.7654618 Z M77.7840077,26.0154803 L77.113172,23.8279726 L73.1610748,23.8279726 L72.4902391,26.0154803 L70.4485652,26.0154803 L73.6569098,15.5154433 L76.6173369,15.5154433 L79.8256815,26.0154803 L77.7840077,26.0154803 Z M73.7152434,21.9758827 L76.5298366,21.9758827 L75.1152483,17.3821166 L73.7152434,21.9758827 Z M81.283985,15.5154433 L83.2673253,15.5154433 L83.2673253,26.0154803 L81.283985,26.0154803 L81.283985,15.5154433 Z M87.5839919,15.5154433 L87.5839919,24.1633904 L92.1048412,24.1633904 L92.1048412,26.0154803 L85.6006516,26.0154803 L85.6006516,15.5154433 L87.5839919,15.5154433 Z M97.734005,15.5154433 L100.052763,15.5154433 L96.4652505,21.7425486 L96.4652505,26.0154803 L94.4527435,26.0154803 L94.4527435,21.7425486 L90.8652309,15.5154433 L93.183989,15.5154433 L95.458997,19.4675406 L97.734005,15.5154433 Z M111.427763,18.9862889 C111.442346,19.977959 111.063178,20.8821289 110.479843,21.4654643 C109.809007,22.1508833 108.91942,22.442551 107.84025,22.442551 L105.390241,22.442551 L105.390241,26.0154803 L103.406901,26.0154803 L103.406901,15.5154433 L107.84025,15.5154433 C109.079838,15.5154433 109.765257,15.8216944 110.363176,16.4050298 C111.121512,17.134199 111.413179,17.892535 111.427763,18.9862889 Z M109.079838,20.0362926 C109.313172,19.7592083 109.415256,19.3362901 109.415256,18.9862889 C109.415256,18.6071209 109.327755,18.1404526 109.065254,17.8196181 C108.802753,17.513367 108.438169,17.3821166 107.898584,17.3821166 L105.390241,17.3821166 L105.390241,20.5904612 L107.898584,20.5904612 C108.292335,20.5904612 108.773587,20.4154606 109.079838,20.0362926 Z M118.763174,26.0154803 L118.092339,23.8279726 L114.140241,23.8279726 L113.469406,26.0154803 L111.427732,26.0154803 L114.636076,15.5154433 L117.596504,15.5154433 L120.804848,26.0154803 L118.763174,26.0154803 Z M114.69441,21.9758827 L117.509003,21.9758827 L116.094415,17.3821166 L114.69441,21.9758827 Z M130.138179,18.9862889 C130.152763,19.977959 129.773595,20.8821289 129.190259,21.4654643 C128.519424,22.1508833 127.629837,22.442551 126.550667,22.442551 L124.100658,22.442551 L124.100658,26.0154803 L122.117318,26.0154803 L122.117318,15.5154433 L126.550667,15.5154433 C127.790254,15.5154433 128.475673,15.8216944 129.073592,16.4050298 C129.831928,17.134199 130.123596,17.892535 130.138179,18.9862889 Z M127.790254,20.0362926 C128.023589,19.7592083 128.125672,19.3362901 128.125672,18.9862889 C128.125672,18.6071209 128.038172,18.1404526 127.775671,17.8196181 C127.51317,17.513367 127.148585,17.3821166 126.609,17.3821166 L124.100658,17.3821166 L124.100658,20.5904612 L126.609,20.5904612 C127.002752,20.5904612 127.484003,20.4154606 127.790254,20.0362926 Z M138.450675,17.3675332 L133.579825,17.3675332 L133.579825,19.6133744 L137.575672,19.6133744 L137.575672,21.4654643 L133.579825,21.4654643 L133.579825,24.1633904 L138.450675,24.1633904 L138.450675,26.0154803 L131.596484,26.0154803 L131.596484,15.5154433 L138.450675,15.5154433 L138.450675,17.3675332 Z M146.413172,26.0154803 L144.677749,22.442551 L142.475658,22.442551 L142.475658,26.0154803 L140.492318,26.0154803 L140.492318,15.5154433 L144.925667,15.5154433 C146.165254,15.5154433 146.850673,15.8216944 147.448592,16.4050298 C148.206928,17.134199 148.498596,17.892535 148.513179,18.9862889 C148.527763,19.977959 148.148595,20.8821289 147.565259,21.4654643 C147.317342,21.7133818 147.040257,21.9175492 146.734006,22.063383 L148.659013,26.0154803 L146.413172,26.0154803 Z M142.475658,17.3821166 L142.475658,20.5904612 L144.984,20.5904612 C145.377752,20.5904612 145.859003,20.4154606 146.165254,20.0362926 C146.398589,19.7592083 146.500672,19.3362901 146.500672,18.9862889 C146.500672,18.6071209 146.413172,18.1404526 146.150671,17.8196181 C145.88817,17.513367 145.523585,17.3821166 144.984,17.3821166 L142.475658,17.3821166 Z" id="DAILYPAPER" fill="#9013FE" fill-rule="nonzero"></path>
                    <g id="Group-12" transform="translate(108.522523, 36.015480)" stroke="#9013FE" stroke-width="2">
                        <path d="M0.5,0.5 L74.9847017,0.5" id="Line-48" stroke-linecap="round" stroke-linejoin="round"></path>
                        <path d="M0.213333333,34.5 L31.9934727,34.5" id="Line-48-Copy-6" stroke-linecap="round" stroke-linejoin="round"></path>
                        <path d="M0.5,11.5 L74.9847017,11.5" id="Line-48-Copy-2" stroke-linecap="round" stroke-linejoin="round"></path>
                        <path d="M0.213333333,45.5 L31.9934727,45.5" id="Line-48-Copy-7" stroke-linecap="round" stroke-linejoin="round"></path>
                        <path d="M0.5,22.5 L74.9847017,22.5" id="Line-48-Copy-4" stroke-linecap="round" stroke-linejoin="round"></path>
                        <path d="M0.213333333,56.5 L31.9934727,56.5" id="Line-48-Copy-8" stroke-linecap="round" stroke-linejoin="round"></path>
                        <path d="M0.5,6 L74.9847017,6" id="Line-48-Copy" stroke-linecap="round" stroke-linejoin="round"></path>
                        <path d="M0.213333333,40 L31.9934727,40" id="Line-48-Copy-9" stroke-linecap="round" stroke-linejoin="round"></path>
                        <path d="M0.5,17 L74.9847017,17" id="Line-48-Copy-3" stroke-linecap="round" stroke-linejoin="round"></path>
                        <path d="M0.213333333,51 L31.9934727,51" id="Line-48-Copy-10" stroke-linecap="round" stroke-linejoin="round"></path>
                        <path d="M0.5,28 L74.9847017,28" id="Line-48-Copy-5" stroke-linecap="round" stroke-linejoin="round"></path>
                        <path d="M0.213333333,62 L31.9934727,62" id="Line-48-Copy-11" stroke-linecap="round" stroke-linejoin="round"></path>
                        <rect id="Rectangle-Copy-8" x="39" y="34" width="35" height="27" rx="2"></rect>
                    </g>
                    <g id="Group-11" transform="translate(31.522523, 35.015480)" stroke="#9013FE" stroke-width="2">
                        <rect id="Rectangle" x="1" y="1" width="67" height="42" rx="2"></rect>
                        <polyline id="Line-49" stroke-linecap="round" stroke-linejoin="round" points="2 34 24.2523202 18 45.4926471 26 57.4794142 23.5 67 34"></polyline>
                    </g>
                </g>
                <g id="Group-13" transform="translate(0.000000, 192.000000)">
                    <g id="Group-9" stroke="#FF0000" stroke-linecap="square" stroke-width="3">
                        <rect id="Rectangle-Copy-4" transform="translate(70.021739, 55.000000) rotate(-90.000000) translate(-70.021739, -55.000000) " x="16" y="-15" width="108.043478" height="140" rx="5"></rect>
                        <circle id="Oval" cx="133" cy="55" r="3"></circle>
                        <rect id="Rectangle-Copy-5" transform="translate(66.000000, 55.000000) rotate(-90.000000) translate(-66.000000, -55.000000) " x="18" y="-5" width="96" height="120"></rect>
                    </g>
                    <path d="M35.668779,20.4999842 C35.668779,21.7124884 35.2937777,22.9499928 34.5062749,23.7749957 C33.7437722,24.6124986 32.6312683,25 31.4562642,25 L28.2937531,25 L28.2937531,15.9999683 L31.4687642,15.9999683 C32.7062686,15.9999683 33.7437722,16.4124698 34.4687748,17.2124726 C35.2812776,18.0624756 35.668779,19.2624798 35.668779,20.4999842 Z M33.8687727,20.4999842 C33.8687727,19.6749813 33.6937721,18.8999785 33.2062704,18.3249765 C32.7187686,17.7874746 32.1687667,17.6374741 31.4687642,17.599974 L30.0187591,17.612474 L30.0187591,23.3999944 L31.4562642,23.4124944 C32.1312666,23.3874943 32.7437687,23.1874936 33.1812703,22.712492 C33.6937721,22.1124898 33.8687727,21.3749873 33.8687727,20.4999842 Z M42.581273,25 L42.006271,23.1249934 L38.6187591,23.1249934 L38.043757,25 L36.2937509,25 L39.0437606,15.9999683 L41.5812695,15.9999683 L44.3312791,25 L42.581273,25 Z M39.0937607,21.5374878 L41.5062692,21.5374878 L40.2937649,17.599974 L39.0937607,21.5374878 Z M45.5812535,15.9999683 L47.2812595,15.9999683 L47.2812595,25 L45.5812535,25 L45.5812535,15.9999683 Z M50.9812595,15.9999683 L50.9812595,23.4124944 L54.8562731,23.4124944 L54.8562731,25 L49.2812535,25 L49.2812535,15.9999683 L50.9812595,15.9999683 Z M59.6812707,15.9999683 L61.6687777,15.9999683 L58.5937669,21.3374871 L58.5937669,25 L56.8687608,25 L56.8687608,21.3374871 L53.79375,15.9999683 L55.781257,15.9999683 L57.7312638,19.3874803 L59.6812707,15.9999683 Z M71.4187773,18.9749788 C71.4312773,19.8249818 71.1062762,20.5999845 70.6062744,21.0999863 C70.0312724,21.6874884 69.2687697,21.9374892 68.3437664,21.9374892 L66.2437591,21.9374892 L66.2437591,25 L64.5437531,25 L64.5437531,15.9999683 L68.3437664,15.9999683 C69.4062702,15.9999683 69.9937722,16.2624693 70.506274,16.762471 C71.1562763,17.3874732 71.4062772,18.0374755 71.4187773,18.9749788 Z M69.4062702,19.874982 C69.6062709,19.6374811 69.6937712,19.2749799 69.6937712,18.9749788 C69.6937712,18.6499777 69.6187709,18.2499763 69.3937701,17.9749753 C69.1687693,17.7124744 68.8562682,17.599974 68.3937666,17.599974 L66.2437591,17.599974 L66.2437591,20.3499836 L68.3937666,20.3499836 C68.7312678,20.3499836 69.1437693,20.1999831 69.4062702,19.874982 Z M77.706273,25 L77.131271,23.1249934 L73.7437591,23.1249934 L73.168757,25 L71.4187509,25 L74.1687606,15.9999683 L76.7062695,15.9999683 L79.4562791,25 L77.706273,25 Z M74.2187607,21.5374878 L76.6312692,21.5374878 L75.4187649,17.599974 L74.2187607,21.5374878 Z M87.4562773,18.9749788 C87.4687773,19.8249818 87.1437762,20.5999845 86.6437744,21.0999863 C86.0687724,21.6874884 85.3062697,21.9374892 84.3812664,21.9374892 L82.2812591,21.9374892 L82.2812591,25 L80.5812531,25 L80.5812531,15.9999683 L84.3812664,15.9999683 C85.4437702,15.9999683 86.0312722,16.2624693 86.543774,16.762471 C87.1937763,17.3874732 87.4437772,18.0374755 87.4562773,18.9749788 Z M85.4437702,19.874982 C85.6437709,19.6374811 85.7312712,19.2749799 85.7312712,18.9749788 C85.7312712,18.6499777 85.6562709,18.2499763 85.4312701,17.9749753 C85.2062693,17.7124744 84.8937682,17.599974 84.4312666,17.599974 L82.2812591,17.599974 L82.2812591,20.3499836 L84.4312666,20.3499836 C84.7687678,20.3499836 85.1812693,20.1999831 85.4437702,19.874982 Z M94.5812737,17.5874739 L90.4062591,17.5874739 L90.4062591,19.5124807 L93.8312711,19.5124807 L93.8312711,21.0999863 L90.4062591,21.0999863 L90.4062591,23.4124944 L94.5812737,23.4124944 L94.5812737,25 L88.7062531,25 L88.7062531,15.9999683 L94.5812737,15.9999683 L94.5812737,17.5874739 Z M101.406271,25 L99.9187657,21.9374892 L98.0312591,21.9374892 L98.0312591,25 L96.3312531,25 L96.3312531,15.9999683 L100.131266,15.9999683 C101.19377,15.9999683 101.781272,16.2624693 102.293774,16.762471 C102.943776,17.3874732 103.193777,18.0374755 103.206277,18.9749788 C103.218777,19.8249818 102.893776,20.5999845 102.393774,21.0999863 C102.181274,21.312487 101.943773,21.4874876 101.681272,21.6124881 L103.331278,25 L101.406271,25 Z M98.0312591,17.599974 L98.0312591,20.3499836 L100.181267,20.3499836 C100.518768,20.3499836 100.931269,20.1999831 101.19377,19.874982 C101.393771,19.6374811 101.481271,19.2749799 101.481271,18.9749788 C101.481271,18.6499777 101.406271,18.2499763 101.18127,17.9749753 C100.956269,17.7124744 100.643768,17.599974 100.181267,17.599974 L98.0312591,17.599974 Z" id="DAILYPAPER" fill="#FF0000" fill-rule="nonzero"></path>
                    <g id="Group-12-Copy" transform="translate(25.000000, 69.000000)" stroke="#FF0000" stroke-linecap="round" stroke-linejoin="round" stroke-width="2">
                        <path d="M0.246666667,1 L36.9924528,1" id="Line-48"></path>
                        <path d="M0.246666667,13 L36.9924528,13" id="Line-48-Copy-2"></path>
                        <path d="M0.246666667,25 L36.9924528,25" id="Line-48-Copy-4"></path>
                        <path d="M0.246666667,7 L36.9924528,7" id="Line-48-Copy"></path>
                        <path d="M0.246666667,18.5 L36.9924528,18.5" id="Line-48-Copy-3"></path>
                    </g>
                    <g id="Group-12-Copy-3" transform="translate(70.000000, 69.000000)" stroke="#FF0000" stroke-linecap="round" stroke-linejoin="round" stroke-width="2">
                        <path d="M0.246666667,1 L36.9924528,1" id="Line-48"></path>
                        <path d="M0.246666667,13 L36.9924528,13" id="Line-48-Copy-2"></path>
                        <path d="M0.246666667,25 L36.9924528,25" id="Line-48-Copy-4"></path>
                        <path d="M0.246666667,7 L36.9924528,7" id="Line-48-Copy"></path>
                        <path d="M0.246666667,18.5 L36.9924528,18.5" id="Line-48-Copy-3"></path>
                    </g>
                    <g id="Group-11-Copy" transform="translate(25.000000, 31.000000)" stroke="#FF0000" stroke-width="2">
                        <rect id="Rectangle" x="1" y="1" width="80" height="32" rx="2"></rect>
                        <polyline id="Line-49" stroke-linecap="round" stroke-linejoin="round" points="4 26 30.3604408 14 55.5220588 20 69.7217676 18.125 81 26"></polyline>
                    </g>
                </g>
                <path d="M193.258894,187.249966 L194.748483,187.249966 L191.918264,197 L190.509926,197 L188.41096,189.714558 L186.325536,197 L184.917198,197 L182.073438,187.249966 L183.563027,187.249966 L185.621367,194.6302 L187.652624,187.263507 L189.142213,187.249966 L191.200554,194.6302 L193.258894,187.249966 Z M196.481778,193.736447 C196.522403,194.251032 196.65782,194.738534 196.955738,195.131243 C197.307823,195.618745 197.903658,195.862496 198.540119,195.862496 C199.02762,195.862496 199.433872,195.754162 199.772415,195.510411 C200.097416,195.280202 200.300542,195.009368 200.4495,194.697909 L201.830755,195.144785 C201.559921,195.781246 201.099503,196.322914 200.544292,196.661457 C199.97554,197.013542 199.284913,197.203126 198.621369,197.203126 C197.538032,197.203126 196.468236,196.783333 195.818234,195.997913 C195.222399,195.253119 194.965106,194.332282 194.965106,193.411446 C194.965106,192.395817 195.23594,191.420814 195.818234,190.689561 C196.481778,189.8906 197.483865,189.484349 198.540119,189.484349 C199.609914,189.484349 200.476584,189.849975 201.140128,190.635394 C201.817214,191.461439 202.006798,192.544776 201.939089,193.736447 L196.481778,193.736447 Z M198.540119,190.743728 C197.957825,190.730186 197.36199,190.933312 196.955738,191.461439 C196.698446,191.799982 196.57657,192.17915 196.508862,192.598943 L200.490126,192.598943 C200.4495,192.152066 200.354708,191.759357 200.097416,191.420814 C199.745331,190.960395 199.149496,190.730186 198.540119,190.743728 Z M209.549504,190.648936 C210.131798,191.39373 210.375549,192.355192 210.375549,193.343737 C210.375549,194.318741 210.158881,195.266661 209.549504,196.024997 C208.940127,196.783333 208.005749,197.203126 207.017203,197.203126 C206.109909,197.203126 205.283864,196.905208 204.70157,196.309373 L204.70157,197 L203.442191,197 L203.442191,187.249966 L204.864071,187.249966 L204.864071,190.229143 C205.432823,189.755183 206.191159,189.484349 206.99012,189.484349 C207.992207,189.484349 208.940127,189.8906 209.549504,190.648936 Z M208.412,195.158327 C208.750543,194.697909 208.872418,194.034365 208.872418,193.343737 C208.872418,192.639568 208.737001,191.976024 208.398458,191.515606 C208.032832,190.987479 207.450538,190.770811 206.773453,190.770811 C206.164075,190.770811 205.608865,190.973937 205.256781,191.434355 C204.864071,191.908315 204.70157,192.612485 204.70157,193.343737 C204.70157,194.061448 204.864071,194.779159 205.256781,195.253119 C205.635949,195.699995 206.191159,195.916663 206.827619,195.916663 C207.436997,195.916663 208.046374,195.686454 208.412,195.158327 Z M217.471378,191.610398 L216.130748,191.935399 C215.819289,191.109354 215.128661,190.743728 214.316158,190.730186 C213.584906,190.703103 212.853653,191.028104 212.853653,191.542689 C212.853653,192.003107 213.259905,192.165608 213.85574,192.328109 C214.261991,192.449984 214.695326,192.571859 215.27762,192.73436 C216.577625,193.086445 217.512003,193.804155 217.512003,194.982285 C217.512003,195.65937 217.132835,196.349998 216.536999,196.715624 C215.927622,197.094792 215.27762,197.203126 214.573451,197.203126 C213.611989,197.203126 212.772403,196.986458 212.108859,196.295831 C211.675524,195.835413 211.445315,195.347911 211.323439,194.887493 L212.609902,194.521866 C212.718236,194.860409 212.880737,195.198952 213.124487,195.429161 C213.503655,195.808329 214.045324,195.957288 214.586993,195.957288 C214.979702,195.957288 215.548454,195.862496 215.83283,195.65937 C216.076581,195.483328 216.211998,195.266661 216.211998,194.982285 C216.211998,194.399991 215.589079,194.223949 214.939077,194.034365 C213.896365,193.736447 213.598447,193.655197 213.246363,193.533321 C212.813028,193.370821 212.325526,193.154153 211.986983,192.802069 C211.675524,192.463526 211.553649,191.948941 211.553649,191.596856 C211.553649,190.75727 212.095317,190.066642 212.813028,189.755183 C213.354697,189.524974 213.882823,189.484349 214.397409,189.484349 C214.898452,189.484349 215.453662,189.592682 215.941164,189.849975 C216.645333,190.188518 217.227627,190.879145 217.471378,191.610398 Z M219.150525,187.155174 L220.572405,187.155174 L220.572405,188.536429 L219.150525,188.536429 L219.150525,187.155174 Z M219.150525,189.687474 L220.572405,189.687474 L220.572405,197 L219.150525,197 L219.150525,189.687474 Z M224.607823,190.824978 L224.607823,194.047906 C224.607823,194.643742 224.580739,195.077077 224.756782,195.361453 C224.932824,195.672912 225.257825,195.821871 225.582826,195.848954 C225.961994,195.889579 226.408871,195.862496 226.788039,195.794787 L226.788039,197 C226.259912,197.135417 225.433867,197.135417 224.932824,197.054167 C224.26928,196.945833 223.822403,196.715624 223.483861,196.13333 C223.131776,195.57812 223.199485,194.928118 223.199485,194.129157 L223.199485,190.824978 L221.791146,190.824978 L221.791146,189.687474 L223.199485,189.687474 L223.199485,187.656217 L224.607823,187.656217 L224.607823,189.687474 L226.788039,189.687474 L226.788039,190.824978 L224.607823,190.824978 Z M229.090111,193.736447 C229.130737,194.251032 229.266154,194.738534 229.564071,195.131243 C229.916156,195.618745 230.511991,195.862496 231.148452,195.862496 C231.635954,195.862496 232.042205,195.754162 232.380748,195.510411 C232.705749,195.280202 232.908875,195.009368 233.057834,194.697909 L234.439089,195.144785 C234.168254,195.781246 233.707836,196.322914 233.152626,196.661457 C232.583874,197.013542 231.893246,197.203126 231.229702,197.203126 C230.146365,197.203126 229.07657,196.783333 228.426567,195.997913 C227.830732,195.253119 227.573439,194.332282 227.573439,193.411446 C227.573439,192.395817 227.844274,191.420814 228.426567,190.689561 C229.090111,189.8906 230.092198,189.484349 231.148452,189.484349 C232.218247,189.484349 233.084917,189.849975 233.748461,190.635394 C234.425547,191.461439 234.615131,192.544776 234.547422,193.736447 L229.090111,193.736447 Z M231.148452,190.743728 C230.566158,190.730186 229.970323,190.933312 229.564071,191.461439 C229.306779,191.799982 229.184903,192.17915 229.117195,192.598943 L233.098459,192.598943 C233.057834,192.152066 232.963042,191.759357 232.705749,191.420814 C232.353665,190.960395 231.757829,190.730186 231.148452,190.743728 Z" id="Website" fill="#FFFFFF" fill-rule="nonzero"></path>
                <path d="M45.4167066,318.249966 L46.9062952,318.249966 L44.0760769,328 L42.6677386,328 L40.5687729,320.714558 L38.4833489,328 L37.0750106,328 L34.2312506,318.249966 L35.7208392,318.249966 L37.7791798,325.6302 L39.8104369,318.263507 L41.3000255,318.249966 L43.358366,325.6302 L45.4167066,318.249966 Z M48.6395906,324.736447 C48.6802157,325.251032 48.8156329,325.738534 49.1135506,326.131243 C49.4656351,326.618745 50.0614706,326.862496 50.6979311,326.862496 C51.1854329,326.862496 51.5916843,326.754162 51.9302271,326.510411 C52.2552283,326.280202 52.458354,326.009368 52.6073129,325.697909 L53.9885677,326.144785 C53.7177334,326.781246 53.2573151,327.322914 52.7021049,327.661457 C52.1333529,328.013542 51.4427254,328.203126 50.7791814,328.203126 C49.6958443,328.203126 48.6260489,327.783333 47.9760466,326.997913 C47.3802111,326.253119 47.1229186,325.332282 47.1229186,324.411446 C47.1229186,323.395817 47.3937529,322.420814 47.9760466,321.689561 C48.6395906,320.8906 49.6416774,320.484349 50.6979311,320.484349 C51.7677266,320.484349 52.6343963,320.849975 53.2979403,321.635394 C53.975026,322.461439 54.16461,323.544776 54.0969014,324.736447 L48.6395906,324.736447 Z M50.6979311,321.743728 C50.1156374,321.730186 49.519802,321.933312 49.1135506,322.461439 C48.856258,322.799982 48.7343826,323.17915 48.666674,323.598943 L52.647938,323.598943 C52.6073129,323.152066 52.5125209,322.759357 52.2552283,322.420814 C51.9031437,321.960395 51.3073083,321.730186 50.6979311,321.743728 Z M61.7073165,321.648936 C62.2896102,322.39373 62.533361,323.355192 62.533361,324.343737 C62.533361,325.318741 62.3166936,326.266661 61.7073165,327.024997 C61.0979393,327.783333 60.163561,328.203126 59.1750159,328.203126 C58.267721,328.203126 57.4416765,327.905208 56.8593828,327.309373 L56.8593828,328 L55.6000033,328 L55.6000033,318.249966 L57.0218833,318.249966 L57.0218833,321.229143 C57.5906353,320.755183 58.3489713,320.484349 59.1479325,320.484349 C60.1500193,320.484349 61.0979393,320.8906 61.7073165,321.648936 Z M60.5698125,326.158327 C60.9083553,325.697909 61.0302308,325.034365 61.0302308,324.343737 C61.0302308,323.639568 60.8948136,322.976024 60.5562708,322.515606 C60.1906445,321.987479 59.6083508,321.770811 58.931265,321.770811 C58.3218879,321.770811 57.7666776,321.973937 57.414593,322.434355 C57.0218833,322.908315 56.8593828,323.612485 56.8593828,324.343737 C56.8593828,325.061448 57.0218833,325.779159 57.414593,326.253119 C57.793761,326.699995 58.3489713,326.916663 58.9854319,326.916663 C59.594809,326.916663 60.2041862,326.686454 60.5698125,326.158327 Z M69.6291902,322.610398 L68.2885605,322.935399 C67.977101,322.109354 67.2864736,321.743728 66.4739708,321.730186 C65.7427182,321.703103 65.0114656,322.028104 65.0114656,322.542689 C65.0114656,323.003107 65.417717,323.165608 66.0135525,323.328109 C66.4198039,323.449984 66.8531388,323.571859 67.4354325,323.73436 C68.735437,324.086445 69.6698153,324.804155 69.6698153,325.982285 C69.6698153,326.65937 69.2906473,327.349998 68.6948119,327.715624 C68.0854348,328.094792 67.4354325,328.203126 66.7312633,328.203126 C65.7698016,328.203126 64.9302153,327.986458 64.2666713,327.295831 C63.8333365,326.835413 63.6031273,326.347911 63.4812519,325.887493 L64.7677148,325.521866 C64.8760485,325.860409 65.038549,326.198952 65.2822999,326.429161 C65.6614679,326.808329 66.2031365,326.957288 66.744805,326.957288 C67.1375148,326.957288 67.7062668,326.862496 67.9906428,326.65937 C68.2343936,326.483328 68.3698108,326.266661 68.3698108,325.982285 C68.3698108,325.399991 67.7468919,325.223949 67.0968896,325.034365 C66.0541776,324.736447 65.7562599,324.655197 65.4041753,324.533321 C64.9708405,324.370821 64.4833388,324.154153 64.1447959,323.802069 C63.8333365,323.463526 63.711461,322.948941 63.711461,322.596856 C63.711461,321.75727 64.2531296,321.066642 64.9708405,320.755183 C65.512509,320.524974 66.0406359,320.484349 66.555221,320.484349 C67.0562645,320.484349 67.6114748,320.592682 68.0989765,320.849975 C68.8031456,321.188518 69.3854393,321.879145 69.6291902,322.610398 Z M71.3083371,318.155174 L72.7302171,318.155174 L72.7302171,319.536429 L71.3083371,319.536429 L71.3083371,318.155174 Z M71.3083371,320.687474 L72.7302171,320.687474 L72.7302171,328 L71.3083371,328 L71.3083371,320.687474 Z M76.7656354,321.824978 L76.7656354,325.047906 C76.7656354,325.643742 76.738552,326.077077 76.9145942,326.361453 C77.0906365,326.672912 77.4156377,326.821871 77.7406388,326.848954 C78.1198068,326.889579 78.5666834,326.862496 78.9458514,326.794787 L78.9458514,328 C78.4177245,328.135417 77.59168,328.135417 77.0906365,328.054167 C76.4270925,327.945833 75.980216,327.715624 75.6416731,327.13333 C75.2895885,326.57812 75.3572971,325.928118 75.3572971,325.129157 L75.3572971,321.824978 L73.9489588,321.824978 L73.9489588,320.687474 L75.3572971,320.687474 L75.3572971,318.656217 L76.7656354,318.656217 L76.7656354,320.687474 L78.9458514,320.687474 L78.9458514,321.824978 L76.7656354,321.824978 Z M81.2479239,324.736447 C81.288549,325.251032 81.4239662,325.738534 81.7218839,326.131243 C82.0739685,326.618745 82.6698039,326.862496 83.3062645,326.862496 C83.7937662,326.862496 84.2000176,326.754162 84.5385605,326.510411 C84.8635616,326.280202 85.0666873,326.009368 85.2156462,325.697909 L86.596901,326.144785 C86.3260668,326.781246 85.8656485,327.322914 85.3104382,327.661457 C84.7416862,328.013542 84.0510588,328.203126 83.3875148,328.203126 C82.3041776,328.203126 81.2343822,327.783333 80.5843799,326.997913 C79.9885445,326.253119 79.7312519,325.332282 79.7312519,324.411446 C79.7312519,323.395817 80.0020862,322.420814 80.5843799,321.689561 C81.2479239,320.8906 82.2500108,320.484349 83.3062645,320.484349 C84.3760599,320.484349 85.2427296,320.849975 85.9062736,321.635394 C86.5833593,322.461439 86.7729433,323.544776 86.7052348,324.736447 L81.2479239,324.736447 Z M83.3062645,321.743728 C82.7239708,321.730186 82.1281353,321.933312 81.7218839,322.461439 C81.4645913,322.799982 81.3427159,323.17915 81.2750073,323.598943 L85.2562713,323.598943 C85.2156462,323.152066 85.1208542,322.759357 84.8635616,322.420814 C84.511477,321.960395 83.9156416,321.730186 83.3062645,321.743728 Z M90.7000026,321.229143 C90.7000026,320.281223 91.0385454,319.441637 91.7968814,318.791634 C92.4062586,318.263507 93.2052197,318.04684 94.044806,318.04684 C94.9250174,318.04684 95.7781454,318.371841 96.4010643,319.021843 C96.9698163,319.604137 97.267734,320.41664 97.267734,321.256226 C97.267734,322.596856 96.7396071,323.192691 95.6833534,324.12707 L92.8666769,326.645829 L97.267734,326.645829 L97.267734,327.986458 L90.6729191,327.986458 L90.6729191,326.740621 L94.9250174,322.935399 C95.6021031,322.326022 95.8187706,321.784353 95.8187706,321.242685 C95.8187706,320.741641 95.6291866,320.267681 95.2906437,319.929138 C94.9521009,319.563512 94.518766,319.38747 94.0177226,319.38747 C93.5166791,319.38747 93.096886,319.563512 92.7854266,319.834346 C92.3927169,320.186431 92.148966,320.687474 92.1625077,321.229143 L90.7000026,321.229143 Z" id="Website2" fill="#FFFFFF" fill-rule="nonzero"></path>
                <path d="M100.646358,492.155174 L102.068238,492.155174 L102.068238,493.536429 L100.646358,493.536429 L100.646358,492.155174 Z M100.646358,494.687474 L102.068238,494.687474 L102.068238,502 L100.646358,502 L100.646358,494.687474 Z M108.297414,502.203126 C106.916159,502.203126 105.602613,501.674999 104.79011,500.618745 C104.004691,499.643742 103.693231,498.397904 103.693231,497.124983 C103.693231,495.852062 104.004691,494.592682 104.79011,493.617679 C105.616155,492.561425 106.929701,492.04684 108.297414,492.04684 C109.678669,492.060382 110.978673,492.574967 111.81826,493.617679 C112.630763,494.633307 112.888055,495.852062 112.915139,497.124983 C112.901597,498.438529 112.603679,499.6302 111.81826,500.618745 C110.965132,501.688541 109.678669,502.203126 108.297414,502.203126 Z M108.297414,500.862496 C109.231792,500.862496 110.139087,500.49687 110.680756,499.765617 C111.222424,499.047906 111.398467,498.072903 111.412008,497.124983 C111.412008,496.177063 111.222424,495.202059 110.680756,494.484349 C110.139087,493.753096 109.231792,493.401011 108.297414,493.401011 C107.376577,493.38747 106.455741,493.753096 105.927614,494.484349 C105.358862,495.202059 105.18282,496.177063 105.18282,497.124983 C105.196361,498.072903 105.358862,499.047906 105.927614,499.765617 C106.455741,500.49687 107.376577,500.848954 108.297414,500.862496 Z M121.608883,494.714558 L120.173461,495.093726 C119.92971,494.524974 119.645334,494.091639 119.117207,493.780179 C118.751581,493.54997 118.277621,493.38747 117.790119,493.38747 C117.289076,493.38747 116.815116,493.482262 116.476573,493.685387 C116.070322,493.915597 115.826571,494.33539 115.826571,494.741641 C115.826571,494.998934 115.921363,495.242685 116.097405,495.432269 C116.341156,495.676019 116.828658,495.865603 117.343243,496.028104 L119.063041,496.529147 C119.84846,496.759357 120.390129,497.030191 120.837005,497.449984 C121.378674,497.964569 121.690133,498.655197 121.690133,499.399991 C121.690133,500.226035 121.229715,501.079163 120.498462,501.566665 C119.794293,502.067709 118.886998,502.203126 117.925537,502.203126 C116.639074,502.203126 115.609903,501.851041 114.810942,500.916663 C114.350524,500.388536 114.093231,499.724992 113.957814,499.129157 L115.393236,498.736447 C115.488028,499.210407 115.636987,499.6302 115.961988,500.009368 C116.395323,500.57812 117.207826,500.862496 117.966162,500.862496 C118.561997,500.862496 119.266166,500.713537 119.672418,500.402078 C120.051586,500.131243 120.187003,499.724992 120.187003,499.345824 C120.187003,499.020823 120.051586,498.709363 119.807835,498.479154 C119.537001,498.221862 119.184916,498.059361 118.738039,497.923944 L116.936991,497.395817 C116.246364,497.192691 115.596362,496.935399 115.10886,496.502064 C114.567191,496.028104 114.336982,495.337477 114.336982,494.701016 C114.336982,493.726013 114.973443,492.845801 115.813029,492.43955 C116.476573,492.114549 117.153659,492.04684 117.803661,492.04684 C118.480747,492.060382 119.211999,492.182257 119.834918,492.534342 C120.633879,492.99476 121.243257,493.753096 121.608883,494.714558 Z M131.77867,502 L130.532832,502 L130.532832,500.957288 C129.842205,501.878125 129.01616,502.203126 127.838031,502.203126 C126.40261,502.203126 125.427606,501.336456 125.427606,499.968743 C125.427606,499.034365 125.793232,498.357279 126.714069,497.910402 C127.621364,497.477067 129.110952,497.328109 130.35679,497.138525 C130.289082,496.285397 129.666163,495.824978 128.718243,495.824978 C127.959907,495.824978 127.282821,496.041646 126.727611,496.651023 L125.874483,495.716645 C126.632819,494.8906 127.59428,494.484349 128.840118,494.484349 C129.598454,494.484349 130.370332,494.795808 130.871375,495.229143 C131.562003,495.811437 131.77867,496.678106 131.77867,497.571859 L131.77867,502 Z M130.099498,499.955201 C130.383874,499.481241 130.370332,498.939573 130.370332,498.28957 C129.557829,498.411446 128.758868,498.560405 128.190116,498.68228 C127.458863,498.844781 126.835944,499.223949 126.835944,499.860409 C126.835944,500.537495 127.391155,500.997913 128.135949,500.997913 C129.01616,500.997913 129.72033,500.605203 130.099498,499.955201 Z M139.646379,495.648936 C140.228673,496.39373 140.472424,497.355192 140.472424,498.343737 C140.472424,499.318741 140.255756,500.266661 139.646379,501.024997 C139.037002,501.783333 138.102624,502.203126 137.114078,502.203126 C136.288034,502.203126 135.529698,501.959375 134.960946,501.458331 L134.960946,505.250011 L133.539066,505.250011 L133.539066,494.687474 L134.798445,494.687474 L134.798445,495.378102 C135.380739,494.80935 136.206784,494.484349 137.086995,494.484349 C138.089082,494.484349 139.037002,494.8906 139.646379,495.648936 Z M138.508875,500.158327 C138.847418,499.697909 138.969293,499.034365 138.969293,498.343737 C138.969293,497.639568 138.833876,496.976024 138.495333,496.515606 C138.129707,495.987479 137.547413,495.770811 136.870328,495.770811 C136.26095,495.770811 135.70574,495.973937 135.353656,496.434355 C134.960946,496.908315 134.798445,497.612485 134.798445,498.343737 C134.798445,499.061448 134.960946,499.779159 135.353656,500.253119 C135.732824,500.699995 136.288034,500.916663 136.924494,500.916663 C137.533872,500.916663 138.143249,500.686454 138.508875,500.158327 Z M148.069296,495.648936 C148.651589,496.39373 148.89534,497.355192 148.89534,498.343737 C148.89534,499.318741 148.678673,500.266661 148.069296,501.024997 C147.459919,501.783333 146.52554,502.203126 145.536995,502.203126 C144.710951,502.203126 143.952615,501.959375 143.383863,501.458331 L143.383863,505.250011 L141.961983,505.250011 L141.961983,494.687474 L143.221362,494.687474 L143.221362,495.378102 C143.803656,494.80935 144.6297,494.484349 145.509912,494.484349 C146.511999,494.484349 147.459919,494.8906 148.069296,495.648936 Z M146.931792,500.158327 C147.270335,499.697909 147.39221,499.034365 147.39221,498.343737 C147.39221,497.639568 147.256793,496.976024 146.91825,496.515606 C146.552624,495.987479 145.97033,495.770811 145.293244,495.770811 C144.683867,495.770811 144.128657,495.973937 143.776572,496.434355 C143.383863,496.908315 143.221362,497.612485 143.221362,498.343737 C143.221362,499.061448 143.383863,499.779159 143.776572,500.253119 C144.15574,500.699995 144.710951,500.916663 145.347411,500.916663 C145.956788,500.916663 146.566165,500.686454 146.931792,500.158327 Z" id="iOSapp" fill="#FFFFFF" fill-rule="nonzero"></path>
                <path d="M217.804713,556 L217.087002,553.806242 L213.078654,553.806242 L212.360944,556 L210.898438,556 L214.0672,546.249966 L216.098457,546.249966 L219.267218,556 L217.804713,556 Z M213.511989,552.479154 L216.640125,552.479154 L215.069286,547.685387 L213.511989,552.479154 Z M226.092211,549.174976 C226.985964,549.960395 227.067214,551.233317 227.053672,552.452071 L227.053672,556 L225.618251,556 L225.618251,552.506238 C225.618251,551.571859 225.509917,550.718731 224.941165,550.23123 C224.629705,549.946854 224.182829,549.811437 223.668244,549.824978 C223.261992,549.852062 222.896366,549.973937 222.598448,550.217688 C222.286989,550.461439 222.083863,550.854149 222.002613,551.301025 C221.907821,551.707277 221.907821,552.262487 221.907821,552.790614 L221.907821,556 L220.485941,556 L220.485941,548.687474 L221.74532,548.687474 L221.74532,549.581227 L221.975529,549.310393 C222.449489,548.782266 223.1672,548.538515 223.830744,548.49789 C224.616164,548.443723 225.428667,548.592682 226.092211,549.174976 Z M233.919292,546.249966 L235.341172,546.249966 L235.341172,556 L234.081793,556 L234.081793,555.309373 C233.499499,555.905208 232.673454,556.203126 231.76616,556.203126 C230.777614,556.203126 229.843236,555.783333 229.233859,555.024997 C228.624482,554.266661 228.407814,553.318741 228.407814,552.343737 C228.407814,551.355192 228.651565,550.39373 229.233859,549.648936 C229.843236,548.8906 230.791156,548.484349 231.793243,548.484349 C232.592204,548.484349 233.35054,548.755183 233.919292,549.229143 L233.919292,546.249966 Z M233.526582,554.253119 C233.919292,553.779159 234.081793,553.061448 234.081793,552.343737 C234.081793,551.612485 233.919292,550.908315 233.526582,550.434355 C233.174498,549.973937 232.619288,549.770811 232.00991,549.770811 C231.332825,549.770811 230.750531,549.987479 230.384905,550.515606 C230.046362,550.976024 229.910945,551.639568 229.910945,552.343737 C229.910945,553.034365 230.03282,553.697909 230.371363,554.158327 C230.736989,554.686454 231.346366,554.916663 231.955744,554.916663 C232.592204,554.916663 233.147414,554.699995 233.526582,554.253119 Z M240.69012,548.49789 C241.055746,548.470807 241.434914,548.524974 241.786999,548.660391 L241.786999,549.987479 C241.448456,549.865603 241.015121,549.797895 240.568244,549.824978 C240.013034,549.852062 239.552616,550.041646 239.254698,550.353105 C238.740113,550.840607 238.658863,551.504151 238.658863,552.316654 L238.658863,556 L237.236983,556 L237.236983,548.687474 L238.496362,548.687474 L238.496362,549.743728 C238.658863,549.459352 238.889072,549.202059 239.186989,548.985392 C239.633866,548.660391 240.161993,548.511432 240.69012,548.49789 Z M245.971369,556.203126 C244.915115,556.203126 243.913028,555.796874 243.249484,554.997913 C242.640107,554.226035 242.396356,553.318741 242.396356,552.343737 C242.396356,551.355192 242.66719,550.420814 243.249484,549.689561 C243.899486,548.904142 244.915115,548.484349 245.971369,548.484349 C247.041164,548.484349 248.043251,548.877058 248.693253,549.689561 C249.329714,550.461439 249.559923,551.382275 249.559923,552.343737 C249.559923,553.345824 249.316172,554.226035 248.693253,554.997913 C248.029709,555.810416 247.054706,556.203126 245.971369,556.203126 Z M248.056793,552.343737 C248.056793,551.693735 247.934917,551.030191 247.569291,550.542689 C247.217206,550.055187 246.607829,549.824978 245.971369,549.824978 C245.334908,549.824978 244.739073,550.055187 244.386988,550.542689 C244.021362,551.030191 243.899486,551.693735 243.899486,552.343737 C243.899486,552.993739 244.021362,553.643742 244.386988,554.131243 C244.739073,554.618745 245.334908,554.862496 245.971369,554.862496 C246.607829,554.862496 247.217206,554.618745 247.569291,554.131243 C247.934917,553.643742 248.056793,552.993739 248.056793,552.343737 Z M251.1849,546.155174 L252.60678,546.155174 L252.60678,547.536429 L251.1849,547.536429 L251.1849,546.155174 Z M251.1849,548.687474 L252.60678,548.687474 L252.60678,556 L251.1849,556 L251.1849,548.687474 Z M259.74325,546.249966 L261.16513,546.249966 L261.16513,556 L259.905751,556 L259.905751,555.309373 C259.323457,555.905208 258.497413,556.203126 257.590118,556.203126 C256.601573,556.203126 255.667194,555.783333 255.057817,555.024997 C254.44844,554.266661 254.231773,553.318741 254.231773,552.343737 C254.231773,551.355192 254.475524,550.39373 255.057817,549.648936 C255.667194,548.8906 256.615114,548.484349 257.617201,548.484349 C258.416162,548.484349 259.174498,548.755183 259.74325,549.229143 L259.74325,546.249966 Z M259.350541,554.253119 C259.74325,553.779159 259.905751,553.061448 259.905751,552.343737 C259.905751,551.612485 259.74325,550.908315 259.350541,550.434355 C258.998456,549.973937 258.443246,549.770811 257.833869,549.770811 C257.156783,549.770811 256.574489,549.987479 256.208863,550.515606 C255.87032,550.976024 255.734903,551.639568 255.734903,552.343737 C255.734903,553.034365 255.856778,553.697909 256.195321,554.158327 C256.560948,554.686454 257.170325,554.916663 257.779702,554.916663 C258.416162,554.916663 258.971373,554.699995 259.350541,554.253119 Z M271.714087,556 L270.468249,556 L270.468249,554.957288 C269.777622,555.878125 268.951577,556.203126 267.773448,556.203126 C266.338026,556.203126 265.363023,555.336456 265.363023,553.968743 C265.363023,553.034365 265.728649,552.357279 266.649486,551.910402 C267.55678,551.477067 269.046369,551.328109 270.292207,551.138525 C270.224498,550.285397 269.601579,549.824978 268.653659,549.824978 C267.895323,549.824978 267.218238,550.041646 266.663027,550.651023 L265.809899,549.716645 C266.568235,548.8906 267.529697,548.484349 268.775535,548.484349 C269.533871,548.484349 270.305748,548.795808 270.806792,549.229143 C271.497419,549.811437 271.714087,550.678106 271.714087,551.571859 L271.714087,556 Z M270.034914,553.955201 C270.31929,553.481241 270.305748,552.939573 270.305748,552.28957 C269.493246,552.411446 268.694284,552.560405 268.125532,552.68228 C267.39428,552.844781 266.771361,553.223949 266.771361,553.860409 C266.771361,554.537495 267.326571,554.997913 268.071366,554.997913 C268.951577,554.997913 269.655746,554.605203 270.034914,553.955201 Z M279.581796,549.648936 C280.164089,550.39373 280.40784,551.355192 280.40784,552.343737 C280.40784,553.318741 280.191173,554.266661 279.581796,555.024997 C278.972419,555.783333 278.03804,556.203126 277.049495,556.203126 C276.223451,556.203126 275.465115,555.959375 274.896363,555.458331 L274.896363,559.250011 L273.474483,559.250011 L273.474483,548.687474 L274.733862,548.687474 L274.733862,549.378102 C275.316156,548.80935 276.1422,548.484349 277.022412,548.484349 C278.024499,548.484349 278.972419,548.8906 279.581796,549.648936 Z M278.444292,554.158327 C278.782835,553.697909 278.90471,553.034365 278.90471,552.343737 C278.90471,551.639568 278.769293,550.976024 278.43075,550.515606 C278.065124,549.987479 277.48283,549.770811 276.805744,549.770811 C276.196367,549.770811 275.641157,549.973937 275.289072,550.434355 C274.896363,550.908315 274.733862,551.612485 274.733862,552.343737 C274.733862,553.061448 274.896363,553.779159 275.289072,554.253119 C275.66824,554.699995 276.223451,554.916663 276.859911,554.916663 C277.469288,554.916663 278.078665,554.686454 278.444292,554.158327 Z M288.004712,549.648936 C288.587006,550.39373 288.830757,551.355192 288.830757,552.343737 C288.830757,553.318741 288.614089,554.266661 288.004712,555.024997 C287.395335,555.783333 286.460957,556.203126 285.472412,556.203126 C284.646367,556.203126 283.888031,555.959375 283.319279,555.458331 L283.319279,559.250011 L281.897399,559.250011 L281.897399,548.687474 L283.156779,548.687474 L283.156779,549.378102 C283.739072,548.80935 284.565117,548.484349 285.445328,548.484349 C286.447415,548.484349 287.395335,548.8906 288.004712,549.648936 Z M286.867208,554.158327 C287.205751,553.697909 287.327627,553.034365 287.327627,552.343737 C287.327627,551.639568 287.192209,550.976024 286.853667,550.515606 C286.48804,549.987479 285.905747,549.770811 285.228661,549.770811 C284.619284,549.770811 284.064073,549.973937 283.711989,550.434355 C283.319279,550.908315 283.156779,551.612485 283.156779,552.343737 C283.156779,553.061448 283.319279,553.779159 283.711989,554.253119 C284.091157,554.699995 284.646367,554.916663 285.282828,554.916663 C285.892205,554.916663 286.501582,554.686454 286.867208,554.158327 Z" id="Androidapp" fill="#FFFFFF" fill-rule="nonzero"></path>
                <path d="M702,290 L744,332" id="Line-58" stroke="#0094FF" stroke-width="3" stroke-linecap="square"></path>
                <g id="Group-20" transform="translate(725.706136, 247.115537) scale(1, -1) translate(-725.706136, -247.115537) translate(701.706136, 223.115537)">
                    <path d="M0,0 L42,42" id="Line-58-Copy" stroke="#0094FF" stroke-width="3" stroke-linecap="square"></path>
                    <circle id="Oval-Copy-8" fill="#0094FF" cx="44" cy="44" r="4"></circle>
                </g>
                <circle id="Oval" fill="#FFFFFF" cx="182" cy="375" r="4"></circle>
                <circle id="Oval-Copy" fill="#FFFFFF" cx="297" cy="397" r="4"></circle>
                <circle id="Oval-Copy-2" fill="#FFFFFF" cx="154" cy="268" r="4"></circle>
                <circle id="Oval-Copy-3" fill="#FFFFFF" cx="297" cy="158" r="4"></circle>
                <circle id="Oval-Copy-4" fill="#FFFFFF" cx="491" cy="285" r="4"></circle>
                <circle id="Oval-Copy-7" fill="#0094FF" cx="746" cy="334" r="4"></circle>
            </g>
        </g>
    </g>
</svg>