<?xml version="1.0" encoding="UTF-8"?>
<svg width="187px" height="39px" viewBox="0 0 187 39" version="1.1" xmlns="http://www.w3.org/2000/svg" xmlns:xlink="http://www.w3.org/1999/xlink">
    <!-- Generator: Sketch Beta 57 (83077) - https://sketch.com -->
    <title>elasticsearch</title>
    <desc>Created with Sketch Beta.</desc>
    <g id="Page-1" stroke="none" stroke-width="1" fill="none" fill-rule="evenodd">
        <g id="00-home" transform="translate(-298.000000, -4285.000000)" fill="#FFFFFF" fill-rule="nonzero">
            <g id="Group-3" transform="translate(298.000000, 4280.000000)">
                <g id="elasticsearch" transform="translate(0.000000, 5.000000)">
                    <path d="M51.1122,24.8077 C49.1925,24.8077 47.6567,24.2342 46.5529,23.1348 C45.4491,22.0354 44.9211,20.4581 44.9211,18.4983 C44.9211,16.4908 45.4491,14.8657 46.4569,13.7185 C47.4647,12.5713 48.8565,11.9977 50.6323,11.9977 C52.264,11.9977 53.5598,12.4757 54.5196,13.4795 C55.4795,14.4833 55.9594,15.8216 55.9594,17.5902 L55.9594,19.0241 L47.6567,19.0241 C47.7047,20.2191 48.0407,21.1273 48.6166,21.7964 C49.1925,22.4656 50.1043,22.7524 51.2082,22.7524 C51.928,22.7524 52.6479,22.7046 53.2718,22.5612 C53.8957,22.4178 54.5676,22.1788 55.3355,21.892 L55.3355,24.043 C54.7116,24.3298 54.0397,24.5687 53.3678,24.7121 C52.6959,24.8555 51.928,24.8077 51.1122,24.8077 Z M50.5843,14.0053 C49.7204,14.0053 49.0485,14.2921 48.5686,14.8179 C48.0886,15.3436 47.7527,16.1084 47.6567,17.16 L53.3198,17.16 C53.3198,16.1562 53.0799,15.3436 52.5999,14.8179 C52.12,14.2921 51.4481,14.0053 50.5843,14.0053 Z" id="Shape"></path>
                    <polygon id="Path" points="61.5745 24.616 58.9349 24.616 58.9349 7.16956 61.5745 7.16956"></polygon>
                    <path d="M73.1405,24.6157 L72.6126,22.895 L72.5166,22.895 C71.9407,23.6598 71.3168,24.1856 70.6929,24.4245 C70.069,24.6635 69.3011,24.8547 68.3412,24.8547 C67.1414,24.8547 66.1816,24.5201 65.4617,23.851 C64.7418,23.1818 64.4539,22.2736 64.4539,21.0787 C64.4539,19.7881 64.9338,18.8321 65.8936,18.2107 C66.8535,17.5894 68.2933,17.207 70.2609,17.1592 L72.4206,17.1114 L72.4206,16.4422 C72.4206,15.6296 72.2286,15.056 71.8447,14.6736 C71.4608,14.2913 70.8849,14.1001 70.117,14.1001 C69.4931,14.1001 68.8692,14.1957 68.2933,14.3869 C67.7174,14.5781 67.1414,14.817 66.6135,15.056 L65.7497,13.1919 C66.4216,12.8573 67.1414,12.5705 67.9573,12.3793 C68.7732,12.1881 69.4931,12.0925 70.213,12.0925 C71.7967,12.0925 72.9965,12.4271 73.8124,13.1441 C74.6283,13.8611 75.0122,14.9126 75.0122,16.3944 L75.0122,24.6157 L73.1405,24.6157 Z M69.2051,22.7994 C70.165,22.7994 70.9328,22.5126 71.5088,21.9868 C72.0847,21.461 72.3726,20.6963 72.3726,19.7403 L72.3726,18.6887 L70.7889,18.7365 C69.5411,18.7843 68.6292,18.9755 68.0533,19.3579 C67.4774,19.7403 67.1894,20.3139 67.1894,21.0787 C67.1894,21.6522 67.3334,22.0824 67.6694,22.3692 C68.0053,22.656 68.5332,22.7994 69.2051,22.7994 Z" id="Shape"></path>
                    <path d="M87.0585,21.0787 C87.0585,22.2736 86.6266,23.2296 85.7147,23.851 C84.8028,24.4724 83.555,24.807 81.9233,24.807 C80.2436,24.807 78.9478,24.568 77.9399,24.0422 L77.9399,21.7479 C79.3797,22.417 80.7715,22.7516 82.0193,22.7516 C83.651,22.7516 84.4669,22.2736 84.4669,21.2699 C84.4669,20.9353 84.3709,20.6963 84.1789,20.5051 C83.987,20.3139 83.699,20.0749 83.2671,19.8359 C82.8351,19.5969 82.2592,19.3579 81.5394,19.0711 C80.0996,18.4976 79.1397,17.9718 78.6118,17.3982 C78.0839,16.8246 77.8439,16.1076 77.8439,15.2473 C77.8439,14.1957 78.2759,13.3831 79.1397,12.7617 C80.0036,12.1404 81.1554,11.9014 82.6432,11.9014 C84.083,11.9014 85.4747,12.1882 86.7705,12.8095 L85.9067,14.7693 C84.5629,14.1957 83.4591,13.9567 82.4992,13.9567 C81.1074,13.9567 80.3875,14.3391 80.3875,15.1517 C80.3875,15.5341 80.5795,15.8686 80.9155,16.1554 C81.2514,16.4422 82.0673,16.7768 83.3151,17.2548 C84.3229,17.6372 85.0908,18.0196 85.5707,18.3542 C86.0507,18.6888 86.3866,19.0711 86.6266,19.5013 C86.9625,19.9793 87.0585,20.4573 87.0585,21.0787 Z" id="Path"></path>
                    <path d="M94.5457,22.7039 C95.1696,22.7039 95.8415,22.6083 96.4654,22.4171 L96.4654,24.3768 C96.1774,24.5202 95.7935,24.6158 95.3135,24.7114 C94.8336,24.807 94.3537,24.8548 93.8738,24.8548 C91.3782,24.8548 90.1304,23.5164 90.1304,20.9353 L90.1304,14.2435 L88.4506,14.2435 L88.4506,13.0964 L90.2743,12.1404 L91.1862,9.51148 L92.8179,9.51148 L92.8179,12.2838 L96.3694,12.2838 L96.3694,14.2913 L92.8179,14.2913 L92.8179,20.9353 C92.8179,21.5567 92.9619,22.0347 93.2979,22.3215 C93.6338,22.6083 94.0657,22.7039 94.5457,22.7039 Z" id="Path"></path>
                    <path d="M98.8168,8.93805 C98.8168,8.46007 98.9607,8.12548 99.2007,7.83869 C99.4407,7.5519 99.8246,7.4563 100.305,7.4563 C100.784,7.4563 101.12,7.5997 101.408,7.83869 C101.696,8.07768 101.792,8.46007 101.792,8.93805 C101.792,9.36824 101.648,9.75063 101.408,9.98962 C101.168,10.2286 100.784,10.372 100.305,10.372 C99.8246,10.372 99.4407,10.2286 99.2007,9.98962 C98.9607,9.75063 98.8168,9.36824 98.8168,8.93805 Z M101.648,24.616 L99.0087,24.616 L99.0087,12.2361 L101.648,12.2361 L101.648,24.616 Z" id="Shape"></path>
                    <path d="M110.43,24.8072 C108.559,24.8072 107.119,24.2814 106.159,23.1821 C105.199,22.0827 104.671,20.5053 104.671,18.45 C104.671,16.3469 105.199,14.7695 106.207,13.6223 C107.215,12.4752 108.703,11.9494 110.622,11.9494 C111.918,11.9494 113.118,12.1884 114.174,12.6664 L113.358,14.7695 C112.254,14.3393 111.342,14.1003 110.574,14.1003 C108.415,14.1003 107.359,15.5343 107.359,18.3544 C107.359,19.7406 107.647,20.7921 108.175,21.5091 C108.703,22.2261 109.519,22.5607 110.526,22.5607 C111.726,22.5607 112.83,22.2739 113.886,21.7003 L113.886,23.9946 C113.406,24.2814 112.926,24.4726 112.35,24.5682 C111.774,24.6638 111.198,24.8072 110.43,24.8072 Z" id="Path"></path>
                    <path d="M125.164,21.0787 C125.164,22.2736 124.732,23.2296 123.82,23.851 C122.909,24.4724 121.661,24.807 120.029,24.807 C118.349,24.807 117.053,24.568 116.046,24.0422 L116.046,21.7479 C117.485,22.417 118.877,22.7516 120.125,22.7516 C121.757,22.7516 122.573,22.2736 122.573,21.2699 C122.573,20.9353 122.477,20.6963 122.285,20.5051 C122.093,20.3139 121.805,20.0749 121.373,19.8359 C120.941,19.5969 120.365,19.3579 119.645,19.0711 C118.205,18.4976 117.245,17.9718 116.718,17.3982 C116.19,16.8246 115.95,16.1076 115.95,15.2473 C115.95,14.1957 116.382,13.3831 117.245,12.7617 C118.109,12.1404 119.261,11.9014 120.749,11.9014 C122.189,11.9014 123.58,12.1882 124.876,12.8095 L124.012,14.7693 C122.669,14.1957 121.565,13.9567 120.605,13.9567 C119.213,13.9567 118.493,14.3391 118.493,15.1517 C118.493,15.5341 118.685,15.8686 119.021,16.1554 C119.357,16.4422 120.173,16.7768 121.421,17.2548 C122.429,17.6372 123.197,18.0196 123.676,18.3542 C124.156,18.6888 124.492,19.0711 124.732,19.5013 C125.068,19.9793 125.164,20.4573 125.164,21.0787 Z" id="Path"></path>
                    <path d="M133.467,24.8074 C131.547,24.8074 130.012,24.2339 128.908,23.1345 C127.804,22.0351 127.276,20.4578 127.276,18.498 C127.276,16.4905 127.804,14.8653 128.812,13.7182 C129.82,12.571 131.211,11.9974 132.987,11.9974 C134.619,11.9974 135.915,12.4754 136.875,13.4792 C137.834,14.483 138.314,15.8213 138.314,17.5899 L138.314,19.0238 L130.012,19.0238 C130.06,20.2188 130.396,21.127 130.971,21.7961 C131.547,22.4653 132.459,22.7521 133.563,22.7521 C134.283,22.7521 135.003,22.7043 135.627,22.5609 C136.251,22.4175 136.922,22.1785 137.69,21.8917 L137.69,24.0427 C137.066,24.3295 136.395,24.5684 135.723,24.7118 C135.051,24.8552 134.331,24.8074 133.467,24.8074 Z M132.987,14.005 C132.123,14.005 131.451,14.2918 130.971,14.8175 C130.492,15.3433 130.156,16.1081 130.06,17.1597 L135.723,17.1597 C135.723,16.1559 135.483,15.3433 135.003,14.8175 C134.523,14.2918 133.803,14.005 132.987,14.005 Z" id="Shape"></path>
                    <path d="M149.065,24.6157 L148.537,22.895 L148.441,22.895 C147.865,23.6598 147.241,24.1856 146.617,24.4245 C145.993,24.6635 145.225,24.8547 144.265,24.8547 C143.066,24.8547 142.106,24.5201 141.386,23.851 C140.666,23.1818 140.378,22.2736 140.378,21.0787 C140.378,19.7881 140.858,18.8321 141.818,18.2107 C142.778,17.5894 144.217,17.207 146.185,17.1592 L148.345,17.1114 L148.345,16.4422 C148.345,15.6296 148.153,15.056 147.769,14.6736 C147.385,14.2913 146.809,14.1001 146.041,14.1001 C145.417,14.1001 144.793,14.1957 144.217,14.3869 C143.641,14.5781 143.066,14.817 142.538,15.056 L141.674,13.1919 C142.346,12.8573 143.066,12.5705 143.881,12.3793 C144.697,12.1881 145.417,12.0925 146.137,12.0925 C147.721,12.0925 148.921,12.4271 149.736,13.1441 C150.552,13.8611 150.936,14.9126 150.936,16.3944 L150.936,24.6157 L149.065,24.6157 Z M145.129,22.7994 C146.089,22.7994 146.857,22.5126 147.433,21.9868 C148.009,21.461 148.297,20.6963 148.297,19.7403 L148.297,18.6887 L146.713,18.7365 C145.465,18.7843 144.553,18.9755 143.977,19.3579 C143.401,19.7403 143.114,20.3139 143.114,21.0787 C143.114,21.6522 143.257,22.0824 143.593,22.3692 C143.929,22.656 144.505,22.7994 145.129,22.7994 Z" id="Shape"></path>
                    <path d="M160.967,11.9974 C161.495,11.9974 161.927,12.0452 162.262,12.093 L162.022,14.5308 C161.639,14.4352 161.255,14.3874 160.871,14.3874 C159.815,14.3874 158.951,14.722 158.279,15.4389 C157.607,16.1559 157.271,17.0163 157.271,18.1156 L157.271,24.6162 L154.632,24.6162 L154.632,12.2364 L156.695,12.2364 L157.031,14.4352 L157.175,14.4352 C157.607,13.7182 158.135,13.0968 158.807,12.6666 C159.479,12.2364 160.199,11.9974 160.967,11.9974 Z" id="Path"></path>
                    <path d="M169.606,24.8072 C167.734,24.8072 166.294,24.2814 165.334,23.1821 C164.374,22.0827 163.847,20.5053 163.847,18.45 C163.847,16.3469 164.374,14.7695 165.382,13.6223 C166.39,12.4752 167.878,11.9494 169.798,11.9494 C171.093,11.9494 172.293,12.1884 173.349,12.6664 L172.533,14.7695 C171.429,14.3393 170.518,14.1003 169.75,14.1003 C167.59,14.1003 166.534,15.5343 166.534,18.3544 C166.534,19.7406 166.822,20.7921 167.35,21.5091 C167.878,22.2261 168.694,22.5607 169.702,22.5607 C170.901,22.5607 172.005,22.2739 173.061,21.7003 L173.061,23.9946 C172.581,24.2814 172.101,24.4726 171.525,24.5682 C170.949,24.6638 170.374,24.8072 169.606,24.8072 Z" id="Path"></path>
                    <path d="M186.931,24.616 L184.291,24.616 L184.291,16.9682 C184.291,16.0123 184.099,15.2953 183.715,14.8173 C183.331,14.3393 182.707,14.1003 181.891,14.1003 C180.788,14.1003 179.972,14.4349 179.444,15.1041 C178.916,15.7733 178.676,16.8727 178.676,18.4022 L178.676,24.616 L176.036,24.616 L176.036,7.16956 L178.676,7.16956 L178.676,11.6148 C178.676,12.3318 178.628,13.0966 178.532,13.9091 L178.724,13.9091 C179.108,13.3356 179.588,12.8576 180.212,12.523 C180.836,12.1884 181.604,12.045 182.467,12.045 C185.491,12.045 186.979,13.5746 186.979,16.5859 L186.979,24.616 L186.931,24.616 Z" id="Path"></path>
                    <path d="M16.3654,24.8552 L0.863864,24.8552 C0.287954,23.0389 1.46461e-06,21.1269 1.46461e-06,19.1194 C1.46461e-06,17.1119 0.287954,15.1999 0.863864,13.3836 L16.3654,13.3836 L26.3959,13.3836 C29.5634,13.3836 32.107,15.9647 32.107,19.1194 C32.107,22.2741 29.5634,24.8552 26.3959,24.8552 L16.3654,24.8552 Z M15.6456,26.7672 L1.58375,26.7672 C3.07152,30.1609 5.51914,33.0766 8.63865,35.0841 C11.6622,37.0916 15.3096,38.2388 19.197,38.2388 C25.868,38.2388 31.723,34.8451 35.1785,29.7307 C33.4028,27.9143 30.9072,26.7672 28.1716,26.7672 L15.6456,26.7672 Z M28.1236,11.4716 C30.8592,11.4716 33.3548,10.3245 35.1305,8.50814 C31.675,3.3937 25.82,0 19.149,0 C15.2616,0 11.6142,1.14716 8.59066,3.1547 C5.51914,5.16224 3.07152,8.07795 1.53576,11.4716 L15.5976,11.4716 L28.1236,11.4716 Z" id="Shape"></path>
                </g>
            </g>
        </g>
    </g>
</svg>