<?xml version="1.0" encoding="UTF-8"?>
<svg width="47px" height="43px" viewBox="0 0 47 43" version="1.1" xmlns="http://www.w3.org/2000/svg" xmlns:xlink="http://www.w3.org/1999/xlink">
    <!-- Generator: Sketch Beta 57 (83077) - https://sketch.com -->
    <title>logo</title>
    <desc>Created with Sketch Beta.</desc>
    <defs>
        <polygon id="path-1" points="0 0.207189182 46.0487686 0.207189182 46.0487686 16.1852593 0 16.1852593"></polygon>
        <polygon id="path-3" points="0 0.0323613031 46.0485851 0.0323613031 46.0485851 16.2673333 0 16.2673333"></polygon>
    </defs>
    <g id="logo" stroke="none" stroke-width="1" fill="none" fill-rule="evenodd">
        <g id="Group-23" transform="translate(0.000000, 20.000000)">
            <mask id="mask-2" fill="white">
                <use xlink:href="#path-1"></use>
            </mask>
            <g id="Clip-22"></g>
            <path d="M1.04962963,16.1852593 C0.603703704,16.1852593 0.19037037,15.8993333 0.0488888889,15.4511852 C-0.125925926,14.8985926 0.180740741,14.308963 0.734074074,14.1341481 L44.6822222,0.25637037 C45.2348148,0.0815555556 45.8244444,0.387481481 46,0.940814815 C46.1740741,1.49414815 45.8674074,2.08377778 45.3148148,2.25859259 L1.36592593,16.1363704 C1.26074074,16.1697037 1.15481481,16.1852593 1.04962963,16.1852593" id="Fill-21" fill="#7ED321" mask="url(#mask-2)"></path>
        </g>
        <g id="Group-40">
            <mask id="mask-4" fill="white">
                <use xlink:href="#path-3"></use>
            </mask>
            <g id="Clip-39"></g>
            <path d="M1.04962963,16.2673333 C0.605925926,16.2673333 0.194074074,15.9836296 0.0503703704,15.5391852 C-0.126666667,14.9865926 0.176296296,14.3954815 0.728148148,14.2177037 L44.677037,0.0828888889 C45.2296296,-0.0941481481 45.82,0.208814815 45.9977778,0.760666667 C46.1755556,1.31251852 45.8718519,1.90362963 45.32,2.08140741 L1.37185185,16.216963 C1.26444444,16.251037 1.1562963,16.2673333 1.04962963,16.2673333" id="Fill-38" fill="#0094FF" mask="url(#mask-4)"></path>
        </g>
        <path d="M27.5213333,42.962963 C27.2813333,42.962963 27.0405926,42.8814815 26.8435556,42.7148148 C26.4005926,42.34 26.3457778,41.6777778 26.7198519,41.2348148 L44.1968889,20.5792593 C44.5717037,20.1355556 45.2339259,20.0814815 45.6768889,20.4555556 C46.1191111,20.8303704 46.1746667,21.4925926 45.7998519,21.9355556 L28.3235556,42.5911111 C28.1154074,42.8362963 27.8191111,42.962963 27.5213333,42.962963" id="Fill-24" fill="#0094FF"></path>
        <path d="M44.9985185,22.3071852 C44.4185185,22.3071852 43.9488889,21.8368148 43.9488889,21.2575556 L43.9488889,1.082 C43.9488889,0.502 44.4185185,0.0323703704 44.9985185,0.0323703704 C45.5785185,0.0323703704 46.0481481,0.502 46.0481481,1.082 L46.0481481,21.2575556 C46.0481481,21.8368148 45.5785185,22.3071852 44.9985185,22.3071852" id="Fill-26" fill="#7ED321"></path>
        <path d="M27.5231852,42.962963 C27.4728148,42.962963 27.4224444,42.9592593 27.3713333,42.9518519 C9.6817037,40.3888889 0.957259259,36.2555556 0.594296296,36.0807407 C0.0720740741,35.8296296 -0.146444444,35.202963 0.103925926,34.6807407 C0.355037037,34.1577778 0.983185185,33.9385185 1.50466667,34.1888889 C1.59133333,34.2303704 10.3424444,38.3637037 27.6720741,40.8740741 C28.2461481,40.957037 28.6439259,41.4896296 28.560963,42.0637037 C28.4846667,42.5866667 28.0357778,42.962963 27.5231852,42.962963" id="Fill-28" fill="#FF0000"></path>
        <path d="M27.5217037,42.962963 C26.9417037,42.962963 26.4720741,42.4925926 26.4720741,41.9133333 L26.4720741,21.9955556 C26.4720741,21.4162963 26.9417037,20.9459259 27.5217037,20.9459259 C28.1017037,20.9459259 28.5713333,21.4162963 28.5713333,21.9955556 L28.5713333,41.9133333 C28.5713333,42.4925926 28.1017037,42.962963 27.5217037,42.962963" id="Fill-30" fill="#9013FE"></path>
        <path d="M27.520963,23.0772593 C27.2831852,23.0772593 27.0446667,22.9972593 26.8476296,22.8320741 C26.4031852,22.4602222 26.3446667,21.798 26.7165185,21.3535556 L44.1935556,0.46762963 C44.5646667,0.0231851852 45.2261481,-0.0368148148 45.6720741,0.336518519 C46.1165185,0.70837037 46.1757778,1.37059259 45.8039259,1.81503704 L28.3268889,22.700963 C28.1194815,22.9491111 27.820963,23.0772593 27.520963,23.0772593" id="Fill-32" fill="#FF00B8"></path>
        <path d="M1.05,36.1852593 C0.47,36.1852593 0.00037037037,35.7148889 0.00037037037,35.1356296 L0.00037037037,15.2171111 C0.00037037037,14.6378519 0.47,14.1674815 1.05,14.1674815 C1.63,14.1674815 2.09962963,14.6378519 2.09962963,15.2171111 L2.09962963,35.1356296 C2.09962963,35.7148889 1.63,36.1852593 1.05,36.1852593" id="Fill-34" fill="#FF00B8"></path>
        <path d="M27.5231852,23.0772593 C27.4728148,23.0772593 27.4224444,23.0735556 27.3713333,23.0661481 C9.67948148,20.5031852 0.954296296,16.338 0.592074074,16.1617037 C0.0698518519,15.9091111 -0.147185185,15.2817037 0.105407407,14.7594815 C0.358,14.238 0.98762963,14.0202222 1.50762963,14.2728148 C1.5942963,14.3142963 10.3446667,18.478 27.6720741,20.9883704 C28.2461481,21.0713333 28.6439259,21.6039259 28.560963,22.178 C28.4846667,22.700963 28.0357778,23.0772593 27.5231852,23.0772593" id="Fill-36" fill="#FF0000"></path>
    </g>
</svg>