<?xml version="1.0" encoding="UTF-8"?>
<svg width="149px" height="23px" viewBox="0 0 149 23" version="1.1" xmlns="http://www.w3.org/2000/svg" xmlns:xlink="http://www.w3.org/1999/xlink">
    <!-- Generator: Sketch Beta 57 (83077) - https://sketch.com -->
    <title>logo-text</title>
    <desc>Created with Sketch Beta.</desc>
    <defs>
        <polygon id="path-1" points="0.491259259 0.582962963 19.1771852 0.582962963 19.1771852 21.657037 0.491259259 21.657037"></polygon>
        <polygon id="path-3" points="0.174296296 0.471415829 10.3459259 0.471415829 10.3459259 16.0501481 0.174296296 16.0501481"></polygon>
    </defs>
    <g id="logo-text" stroke="none" stroke-width="1" fill="none" fill-rule="evenodd">
        <g id="Group-3">
            <mask id="mask-2" fill="white">
                <use xlink:href="#path-1"></use>
            </mask>
            <g id="Clip-2"></g>
            <path d="M19.0364444,15.2785185 C18.5305185,16.9644444 17.7438519,18.5096296 16.0579259,19.8585185 C14.3438519,21.2074074 12.2927407,21.657037 10.0445926,21.657037 C7.06607407,21.657037 4.48162963,20.477037 2.82385185,18.3414815 C1.19422222,16.2340741 0.491259259,13.7896296 0.491259259,11.12 C0.491259259,8.33777778 1.13718519,5.83703704 2.7957037,3.84222222 C4.59348148,1.65111111 7.12311111,0.582962963 10.0445926,0.582962963 C12.3771852,0.582962963 14.372,1.06074074 16.0297778,2.40888889 C17.8564444,3.87037037 18.7275556,5.58444444 19.1771852,7.5237037 L15.3557037,8.05703704 C15.1586667,7.38296296 14.8497778,6.7362963 14.4282963,6.20296296 C13.4171852,4.85407407 12.0401481,4.20740741 10.2979259,4.18 C8.5557037,4.15185185 6.86977778,4.85407407 5.88681481,6.20296296 C4.84681481,7.5237037 4.48162963,9.34962963 4.50977778,11.12 C4.53718519,12.8903704 4.84681481,14.6888889 5.88681481,16.037037 C6.86977778,17.3859259 8.5557037,18.0325926 10.2979259,18.06 C12.0401481,18.0881481 13.4171852,17.3859259 14.4282963,16.037037 C14.7934815,15.5311111 15.1023704,14.9696296 15.2994074,14.3518519 L19.0364444,15.2785185 Z" id="Fill-1" fill="#FFFFFF" mask="url(#mask-2)"></path>
        </g>
        <path d="M30.5186667,10.4737778 C29.9008889,9.63081481 28.8608889,9.20933333 27.7371852,9.20933333 C26.6134815,9.20933333 25.5734815,9.63081481 24.954963,10.4737778 C24.309037,11.3167407 24.112,12.4967407 24.112,13.6485926 C24.112,14.8011852 24.309037,15.953037 24.954963,16.796 C25.5734815,17.638963 26.6134815,18.0885926 27.7371852,18.0885926 C28.8608889,18.0885926 29.9008889,17.638963 30.5186667,16.796 C31.1653333,15.953037 31.3897778,14.8011852 31.3897778,13.6485926 C31.3897778,12.4967407 31.1653333,11.3167407 30.5186667,10.4737778 M21.9208889,19.1278519 C20.6275556,17.5545185 20.0660741,15.7278519 20.0660741,13.6485926 C20.0660741,11.513037 20.712,9.63081481 21.9208889,8.16933333 C23.3253333,6.51155556 25.5171852,5.64044444 27.7371852,5.64044444 C29.9845926,5.64044444 32.1482963,6.48340741 33.5534815,8.16933333 C34.9016296,9.77081481 35.4364444,11.5974815 35.4364444,13.6485926 C35.4364444,15.8122963 34.8460741,17.5263704 33.5534815,19.1278519 C32.1201481,20.8137778 30.0127407,21.6567407 27.7371852,21.6567407 C25.489037,21.6567407 23.3253333,20.7856296 21.9208889,19.1278519" id="Fill-4" fill="#FFFFFF"></path>
        <path d="M51.667037,13.9019259 L51.667037,21.2352593 L47.7892593,21.2352593 L47.7892593,14.0708148 C47.7892593,12.4967407 47.5648148,10.9234074 46.7774074,10.0804444 C46.2440741,9.49007407 45.4292593,9.18118519 44.3892593,9.20933333 C43.687037,9.23748148 43.0966667,9.43377778 42.5914815,9.79896296 C42.0292593,10.2211852 41.6359259,10.8952593 41.467037,11.7382222 C41.327037,12.4122963 41.2981481,13.593037 41.2981481,14.6322963 L41.2981481,21.2352593 L37.4492593,21.2352593 L37.4492593,6.06266667 L40.8211111,6.06266667 L40.8211111,7.636 C40.8774074,7.5797037 40.9611111,7.49525926 41.0174074,7.41081481 C42.0011111,6.23081481 43.5462963,5.72488889 44.9233333,5.64044444 C46.7218519,5.52859259 48.5485185,5.83748148 50.0092593,7.27007407 C51.667037,8.90044444 51.667037,11.5411852 51.667037,13.9019259" id="Fill-6" fill="#FFFFFF"></path>
        <path d="M58.9622963,14.5760741 C58.9622963,15.7560741 58.906,16.7397778 59.2711852,17.302 C59.6363704,17.8916296 60.283037,18.1168148 60.8726667,18.1723704 C61.603037,18.2286667 62.5304444,18.1723704 63.3452593,18.0605185 L63.3452593,21.2353333 C62.1652593,21.5723704 60.0297037,21.544963 58.906,21.3479259 C57.5008148,21.0953333 56.6304444,20.6457037 55.8148889,19.4368148 C54.9719259,18.2012593 55.1408148,16.6271852 55.1408148,14.8012593 L55.1408148,9.01237037 L52.5556296,9.01237037 L52.5556296,6.062 L55.1408148,6.062 L55.1408148,1.84718519 L58.9622963,1.84718519 L58.9622963,6.062 L63.3452593,6.062 L63.3452593,9.01237037 L58.9622963,9.01237037 L58.9622963,14.5760741 Z" id="Fill-8" fill="#FFFFFF"></path>
        <path d="M68.8704444,10.1928148 C68.4771111,10.6987407 68.2800741,11.2046667 68.1400741,11.7661481 L74.9119259,11.7661481 C74.8556296,11.1483704 74.6867407,10.5861481 74.2934074,10.0802222 C73.703037,9.3217037 72.6637778,8.95651852 71.6237778,8.95651852 C70.6408148,8.95651852 69.628963,9.23725926 68.8704444,10.1928148 M68.8422963,16.7957778 C69.4600741,17.6387407 70.5000741,18.0883704 71.6237778,18.0883704 C72.523037,18.0883704 73.2252593,17.8631852 73.7874815,17.4142963 C74.3497037,16.9646667 74.6022963,16.5431852 74.7711852,16.178 L78.5926667,17.2735556 C78.0867407,18.5098519 77.1311852,19.6898519 75.9511852,20.4491111 C74.7711852,21.2076296 73.2534074,21.6572593 71.848963,21.6572593 C69.5445185,21.6572593 67.1845185,20.7861481 65.8074815,19.1283704 C64.5711852,17.6105926 63.9526667,15.7846667 63.9526667,13.8454074 C63.9526667,11.6542963 64.5993333,9.63059259 65.8074815,8.16985185 C67.2126667,6.51207407 69.3763704,5.64022222 71.6237778,5.64022222 C73.8719259,5.64022222 75.6422963,6.37133333 77.0474815,8.02911111 C78.5645185,9.79948148 78.9297037,12.0757778 78.7326667,14.7165185 L68.0556296,14.7165185 C68.1682222,15.475037 68.3926667,16.2061481 68.8422963,16.7957778" id="Fill-10" fill="#FFFFFF"></path>
        <path d="M102.606667,11.9911111 L102.606667,21.2355556 L98.7288889,21.2355556 L98.7288889,12.2718519 C98.7288889,11.1762963 98.5325926,10.5014815 97.9985185,9.91185185 C97.5207407,9.37777778 96.7903704,9.09703704 96.06,9.09703704 C95.3288889,9.09703704 94.5985185,9.40592593 94.1207407,9.94 C93.5311111,10.6140741 93.4185185,11.2888889 93.4185185,12.0474074 L93.4185185,21.2355556 L89.5407407,21.2355556 L89.5407407,12.2718519 C89.5407407,11.1762963 89.3437037,10.5014815 88.8103704,9.91185185 C88.3325926,9.37777778 87.6022222,9.09703704 86.8711111,9.09703704 C86.1407407,9.09703704 85.4103704,9.40592593 84.9325926,9.94 C84.3422222,10.6140741 84.2296296,11.2888889 84.2296296,12.0474074 L84.2296296,21.2355556 L80.3807407,21.2355556 L80.3807407,6.06222222 L83.7525926,6.06222222 L83.7525926,7.69185185 C84.82,6.42740741 86.4496296,5.69703704 88.1355556,5.69703704 C89.4,5.69703704 91.0014815,6.09037037 91.957037,7.10148148 C92.2377778,7.41111111 92.4911111,7.72 92.66,8.02888889 C93.7274074,6.56814815 95.4696296,5.69703704 97.3244444,5.69703704 C98.5888889,5.69703704 100.19037,6.09037037 101.145185,7.10148148 C102.466667,8.47851852 102.606667,10.0518519 102.606667,11.9911111" id="Fill-12" fill="#FFFFFF"></path>
        <path d="M115.887259,13.6487407 C115.887259,12.3561481 115.606519,11.1761481 115.072444,10.3894815 C114.425778,9.40577778 113.442815,9.04059259 112.17837,9.04059259 C111.13837,9.04059259 110.239111,9.37762963 109.621333,10.1087407 C108.890963,10.950963 108.553926,12.2724444 108.553926,13.6487407 C108.553926,15.0257778 108.890963,16.3746667 109.621333,17.1894815 C110.295407,17.9198519 111.222815,18.2568889 112.319111,18.2568889 C113.386519,18.2568889 114.482815,17.8917037 115.128741,16.908 C115.662815,16.1213333 115.887259,14.9413333 115.887259,13.6487407 M119.933185,13.6487407 C119.933185,15.728 119.455407,17.6672593 118.163556,19.2405926 C116.926519,20.7857778 114.931704,21.6568889 112.936889,21.6568889 C111.250963,21.6568889 109.733185,21.2072593 108.553926,20.308 L108.553926,21.2354074 L105.181333,21.2354074 L105.181333,1.0042963 L109.030963,1.0042963 L109.030963,6.68059259 C110.099111,6.03392593 111.391704,5.64059259 112.739852,5.64059259 C114.848,5.64059259 116.870963,6.45540741 118.163556,8.05762963 C119.343556,9.54651852 119.933185,11.5413333 119.933185,13.6487407" id="Fill-14" fill="#FFFFFF"></path>
        <path d="M126.020667,10.1928148 C125.627333,10.6987407 125.430296,11.2046667 125.290296,11.7661481 L132.062148,11.7661481 C132.005852,11.1483704 131.836963,10.5861481 131.44363,10.0802222 C130.853259,9.3217037 129.814,8.95651852 128.774,8.95651852 C127.791037,8.95651852 126.779185,9.23725926 126.020667,10.1928148 M125.992519,16.7957778 C126.610296,17.6387407 127.650296,18.0883704 128.774,18.0883704 C129.673259,18.0883704 130.375481,17.8631852 130.937704,17.4142963 C131.499926,16.9646667 131.752519,16.5431852 131.921407,16.178 L135.742889,17.2735556 C135.236963,18.5098519 134.281407,19.6898519 133.101407,20.4491111 C131.921407,21.2076296 130.40363,21.6572593 128.999185,21.6572593 C126.694741,21.6572593 124.334741,20.7861481 122.957704,19.1283704 C121.721407,17.6105926 121.10363,15.7846667 121.10363,13.8454074 C121.10363,11.6542963 121.749556,9.63059259 122.957704,8.16985185 C124.362889,6.51207407 126.526593,5.64022222 128.774,5.64022222 C131.022148,5.64022222 132.792519,6.37133333 134.197704,8.02911111 C135.714741,9.79948148 136.079926,12.0757778 135.882889,14.7165185 L125.205852,14.7165185 C125.318444,15.475037 125.542889,16.2061481 125.992519,16.7957778" id="Fill-16" fill="#FFFFFF"></path>
        <g id="Group-20" transform="translate(137.777778, 5.185185)">
            <mask id="mask-4" fill="white">
                <use xlink:href="#path-3"></use>
            </mask>
            <g id="Clip-19"></g>
            <path d="M10.3461481,0.904962963 L10.3461481,4.4457037 C9.55948148,4.13681481 8.51948148,3.96792593 7.42392593,4.05237037 C6.32837037,4.13681481 5.54096296,4.53014815 5.00688889,5.09162963 C4.33281481,5.82274074 4.02392593,6.83385185 4.02392593,7.95755556 L4.02392593,16.0501481 L0.174296296,16.0501481 L0.174296296,0.876814815 L3.54614815,0.876814815 L3.54614815,2.95681481 C3.93948148,2.282 4.47355556,1.69162963 5.17651852,1.27014815 C5.99059259,0.764962963 6.918,0.539777778 7.81725926,0.483481481 C8.63207407,0.427185185 9.50318519,0.567925926 10.3461481,0.904962963" id="Fill-18" fill="#FFFFFF" mask="url(#mask-4)"></path>
        </g>
    </g>
</svg>