<?xml version="1.0" encoding="UTF-8"?>
<svg width="910px" height="1446px" viewBox="0 0 910 1446" version="1.1" xmlns="http://www.w3.org/2000/svg" xmlns:xlink="http://www.w3.org/1999/xlink">
    <!-- Generator: Sketch Beta 57 (83077) - https://sketch.com -->
    <title>mesh-1</title>
    <desc>Created with Sketch Beta.</desc>
    <g id="Page-1" stroke="none" stroke-width="1" fill="none" fill-rule="evenodd" stroke-linecap="round">
        <g id="00-home" transform="translate(-530.000000, 0.000000)" stroke-width="4">
            <g id="mesh-1" transform="translate(531.000000, -81.000000)">
                <path d="M297.493867,7 L297.351781,1257.42233" id="Line-2" stroke="#FF0000" stroke-linejoin="round" transform="translate(297.493867, 632.500000) rotate(-345.000000) translate(-297.493867, -632.500000) "></path>
                <path d="M415.422361,543.968169 L415.806945,1385.31529" id="Line-2-Copy" stroke="#9013FE" stroke-linejoin="round" transform="translate(415.422361, 964.968169) rotate(-345.000000) translate(-415.422361, -964.968169) "></path>
                <path d="M147.540647,209.112599 L146.851869,1335.49991" id="Line-2-Copy-2" stroke="#0094FF" stroke-linejoin="round" transform="translate(147.540647, 772.612599) rotate(-345.000000) translate(-147.540647, -772.612599) "></path>
                <path d="M440.67475,1008.71008 L354.70535,1388.68643" id="Line-2-Copy-4" stroke="#0094FF" stroke-linejoin="round" transform="translate(397.674750, 1198.710084) rotate(-345.000000) translate(-397.674750, -1198.710084) "></path>
                <path d="M687,185.091846 L687,1548.09185" id="Line-2-Copy-3" stroke="#FF00B8" stroke-linejoin="round" transform="translate(687.000000, 866.591846) rotate(-345.000000) translate(-687.000000, -866.591846) "></path>
                <path d="M511,1524.8703 L923.863245,1458.58622" id="Line-20" stroke="#7ED321" stroke-linejoin="round"></path>
                <path d="M549,1023.09185 L463,561.091846" id="Line-3" stroke="#FF0000" stroke-linejoin="round" transform="translate(506.000000, 792.091846) rotate(-345.000000) translate(-506.000000, -792.091846) "></path>
                <path d="M563,522.091846 L254,263.091846" id="Line-4" stroke="#7ED321" stroke-linejoin="round" transform="translate(408.500000, 392.591846) rotate(-345.000000) translate(-408.500000, -392.591846) "></path>
                <path d="M306,301.091846 L851,134.091846" id="Line-5" stroke="#9013FE" stroke-linejoin="round" transform="translate(578.500000, 217.591846) rotate(-345.000000) translate(-578.500000, -217.591846) "></path>
                <path d="M812,170.091846 L575,596.091846" id="Line-6" stroke="#7ED321" stroke-linejoin="round" transform="translate(693.500000, 383.091846) rotate(-345.000000) translate(-693.500000, -383.091846) "></path>
                <path d="M566,537.091846 L365.665563,244.757755" id="Line-7" stroke="#7ED321" stroke-linejoin="round" transform="translate(465.500000, 390.591846) rotate(-345.000000) translate(-465.500000, -390.591846) "></path>
                <path d="M880,152.091846 L442.665653,83.0918463" id="Line-8" stroke="#FF0000" transform="translate(661.000000, 117.591846) rotate(-345.000000) translate(-661.000000, -117.591846) "></path>
                <path d="M430.335366,10.0918463 L322,246.091846" id="Line-9" stroke="#FF0000" stroke-linejoin="round" transform="translate(376.500000, 128.091846) rotate(-345.000000) translate(-376.500000, -128.091846) "></path>
                <path d="M193,266.091846 L588,988.091846" id="Line-10" stroke="#0094FF" stroke-linejoin="round" transform="translate(390.500000, 627.091846) rotate(-345.000000) translate(-390.500000, -627.091846) "></path>
                <path d="M442,969.091846 L47,1375.09185" id="Line-11" stroke="#FF00B8" stroke-linejoin="round" transform="translate(244.500000, 1172.091846) rotate(-345.000000) translate(-244.500000, -1172.091846) "></path>
                <path d="M488.385179,1026.90783 L909,1026.34993" id="Line-23" stroke="#7ED321" stroke-linejoin="round"></path>
                <path d="M120,1346.09185 L228.335366,416.757082" id="Line-12" stroke="#0094FF" stroke-linejoin="round" transform="translate(174.500000, 881.091846) rotate(-345.000000) translate(-174.500000, -881.091846) "></path>
                <path d="M601,1062.09185 L751,172.758014" id="Line-13" stroke="#FF00B8" stroke-linejoin="round" transform="translate(676.000000, 617.091846) rotate(-345.000000) translate(-676.000000, -617.091846) "></path>
                <path d="M424.864237,1038.8891 L573.824017,1507.80786" id="Line-14" stroke="#0094FF" stroke-linejoin="round" transform="translate(499.364237, 1273.389100) rotate(-345.000000) translate(-499.364237, -1273.389100) "></path>
                <path d="M335.665563,470.762059 L536,533.091846" id="Line-15" stroke="#9013FE" stroke-linejoin="round" transform="translate(435.500000, 501.591846) rotate(-345.000000) translate(-435.500000, -501.591846) "></path>
                <path d="M864.075807,207.534172 L919,1106.09185" id="Line-16" stroke="#7ED321" stroke-linejoin="round"></path>
                <path d="M864,207.976498 L812.5,65.5918463" id="Line-17" stroke="#9013FE" stroke-linejoin="round"></path>
                <path d="M864,208.270192 L918.924193,81.0918463" id="Line-18" stroke="#FF00B8" stroke-linejoin="round"></path>
                <path d="M863.669447,208.270192 L919,239.591846" id="Line-19" stroke="#0094FF" stroke-linejoin="round"></path>
                <path d="M511,1524.8703 L909,1026.3134" id="Line-21" stroke="#FF00B8" stroke-linejoin="round"></path>
                <path d="M511,1524.8703 L135.614821,1236.09185" id="Line-22" stroke="#7ED321" stroke-linejoin="round"></path>
                <path d="M1.50618649,1317.05803 L511,1524.8703" id="Line-24" stroke="#7ED321" stroke-linejoin="round"></path>
                <path d="M307,1371.09185 L1.50618649,1317.05803" id="Line-25" stroke="#9013FE" stroke-linejoin="round"></path>
                <path d="M487.747611,1027.59748 L909,1458.58622" id="Line-26" stroke="#0094FF" stroke-linejoin="round"></path>
            </g>
        </g>
    </g>
</svg>