<?xml version="1.0" encoding="UTF-8"?>
<svg width="468px" height="797px" viewBox="0 0 468 797" version="1.1" xmlns="http://www.w3.org/2000/svg" xmlns:xlink="http://www.w3.org/1999/xlink">
    <!-- Generator: Sketch Beta 57 (83077) - https://sketch.com -->
    <title>mesh-5</title>
    <desc>Created with Sketch Beta.</desc>
    <g id="Page-1" stroke="none" stroke-width="1" fill="none" fill-rule="evenodd" stroke-linecap="round" stroke-linejoin="round">
        <g id="mesh-5" transform="translate(-186.000000, -17.000000)">
            <g id="Group-Copy" transform="translate(436.500000, 425.000000) rotate(-96.000000) translate(-436.500000, -425.000000) translate(51.000000, 27.000000)">
                <path d="M495.964197,164.161727 L672.852614,555.92999" id="Line-2-Copy-5" stroke="#9013FE" stroke-width="4" transform="translate(584.408405, 360.045859) rotate(-570.000000) translate(-584.408405, -360.045859) "></path>
                <path d="M449.026151,219.413388 L467.6576,378.140671" id="Line-2-Copy-6" stroke="#0094FF" stroke-width="4" transform="translate(458.341875, 298.777030) rotate(-570.000000) translate(-458.341875, -298.777030) "></path>
                <path d="M341.467798,133.313161 L625.663788,766.860223" id="Line-2-Copy-7" stroke="#FF00B8" stroke-width="4" transform="translate(483.565793, 450.086692) rotate(-570.000000) translate(-483.565793, -450.086692) "></path>
                <path d="M-10.4959515,275.769617 L213.702698,335.431147" id="Line-20-Copy" stroke="#7ED321" stroke-width="4" transform="translate(101.603373, 305.600382) rotate(-225.000000) translate(-101.603373, -305.600382) "></path>
                <path d="M659.912325,214.735115 L466.355325,321.258895" id="Line-11-Copy" stroke="#FF00B8" stroke-width="4" transform="translate(563.133825, 267.997005) rotate(-570.000000) translate(-563.133825, -267.997005) "></path>
                <path d="M254.166892,180.828515 L456.840749,429.814178" id="Line-14-Copy" stroke="#0094FF" stroke-width="4" transform="translate(355.503821, 305.321347) rotate(-570.000000) translate(-355.503821, -305.321347) "></path>
                <path d="M174.710417,453.412132 L287.553193,257.891634" id="Line-21-Copy" stroke="#FF00B8" stroke-width="4" transform="translate(231.131805, 355.651883) rotate(-225.000000) translate(-231.131805, -355.651883) "></path>
                <path d="M539.407817,365.904438 L250.810757,106.072609" id="Line-22-Copy" stroke="#7ED321" stroke-width="4" transform="translate(395.109287, 235.988523) rotate(-225.000000) translate(-395.109287, -235.988523) "></path>
                <path d="M235.558262,87.7439281 L584.975477,333.606313" id="Line-24-Copy" stroke="#7ED321" stroke-width="4" transform="translate(410.266869, 210.675120) rotate(-225.000000) translate(-410.266869, -210.675120) "></path>
                <path d="M612.641472,256.895144 L420.098421,151.798395" id="Line-25-Copy" stroke="#9013FE" stroke-width="4" transform="translate(516.369946, 204.346770) rotate(-225.000000) translate(-516.369946, -204.346770) "></path>
                <path d="M73.7966809,185.109432 L432.246995,541.557231" id="Line-26-Copy" stroke="#7ED321" stroke-width="4" transform="translate(253.021838, 363.333331) rotate(-225.000000) translate(-253.021838, -363.333331) "></path>
                <path d="M1.37645008,363.985554 L261.500643,465.046545" id="Line-27" stroke="#0094FF" stroke-width="4"></path>
                <path d="M259.976788,464.930237 L507.021359,364.18211" id="Line-28" stroke="#0094FF" stroke-width="4"></path>
                <path d="M262.182249,464.263718 L766.123857,652.168801" id="Line-29" stroke="#7ED321" stroke-width="4"></path>
                <path d="M763.792484,653.913009 L767.350442,486.10388" id="Line-30" stroke="#9013FE" stroke-width="5"></path>
                <path d="M766.01226,486.744227 L621.581854,174.570613" id="Line-31" stroke="#FF00B8" stroke-width="4"></path>
                <path d="M588.878951,226.481403 L764.966172,485.766406" id="Line-32" stroke="#FF0000" stroke-width="4"></path>
                <path d="M508.580365,361.051807 L767.687192,485.908466" id="Line-33" stroke="#0094FF" stroke-width="4"></path>
                <path d="M412.438123,399.904867 L765.589291,486.044232" id="Line-34" stroke="#9013FE" stroke-width="5"></path>
                <path d="M410.570006,401.584343 L229.465903,361.322704" id="Line-35" stroke="#0094FF" stroke-width="4"></path>
            </g>
        </g>
    </g>
</svg>