<?xml version="1.0" encoding="UTF-8"?>
<svg width="457px" height="277px" viewBox="0 0 457 277" version="1.1" xmlns="http://www.w3.org/2000/svg" xmlns:xlink="http://www.w3.org/1999/xlink">
    <!-- Generator: Sketch Beta 57 (83077) - https://sketch.com -->
    <title>mesh-4</title>
    <desc>Created with Sketch Beta.</desc>
    <g id="Page-1" stroke="none" stroke-width="1" fill="none" fill-rule="evenodd" stroke-linecap="round" stroke-linejoin="round">
        <g id="mesh-4" transform="translate(-95.000000, -72.000000)">
            <g id="Group" transform="translate(276.500000, 208.000000) rotate(-79.000000) translate(-276.500000, -208.000000) translate(114.000000, -42.000000)">
                <path d="M244.131856,87.6035122 L245.012712,360.252579" id="Line-2-Copy-5" stroke="#9013FE" stroke-width="2" transform="translate(244.572284, 223.928046) rotate(-570.000000) translate(-244.572284, -223.928046) "></path>
                <path d="M208.924811,104.84921 L181.202757,227.873386" id="Line-2-Copy-6" stroke="#0094FF" stroke-width="2" transform="translate(195.063784, 166.361298) rotate(-570.000000) translate(-195.063784, -166.361298) "></path>
                <path d="M204.749434,87.8513508 L205.189869,529.205231" id="Line-2-Copy-7" stroke="#FF00B8" stroke-width="2" transform="translate(204.969651, 308.528291) rotate(-570.000000) translate(-204.969651, -308.528291) "></path>
                <path d="M-11.5515748,183.551962 L121.484419,161.992755" id="Line-20-Copy" stroke="#7ED321" stroke-width="2" transform="translate(54.966422, 172.772359) rotate(-225.000000) translate(-54.966422, -172.772359) "></path>
                <path d="M300.067283,71.7623273 L172.367496,203.119896" id="Line-11-Copy" stroke="#FF00B8" stroke-width="2" transform="translate(236.217390, 137.441112) rotate(-570.000000) translate(-236.217390, -137.441112) "></path>
                <path d="M130.506015,96.5559434 L178.848997,248.464424" id="Line-14-Copy" stroke="#0094FF" stroke-width="2" transform="translate(154.677506, 172.510184) rotate(-570.000000) translate(-154.677506, -172.510184) "></path>
                <path d="M41.5189963,300.349528 L170.149946,139.249612" id="Line-21-Copy" stroke="#FF00B8" stroke-width="2" transform="translate(105.834471, 219.799570) rotate(-225.000000) translate(-105.834471, -219.799570) "></path>
                <path d="M230.83241,154.454284 L109.630102,60.2791092" id="Line-22-Copy" stroke="#7ED321" stroke-width="2" transform="translate(170.231256, 107.366697) rotate(-225.000000) translate(-170.231256, -107.366697) "></path>
                <path d="M93.4153393,49.4630983 L258.952461,117.702541" id="Line-24-Copy" stroke="#7ED321" stroke-width="2" transform="translate(176.183900, 83.582820) rotate(-225.000000) translate(-176.183900, -83.582820) "></path>
                <path d="M267.6151,86.3182998 L168.089716,68.9554009" id="Line-25-Copy" stroke="#9013FE" stroke-width="4" transform="translate(217.852408, 77.636850) rotate(-225.000000) translate(-217.852408, -77.636850) "></path>
                <path d="M47.9305692,155.397627 L184.302052,295.012366" id="Line-26-Copy" stroke="#0094FF" stroke-width="2" transform="translate(116.116311, 225.204997) rotate(-225.000000) translate(-116.116311, -225.204997) "></path>
                <path d="M18.9618892,228.029363 L117.993601,322.792451" id="Line-27" stroke="#0094FF" stroke-width="2"></path>
                <path d="M117.081507,322.792451 L214.134732,228.029363" id="Line-28" stroke="#0094FF" stroke-width="2"></path>
                <path d="M118.074717,321.871385 L316.087136,498.840192" id="Line-29" stroke="#FF0000" stroke-width="2"></path>
                <path d="M315.155601,499.839771 L315.155601,341.998222" id="Line-30" stroke="#9013FE" stroke-width="2"></path>
                <path d="M316.077416,341.916647 L258.886853,48.6928685" id="Line-31" stroke="#FF00B8" stroke-width="2"></path>
                <path d="M246.174973,98.4241683 L312.950218,341.916742" id="Line-32" stroke="#FF0000" stroke-width="2"></path>
                <path d="M214.221886,223.996396 L316.084494,341.916575" id="Line-33" stroke="#0094FF" stroke-width="2"></path>
                <path d="M176.808256,262.540541 L315.090647,341.916632" id="Line-34" stroke="#9013FE" stroke-width="2"></path>
                <path d="M176.727843,262.458333 L105.47377,224.160677" id="Line-35" stroke="#0094FF" stroke-width="2"></path>
            </g>
        </g>
    </g>
</svg>