<?xml version="1.0" encoding="UTF-8"?>
<svg width="135px" height="38px" viewBox="0 0 135 38" version="1.1" xmlns="http://www.w3.org/2000/svg" xmlns:xlink="http://www.w3.org/1999/xlink">
    <!-- Generator: Sketch Beta 57 (83077) - https://sketch.com -->
    <title>mongodb</title>
    <desc>Created with Sketch Beta.</desc>
    <g id="Page-1" stroke="none" stroke-width="1" fill="none" fill-rule="evenodd">
        <g id="00-home" transform="translate(-855.000000, -4285.000000)" fill="#FFFFFF" fill-rule="nonzero">
            <g id="Group-3" transform="translate(298.000000, 4280.000000)">
                <g id="mongodb" transform="translate(557.000000, 5.000000)">
                    <path d="M9.99745,36.88 L9.00448,36.5524 C9.00448,36.5524 9.13104,31.5456 7.31869,31.1951 C6.12347,29.8153 7.50252,-27.74 11.8444,30.9977 C11.8444,30.9977 10.3583,31.7413 10.077,33.0037 C9.79581,34.2669 9.99745,36.88 9.99745,36.88 Z" id="Path"></path>
                    <path d="M10.5328,32.0449 C10.5328,32.0449 19.1609,26.3832 17.1395,14.625 C15.1928,6.08242 10.5969,3.27432 10.1029,2.202 C9.55928,1.44334 9.01166,0.0986144 9.01166,0.0986144 L9.37864,23.9004 C9.37864,23.9004 8.61942,31.1682 10.5328,32.0449 Z" id="Path"></path>
                    <polyline id="Path" points="8.49037 32.3636 8.49037 32.3567 8.47664 32.3567 8.47664 32.3499 8.46978 32.3499 8.46978 32.3431 8.45605 32.3431 8.45605 32.3362 8.44919 32.3362 8.44919 32.3294 8.44232 32.3294 8.44232 32.3226 8.4286 32.3226 8.4286 32.3157 8.42173 32.3157 8.42173 32.3089 8.40801 32.3089 8.40801 32.302 8.40114 32.302 8.40114 32.2952 8.39428 32.2952 8.39428 32.2884 8.38056 32.2884 8.38056 32.2815 8.37369 32.2815 8.37369 32.2747 8.36683 32.2747 8.36683 32.2679 8.3531 32.2679 8.3531 32.261 8.34624 32.261 8.34624 32.2542 8.33938 32.2542 8.33938 32.2473 8.32565 32.2473 8.32565 32.2405 8.31879 32.2405 8.31879 32.2337 8.30506 32.2337 8.30506 32.2268 8.2982 32.2268 8.2982 32.22 8.29133 32.22 8.29133 32.2132 8.27761 32.2132 8.27761 32.2063 8.27074 32.2063 8.27074 32.1995 8.26388 32.1995 8.26388 32.1926 8.25015 32.1926 8.25015 32.1858 8.24329 32.1858 8.24329 32.179 8.23643 32.179 8.23643 32.1721 8.2227 32.1721 8.2227 32.1653 8.21584 32.1653 8.21584 32.1585 8.20897 32.1585 8.20897 32.1516 8.20211 32.1516 8.20211 32.1448 8.18838 32.1448 8.18838 32.1379 8.18152 32.1379 8.18152 32.1311 8.17466 32.1311 8.17466 32.1243 8.16093 32.1243 8.16093 32.1174 8.15407 32.1174 8.15407 32.1106 8.1472 32.1106 8.1472 32.1037 8.13348 32.1037 8.13348 32.0969 8.12661 32.0969 8.12661 32.0901 8.11975 32.0901 8.11975 32.0832 8.11289 32.0832 8.11289 32.0764 8.09916 32.0764 8.09916 32.0696 8.0923 32.0696 8.0923 32.0627 8.08544 32.0627 8.08544 32.0559 8.07171 32.0559 8.07171 32.049 8.06485 32.049 8.06485 32.0422 8.05798 32.0422 8.05798 32.0354 8.05112 32.0354 8.05112 32.0285 8.03739 32.0285 8.03739 32.0217 8.03053 32.0217 8.03053 32.0149 8.02367 32.0149 8.02367 32.008 8.0168 32.008 8.0168 32.0012 8.00308 32.0012 8.00308 31.9943 7.99621 31.9943 7.99621 31.9875 7.98935 31.9875 7.98935 31.9807 7.98249 31.9807 7.98249 31.9738 7.96876 31.9738 7.96876 31.967 7.9619 31.967 7.9619 31.9602 7.95503 31.9602 7.95503 31.9533 7.94817 31.9533 7.94817 31.9465 7.93444 31.9465 7.93444 31.9396 7.92758 31.9396 7.92758 31.9328 7.92072 31.9328 7.92072 31.926 7.91385 31.926 7.91385 31.9191 7.90013 31.9191 7.90013 31.9123 7.89326 31.9123 7.89326 31.9055 7.8864 31.9055 7.8864 31.8986 7.87954 31.8986 7.87954 31.8918 7.86581 31.8918 7.86581 31.8849 7.85895 31.8849 7.85895 31.8781 7.85208 31.8781 7.85208 31.8713 7.84522 31.8713 7.84522 31.8644 7.83149 31.8644 7.83149 31.8576 7.82463 31.8576 7.82463 31.8507 7.81777 31.8507 7.81777 31.8439 7.81091 31.8439 7.81091 31.8371 7.80404 31.8371 7.80404 31.8302 7.79032 31.8302 7.79032 31.8234 7.78345 31.8234 7.78345 31.8166 7.77659 31.8166 7.77659 31.8097 7.76973 31.8097 7.76973 31.8029 7.756 31.8029 7.756 31.796 7.74914 31.796 7.74914 31.7892 7.74227 31.7892 7.74227 31.7824 7.73541 31.7824 7.73541 31.7755 7.72855 31.7755 7.72855 31.7687 7.71482 31.7687 7.71482 31.7619 7.70796 31.7619 7.70796 31.755 7.70109 31.755 7.70109 31.7482 7.69423 31.7482 7.69423 31.7413 7.68737 31.7413 7.68737 31.7345 7.67364 31.7345 7.67364 31.7277 7.66678 31.7277 7.66678 31.7208 7.65991 31.7208 7.65991 31.714 7.65305 31.714 7.65305 31.7072 7.64619 31.7072 7.64619 31.7003 7.63246 31.7003 7.63246 31.6935 7.6256 31.6935 7.6256 31.6866 7.61873 31.6866 7.61873 31.6798 7.61187 31.6798 7.61187 31.673 7.60501 31.673 7.60501 31.6661 7.59814 31.6661 7.59814 31.6593 7.58442 31.6593 7.58442 31.6524 7.57755 31.6524 7.57755 31.6456 7.57069 31.6456 7.57069 31.6388 7.56383 31.6388 7.56383 31.6319 7.55696 31.6319 7.55696 31.6251 7.54324 31.6251 7.54324 31.6183 7.53637 31.6183 7.53637 31.6114 7.52951 31.6114 7.52951 31.6046 7.52265 31.6046 7.52265 31.5977 7.51578 31.5977 7.51578 31.5909 7.50892 31.5909 7.50892 31.5841 7.4952 31.5841 7.4952 31.5772 7.48833 31.5772 7.48833 31.5704 7.48147 31.5704 7.48147 31.5636 7.47461 31.5636 7.47461 31.5567 7.46774 31.5567 7.46774 31.5499 7.46088 31.5499 7.46088 31.543 7.45402 31.543 7.45402 31.5362 7.44029 31.5362 7.44029 31.5294 7.43343 31.5294 7.43343 31.5225 7.42656 31.5225 7.42656 31.5157 7.4197 31.5157 7.4197 31.5089 7.41284 31.5089 7.41284 31.502 7.40597 31.502 7.40597 31.4952 7.39225 31.4952 7.39225 31.4883 7.38538 31.4883 7.38538 31.4815 7.37852 31.4815 7.37852 31.4747 7.37166 31.4747 7.37166 31.4678 7.36479 31.4678 7.36479 31.461 7.35793 31.461 7.35793 31.4542 7.35107 31.4542 7.35107 31.4473 7.33734 31.4473 7.33734 31.4405 7.33048 31.4405 7.33048 31.4336 7.32361 31.4336 7.32361 31.4268 7.31675 31.4268 7.31675 31.42 7.30989 31.42 7.30989 31.4131 7.30302 31.4131 7.30302 31.4063 7.29616 31.4063 7.29616 31.3994 7.2893 31.3994 7.2893 31.3926 7.27557 31.3926 7.27557 31.3858 7.26871 31.3858 7.26871 31.3789 7.26184 31.3789 7.26184 31.3721 7.25498 31.3721 7.25498 31.3653 7.24812 31.3653 7.24812 31.3584 7.24125 31.3584 7.24125 31.3516 7.23439 31.3516 7.23439 31.3447 7.22753 31.3447 7.22753 31.3379 7.2138 31.3379 7.2138 31.3311 7.20694 31.3311 7.20694 31.3242 7.20007 31.3242 7.20007 31.3174 7.19321 31.3174 7.19321 31.3106 7.18635 31.3106 7.18635 31.3037 7.17949 31.3037 7.17949 31.2969 7.17262 31.2969 7.17262 31.29 7.16576 31.29 7.16576 31.2832 7.1589 31.2832 7.1589 31.2764 7.14517 31.2764 7.14517 31.2695 7.13831 31.2695 7.13831 31.2627 7.13144 31.2627 7.13144 31.2559 7.12458 31.2559 7.12458 31.249 7.11772 31.249 7.11772 31.2422 7.11085 31.2422 7.11085 31.2353 7.10399 31.2353 7.10399 31.2285 7.09713 31.2285 7.09713 31.2217 7.09026 31.2217 7.09026 31.2148 7.07654 31.2148 7.07654 31.208 7.06967 31.208 7.06967 31.2012 7.06281 31.2012 7.06281 31.1943 7.05595 31.1943 7.05595 31.1875 7.04908 31.1875 7.04908 31.1806 7.04222 31.1806 7.04222 31.1738 7.03536 31.1738 7.03536 31.167 7.02849 31.167 7.02849 31.1601 7.02163 31.1601 7.02163 31.1533 7.01477 31.1533 7.01477 31.1464 7.0079 31.1464 7.0079 31.1396 6.99418 31.1396 6.99418 31.1328 6.98731 31.1328 6.98731 31.1259 6.98045 31.1259 6.98045 31.1191 6.97359 31.1191 6.97359 31.1123 6.96672 31.1123 6.96672 31.1054 6.95986 31.1054 6.95986 31.0986 6.953 31.0986 6.953 31.0917 6.94613 31.0917 6.94613 31.0849 6.93927 31.0849 6.93927 31.0781 6.93241 31.0781 6.93241 31.0712 6.92554 31.0712 6.92554 31.0644 6.91868 31.0644 6.91868 31.0576 6.91182 31.0576 6.91182 31.0507 6.89809 31.0507 6.89809 31.0439 6.89123 31.0439 6.89123 31.037 6.88437 31.037 6.88437 31.0302 6.8775 31.0302 6.8775 31.0234 6.87064 31.0234 6.87064 31.0165 6.86378 31.0165 6.86378 31.0097 6.85691 31.0097 6.85691 31.0029 6.85005 31.0029 6.85005 30.996 6.84319 30.996 6.84319 30.9892 6.83632 30.9892 6.83632 30.9823 6.82946 30.9823 6.82946 30.9755 6.8226 30.9755 6.8226 30.9687 6.81573 30.9687 6.81573 30.9618 6.80887 30.9618 6.80887 30.955 6.80201 30.955 6.80201 30.9482 6.78828 30.9482 6.78828 30.9413 6.78142 30.9413 6.78142 30.9345 6.77455 30.9345 6.77455 30.9276 6.76769 30.9276 6.76769 30.9208 6.76083 30.9208 6.76083 30.914 6.75396 30.914 6.75396 30.9071 6.7471 30.9071 6.7471 30.9003 6.74024 30.9003 6.74024 30.8934 6.73337 30.8934 6.73337 30.8866 6.72651 30.8866 6.72651 30.8798 6.71965 30.8798 6.71965 30.8729 6.71278 30.8729 6.71278 30.8661 6.70592 30.8661 6.70592 30.8593 6.69906 30.8593 6.69906 30.8524 6.69219 30.8524 6.69219 30.8456 6.68533 30.8456 6.68533 30.8387 6.67847 30.8387 6.67847 30.8319 6.6716 30.8319 6.6716 30.8251 6.66474 30.8251 6.66474 30.8182 6.65788 30.8182 6.65788 30.8114 6.65101 30.8114 6.65101 30.8046 6.64415 30.8046 6.64415 30.7977 6.63729 30.7977 6.63729 30.7909 6.62356 30.7909 6.62356 30.784 6.6167 30.784 6.6167 30.7772 6.60983 30.7772 6.60983 30.7704 6.60297 30.7704 6.60297 30.7635 6.59611 30.7635 6.59611 30.7567 6.58925 30.7567 6.58925 30.7499 6.58238 30.7499 6.58238 30.743 6.57552 30.743 6.57552 30.7362 6.56866 30.7362 6.56866 30.7293 6.56179 30.7293 6.56179 30.7225 6.55493 30.7225 6.55493 30.7157 6.54807 30.7157 6.54807 30.7088 6.5412 30.7088 6.5412 30.702 6.53434 30.702 6.53434 30.6952 6.52748 30.6952 6.52748 30.6883 6.52061 30.6883 6.52061 30.6815 6.51375 30.6815 6.51375 30.6746 6.50689 30.6746 6.50689 30.6678 6.50002 30.6678 6.50002 30.661 6.49316 30.661 6.49316 30.6541 6.4863 30.6541 6.4863 30.6473 6.47943 30.6473 6.47943 30.6404 6.47257 30.6404 6.47257 30.6336 6.46571 30.6336 6.46571 30.6268 6.45884 30.6268 6.45884 30.6199 6.45198 30.6199 6.45198 30.6131 6.44512 30.6131 6.44512 30.6063 6.43825 30.6063 6.43825 30.5994 6.43139 30.5994 6.43139 30.5926 6.42453 30.5926 6.42453 30.5857 6.41766 30.5857 6.41766 30.5789 6.4108 30.5789 6.4108 30.5721 6.40394 30.5721 6.40394 30.5652 6.39707 30.5652 6.39707 30.5584 6.39021 30.5584 6.39021 30.5516 6.38335 30.5516 6.38335 30.5447 6.37648 30.5447 6.37648 30.5379 6.36962 30.5379 6.36962 30.531 6.36276 30.531 6.36276 30.5242 6.35589 30.5242 6.35589 30.5174 6.34903 30.5174 6.34903 30.5105 6.34217 30.5105 6.34217 30.5037 6.3353 30.5037 6.3353 30.4969 6.32844 30.4969 6.32844 30.49 6.32158 30.49 6.32158 30.4832 6.31471 30.4832 6.31471 30.4763 6.30785 30.4763 6.30785 30.4695 6.30099 30.4695 6.30099 30.4627 6.29413 30.4627 6.29413 30.4558 6.28726 30.4558 6.28726 30.449 6.2804 30.449 6.2804 30.4421 6.27354 30.4421 6.27354 30.4353 6.26667 30.4353 6.26667 30.4285 6.25981 30.4285 6.25981 30.4216 6.25295 30.4216 6.25295 30.4148 6.24608 30.4148 6.24608 30.408 6.23922 30.408 6.23922 30.4011 6.23236 30.4011 6.23236 30.3943 6.22549 30.3943 6.22549 30.3874 6.21863 30.3874 6.21863 30.3806 6.21177 30.3806 6.21177 30.3738 6.2049 30.3738 6.2049 30.3669 6.19804 30.3669 6.19804 30.3601 6.19118 30.3601 6.19118 30.3533 6.18431 30.3533 6.18431 30.3464 6.17745 30.3464 6.17745 30.3396 6.17059 30.3396 6.17059 30.3259 6.16372 30.3259 6.16372 30.3191 6.15686 30.3191 6.15686 30.3122 6.15 30.3122 6.15 30.3054 6.14313 30.3054 6.14313 30.2986 6.13627 30.2986 6.13627 30.2917 6.12941 30.2917 6.12941 30.2849 6.12254 30.2849 6.12254 30.278 6.11568 30.278 6.11568 30.2712 6.10882 30.2712 6.10882 30.2644 6.10195 30.2644 6.10195 30.2575 6.09509 30.2575 6.09509 30.2507 6.08823 30.2507 6.08823 30.2439 6.08136 30.2439 6.08136 30.237 6.0745 30.237 6.0745 30.2302 6.06764 30.2302 6.06764 30.2233 6.06077 30.2233 6.06077 30.2165 6.05391 30.2165 6.05391 30.2097 6.04705 30.2097 6.04705 30.2028 6.04018 30.2028 6.04018 30.196 6.03332 30.196 6.03332 30.1891 6.02646 30.1891 6.02646 30.1823 6.0196 30.1823 6.0196 30.1755 6.01273 30.1755 6.01273 30.1618 6.00587 30.1618 6.00587 30.155 5.99901 30.155 5.99901 30.1481 5.99214 30.1481 5.99214 30.1413 5.98528 30.1413 5.98528 30.1344 5.97842 30.1344 5.97842 30.1276 5.97155 30.1276 5.97155 30.1208 5.96469 30.1208 5.96469 30.1139 5.95783 30.1139 5.95783 30.1071 5.95096 30.1071 5.95096 30.1003 5.9441 30.1003 5.9441 30.0934 5.93724 30.0934 5.93724 30.0866 5.93037 30.0866 5.93037 30.0797 5.92351 30.0797 5.92351 30.0729 5.91665 30.0729 5.91665 30.0661 5.90978 30.0661 5.90978 30.0592 5.90292 30.0592 5.90292 30.0456 5.89606 30.0456 5.89606 30.0387 5.88919 30.0387 5.88919 30.0319 5.88233 30.0319 5.88233 30.025 5.87547 30.025 5.87547 30.0182 5.8686 30.0182 5.8686 30.0114 5.86174 30.0114 5.86174 30.0045 5.85488 30.0045 5.85488 29.9977 5.84801 29.9977 5.84801 29.9909 5.84115 29.9909 5.84115 29.984 5.83429 29.984 5.83429 29.9772 5.82742 29.9772 5.82742 29.9703 5.82056 29.9703 5.82056 29.9635 5.8137 29.9635 5.8137 29.9567 5.80683 29.9567 5.80683 29.943 5.79997 29.943 5.79997 29.9361 5.79311 29.9361 5.79311 29.9293 5.78624 29.9293 5.78624 29.9225 5.77938 29.9225 5.77938 29.9156 5.77252 29.9156 5.77252 29.9088 5.76565 29.9088 5.76565 29.902 5.75879 29.902 5.75879 29.8951 5.75193 29.8951 5.75193 29.8883 5.74506 29.8883 5.74506 29.8814 5.7382 29.8814 5.7382 29.8678 5.73134 29.8678 5.73134 29.8609 5.72447 29.8609 5.72447 29.8541 5.71761 29.8541 5.71761 29.8473 5.71075 29.8473 5.71075 29.8404 5.70389 29.8404 5.70389 29.8336 5.69702 29.8336 5.69702 29.8267 5.69016 29.8267 5.69016 29.8199 5.6833 29.8199 5.6833 29.8131 5.67643 29.8131 5.67643 29.8062 5.66957 29.8062 5.66957 29.7926 5.66271 29.7926 5.66271 29.7857 5.65584 29.7857 5.65584 29.7789 5.64898 29.7789 5.64898 29.772 5.64212 29.772 5.64212 29.7652 5.63525 29.7652 5.63525 29.7584 5.62839 29.7584 5.62839 29.7515 5.62153 29.7515 5.62153 29.7447 5.61466 29.7447 5.61466 29.7379 5.6078 29.7379 5.6078 29.731 5.60094 29.731 5.60094 29.7173 5.59407 29.7173 5.59407 29.7105 5.58721 29.7105 5.58721 29.7037 5.58035 29.7037 5.58035 29.6968 5.57348 29.6968 5.57348 29.69 5.56662 29.69 5.56662 29.6831 5.55976 29.6831 5.55976 29.6763 5.55289 29.6763 5.55289 29.6695 5.54603 29.6695 5.54603 29.6558 5.53917 29.6558 5.53917 29.649 5.5323 29.649 5.5323 29.6421 5.52544 29.6421 5.52544 29.6353 5.51858 29.6353 5.51858 29.6284 5.51171 29.6284 5.51171 29.6216 5.50485 29.6216 5.50485 29.6148 5.49799 29.6148 5.49799 29.6011 5.49112 29.6011 5.49112 29.5943 5.48426 29.5943 5.48426 29.5874 5.4774 29.5874 5.4774 29.5806 5.47053 29.5806 5.47053 29.5737 5.46367 29.5737 5.46367 29.5669 5.45681 29.5669 5.45681 29.5601 5.44994 29.5601 5.44994 29.5532 5.44308 29.5532 5.44308 29.5396 5.43622 29.5396 5.43622 29.5327 5.42935 29.5327 5.42935 29.5259 5.42249 29.5259 5.42249 29.519 5.41563 29.519 5.41563 29.5122 5.40876 29.5122 5.40876 29.5054 5.4019 29.5054 5.4019 29.4985 5.39504 29.4985 5.39504 29.4849 5.38818 29.4849 5.38818 29.478 5.38131 29.478 5.38131 29.4712 5.37445 29.4712 5.37445 29.4643 5.36759 29.4643 5.36759 29.4575 5.36072 29.4575 5.36072 29.4507 5.35386 29.4507 5.35386 29.437 5.347 29.437 5.347 29.4301 5.34013 29.4301 5.34013 29.4233 5.33327 29.4233 5.33327 29.4165 5.32641 29.4165 5.32641 29.4096 5.31954 29.4096 5.31954 29.4028 5.31268 29.4028 5.31268 29.3891 5.30582 29.3891 5.30582 29.3823 5.29895 29.3823 5.29895 29.3754 5.29209 29.3754 5.29209 29.3686 5.28523 29.3686 5.28523 29.3618 5.27836 29.3618 5.27836 29.3549 5.2715 29.3549 5.2715 29.3413 5.26464 29.3413 5.26464 29.3344 5.25777 29.3344 5.25777 29.3276 5.25091 29.3276 5.25091 29.3207 5.24405 29.3207 5.24405 29.3139 5.23718 29.3139 5.23718 29.3071 5.23032 29.3071 5.23032 29.2934 5.22346 29.2934 5.22346 29.2866 5.21659 29.2866 5.21659 29.2797 5.20973 29.2797 5.20973 29.2729 5.20287 29.2729 5.20287 29.266 5.196 29.266 5.196 29.2524 5.18914 29.2524 5.18914 29.2455 5.18228 29.2455 5.18228 29.2387 5.17541 29.2387 5.17541 29.2318 5.16855 29.2318 5.16855 29.225 5.16169 29.225 5.16169 29.2182 5.15482 29.2182 5.15482 29.2045 5.14796 29.2045 5.14796 29.1977 5.1411 29.1977 5.1411 29.1908 5.13423 29.1908 5.13423 29.184 5.12737 29.184 5.12737 29.1771 5.12051 29.1771 5.12051 29.1635 5.11364 29.1635 5.11364 29.1566 5.10678 29.1566 5.10678 29.1498 5.09992 29.1498 5.09992 29.143 5.09306 29.143 5.09306 29.1361 5.08619 29.1361 5.08619 29.1224 5.07933 29.1224 5.07933 29.1156 5.07247 29.1156 5.07247 29.1088 5.0656 29.1088 5.0656 29.1019 5.05874 29.1019 5.05874 29.0951 5.05188 29.0951 5.05188 29.0814 5.04501 29.0814 5.04501 29.0746 5.03815 29.0746 5.03815 29.0677 5.03129 29.0677 5.03129 29.0609 5.02442 29.0609 5.02442 29.0472 5.01756 29.0472 5.01756 29.0404 5.0107 29.0404 5.0107 29.0336 5.00383 29.0336 5.00383 29.0267 4.99697 29.0267 4.99697 29.0199 4.99011 29.0199 4.99011 29.0062 4.98324 29.0062 4.98324 28.9994 4.97638 28.9994 4.97638 28.9925 4.96952 28.9925 4.96952 28.9857 4.96265 28.9857 4.96265 28.972 4.95579 28.972 4.95579 28.9652 4.94893 28.9652 4.94893 28.9583 4.94206 28.9583 4.94206 28.9515 4.9352 28.9515 4.9352 28.9447 4.92834 28.9447 4.92834 28.931 4.92147 28.931 4.92147 28.9241 4.91461 28.9241 4.91461 28.9173 4.90775 28.9173 4.90775 28.9105 4.90088 28.9105 4.90088 28.8968 4.89402 28.8968 4.89402 28.89 4.88716 28.89 4.88716 28.8831 4.88029 28.8831 4.88029 28.8763 4.87343 28.8763 4.87343 28.8626 4.86657 28.8626 4.86657 28.8558 4.8597 28.8558 4.8597 28.8489 4.85284 28.8489 4.85284 28.8421 4.84598 28.8421 4.84598 28.8284 4.83911 28.8284 4.83911 28.8216 4.83225 28.8216 4.83225 28.8147 4.82539 28.8147 4.82539 28.8079 4.81852 28.8079 4.81852 28.7942 4.81166 28.7942 4.81166 28.7874 4.8048 28.7874 4.8048 28.7806 4.79794 28.7806 4.79794 28.7737 4.79107 28.7737 4.79107 28.76 4.78421 28.76 4.78421 28.7532 4.77735 28.7532 4.77735 28.7464 4.77048 28.7464 4.77048 28.7327 4.76362 28.7327 4.76362 28.7258 4.75676 28.7258 4.75676 28.719 4.74989 28.719 4.74989 28.7122 4.74303 28.7122 4.74303 28.6985 4.73617 28.6985 4.73617 28.6917 4.7293 28.6917 4.7293 28.6848 4.72244 28.6848 4.72244 28.678 4.71558 28.678 4.71558 28.6643 4.70871 28.6643 4.70871 28.6575 4.70185 28.6575 4.70185 28.6506 4.69499 28.6506 4.69499 28.6438 4.68812 28.6438 4.68812 28.6301 4.68126 28.6301 4.68126 28.6233 4.6744 28.6233 4.6744 28.6164 4.66753 28.6164 4.66753 28.6028 4.66067 28.6028 4.66067 28.5959 4.65381 28.5959 4.65381 28.5891 4.64694 28.5891 4.64694 28.5754 4.64008 28.5754 4.64008 28.5686 4.63322 28.5686 4.63322 28.5617 4.62635 28.5617 4.62635 28.5549 4.61949 28.5549 4.61949 28.5412 4.61263 28.5412 4.61263 28.5344 4.60576 28.5344 4.60576 28.5276 4.5989 28.5276 4.5989 28.5139 4.59204 28.5139 4.59204 28.507 4.58517 28.507 4.58517 28.5002 4.57831 28.5002 4.57831 28.4865 4.57145 28.4865 4.57145 28.4797 4.56458 28.4797 4.56458 28.4728 4.55772 28.4728 4.55772 28.466 4.55086 28.466 4.55086 28.4523 4.54399 28.4523 4.54399 28.4455 4.53713 28.4455 4.53713 28.4387 4.53027 28.4387 4.53027 28.425 4.5234 28.425 4.5234 28.4181 4.51654 28.4181 4.51654 28.4113 4.50968 28.4113 4.50968 28.3976 4.50282 28.3976 4.50282 28.3908 4.49595 28.3908 4.49595 28.384 4.48909 28.384 4.48909 28.3703 4.48223 28.3703 4.48223 28.3634 4.47536 28.3634 4.47536 28.3566 4.4685 28.3566 4.4685 28.3429 4.46164 28.3429 4.46164 28.3361 4.45477 28.3361 4.45477 28.3293 4.44791 28.3293 4.44791 28.3156 4.44105 28.3156 4.44105 28.3087 4.43418 28.3087 4.43418 28.3019 4.42732 28.3019 4.42732 28.2882 4.42046 28.2882 4.42046 28.2814 4.41359 28.2814 4.41359 28.2746 4.40673 28.2746 4.40673 28.2609 4.39987 28.2609 4.39987 28.254 4.393 28.254 4.393 28.2472 4.38614 28.2472 4.38614 28.2335 4.37928 28.2335 4.37928 28.2267 4.37241 28.2267 4.37241 28.2198 4.36555 28.2198 4.36555 28.2062 4.35869 28.2062 4.35869 28.1993 4.35182 28.1993 4.35182 28.1925 4.34496 28.1925 4.34496 28.1788 4.3381 28.1788 4.3381 28.172 4.33123 28.172 4.33123 28.1651 4.32437 28.1651 4.32437 28.1515 4.31751 28.1515 4.31751 28.1446 4.31064 28.1446 4.31064 28.131 4.30378 28.131 4.30378 28.1241 4.29692 28.1241 4.29692 28.1173 4.29005 28.1173 4.29005 28.1036 4.28319 28.1036 4.28319 28.0968 4.27633 28.0968 4.27633 28.0831 4.26946 28.0831 4.26946 28.0763 4.2626 28.0763 4.2626 28.0694 4.25574 28.0694 4.25574 28.0557 4.24887 28.0557 4.24887 28.0489 4.24201 28.0489 4.24201 28.0421 4.23515 28.0421 4.23515 28.0284 4.22828 28.0284 4.22828 28.0215 4.22142 28.0215 4.22142 28.0079 4.21456 28.0079 4.21456 28.001 4.2077 28.001 4.2077 27.9942 4.20083 27.9942 4.20083 27.9805 4.19397 27.9805 4.19397 27.9737 4.18711 27.9737 4.18711 27.96 4.18024 27.96 4.18024 27.9532 4.17338 27.9532 4.17338 27.9463 4.16652 27.9463 4.16652 27.9327 4.15965 27.9327 4.15965 27.9258 4.15279 27.9258 4.15279 27.9121 4.14593 27.9121 4.14593 27.9053 4.13906 27.9053 4.13906 27.8985 4.1322 27.8985 4.1322 27.8848 4.12534 27.8848 4.12534 27.878 4.11847 27.878 4.11847 27.8643 4.11161 27.8643 4.11161 27.8574 4.10475 27.8574 4.10475 27.8506 4.09788 27.8506 4.09788 27.8369 4.09102 27.8369 4.09102 27.8301 4.08416 27.8301 4.08416 27.8164 4.07729 27.8164 4.07729 27.8096 4.07043 27.8096 4.07043 27.7959 4.06357 27.7959 4.06357 27.7891 4.0567 27.7891 4.0567 27.7754 4.04984 27.7754 4.04984 27.7685 4.04298 27.7685 4.04298 27.7617 4.03611 27.7617 4.03611 27.748 4.02925 27.748 4.02925 27.7412 4.02239 27.7412 4.02239 27.7275 4.01552 27.7275 4.01552 27.7207 4.00866 27.7207 4.00866 27.707 4.0018 27.707 4.0018 27.7002 3.99493 27.7002 3.99493 27.6933 3.98807 27.6933 3.98807 27.6797 3.98121 27.6797 3.98121 27.6728 3.97434 27.6728 3.97434 27.6591 3.96748 27.6591 3.96748 27.6523 3.96062 27.6523 3.96062 27.6386 3.95375 27.6386 3.95375 27.6318 3.94689 27.6318 3.94689 27.6181 3.94003 27.6181 3.94003 27.6113 3.93316 27.6113 3.93316 27.5976 3.9263 27.5976 3.9263 27.5908 3.91944 27.5908 3.91944 27.5771 3.91258 27.5771 3.91258 27.5703 3.90571 27.5703 3.90571 27.5566 3.89885 27.5566 3.89885 27.5497 3.89199 27.5497 3.89199 27.5429 3.88512 27.5429 3.88512 27.5292 3.87826 27.5292 3.87826 27.5224 3.8714 27.5224 3.8714 27.5087 3.86453 27.5087 3.86453 27.5019 3.85767 27.5019 3.85767 27.4882 3.85081 27.4882 3.85081 27.4814 3.84394 27.4814 3.84394 27.4677 3.83708 27.4677 3.83708 27.4608 3.83022 27.4608 3.83022 27.4472 3.82335 27.4472 3.82335 27.4403 3.81649 27.4403 3.81649 27.4267 3.80963 27.4267 3.80963 27.4198 3.80276 27.4198 3.80276 27.4061 3.7959 27.4061 3.7959 27.3993 3.78904 27.3993 3.78904 27.3856 3.78217 27.3856 3.78217 27.3788 3.77531 27.3788 3.77531 27.3651 3.76845 27.3651 3.76845 27.3583 3.76158 27.3583 3.76158 27.3446 3.75472 27.3446 3.75472 27.3378 3.74786 27.3378 3.74786 27.3241 3.74099 27.3241 3.74099 27.3173 3.73413 27.3173 3.73413 27.3036 3.72727 27.3036 3.72727 27.2899 3.7204 27.2899 3.7204 27.2831 3.71354 27.2831 3.71354 27.2694 3.70668 27.2694 3.70668 27.2625 3.69981 27.2625 3.69981 27.2489 3.69295 27.2489 3.69295 27.242 3.68609 27.242 3.68609 27.2284 3.67922 27.2284 3.67922 27.2215 3.67236 27.2215 3.67236 27.2078 3.6655 27.2078 3.6655 27.201 3.65863 27.201 3.65863 27.1873 3.65177 27.1873 3.65177 27.1805 3.64491 27.1805 3.64491 27.1668 3.63804 27.1668 3.63804 27.1531 3.63118 27.1531 3.63118 27.1463 3.62432 27.1463 3.62432 27.1326 3.61746 27.1326 3.61746 27.1258 3.61059 27.1258 3.61059 27.1121 3.60373 27.1121 3.60373 27.1053 3.59687 27.1053 3.59687 27.0916 3.59 27.0916 3.59 27.0848 3.58314 27.0848 3.58314 27.0711 3.57628 27.0711 3.57628 27.0574 3.56941 27.0574 3.56941 27.0506 3.56255 27.0506 3.56255 27.0369 3.55569 27.0369 3.55569 27.0301 3.54882 27.0301 3.54882 27.0164 3.54196 27.0164 3.54196 27.0027 3.5351 27.0027 3.5351 26.9959 3.52823 26.9959 3.52823 26.9822 3.52137 26.9822 3.52137 26.9754 3.51451 26.9754 3.51451 26.9617 3.50764 26.9617 3.50764 26.948 3.50078 26.948 3.50078 26.9412 3.49392 26.9412 3.49392 26.9275 3.48705 26.9275 3.48705 26.9207 3.48019 26.9207 3.48019 26.907 3.47333 26.907 3.47333 26.8933 3.46646 26.8933 3.46646 26.8865 3.4596 26.8865 3.4596 26.8728 3.45274 26.8728 3.45274 26.866 3.44587 26.866 3.44587 26.8523 3.43901 26.8523 3.43901 26.8386 3.43215 26.8386 3.43215 26.8318 3.42528 26.8318 3.42528 26.8181 3.41842 26.8181 3.41842 26.8112 3.41156 26.8112 3.41156 26.7976 3.40469 26.7976 3.40469 26.7839 3.39783 26.7839 3.39783 26.7771 3.39097 26.7771 3.39097 26.7634 3.3841 26.7634 3.3841 26.7497 3.37724 26.7497 3.37724 26.7429 3.37038 26.7429 3.37038 26.7292 3.36351 26.7292 3.36351 26.7155 3.35665 26.7155 3.35665 26.7087 3.34979 26.7087 3.34979 26.695 3.34292 26.695 3.34292 26.6813 3.33606 26.6813 3.33606 26.6745 3.3292 26.6745 3.3292 26.6608 3.32233 26.6608 3.32233 26.6471 3.31547 26.6471 3.31547 26.6403 3.30861 26.6403 3.30861 26.6266 3.30175 26.6266 3.30175 26.613 3.29488 26.613 3.29488 26.6061 3.28802 26.6061 3.28802 26.5924 3.28116 26.5924 3.28116 26.5788 3.27429 26.5788 3.27429 26.5719 3.26743 26.5719 3.26743 26.5582 3.26057 26.5582 3.26057 26.5446 3.2537 26.5446 3.2537 26.5377 3.24684 26.5377 3.24684 26.5241 3.23998 26.5241 3.23998 26.5104 3.23311 26.5104 3.23311 26.4967 3.22625 26.4967 3.22625 26.4899 3.21939 26.4899 3.21939 26.4762 3.21252 26.4762 3.21252 26.4625 3.20566 26.4625 3.20566 26.4557 3.1988 26.4557 3.1988 26.442 3.19193 26.442 3.19193 26.4283 3.18507 26.4283 3.18507 26.4147 3.17821 26.4147 3.17821 26.4078 3.17134 26.4078 3.17134 26.3941 3.16448 26.3941 3.16448 26.3805 3.15762 26.3805 3.15762 26.3668 3.15075 26.3668 3.15075 26.36 3.14389 26.36 3.14389 26.3463 3.13703 26.3463 3.13703 26.3326 3.13016 26.3326 3.13016 26.3189 3.1233 26.3189 3.1233 26.3121 3.11644 26.3121 3.11644 26.2984 3.10957 26.2984 3.10957 26.2847 3.10271 26.2847 3.10271 26.2779 3.09585 26.2779 3.09585 26.2642 3.08898 26.2642 3.08898 26.2505 3.08212 26.2505 3.08212 26.2369 3.07526 26.2369 3.07526 26.23 3.06839 26.23 3.06839 26.2164 3.06153 26.2164 3.06153 26.2027 3.05467 26.2027 3.05467 26.189 3.0478 26.189 3.0478 26.1753 3.04094 26.1753 3.04094 26.1617 3.03408 26.1617 3.03408 26.1548 3.02721 26.1548 3.02721 26.1411 3.02035 26.1411 3.02035 26.1275 3.01349 26.1275 3.01349 26.1138 3.00663 26.1138 3.00663 26.1001 2.99976 26.1001 2.99976 26.0933 2.9929 26.0933 2.9929 26.0796 2.98604 26.0796 2.98604 26.0659 2.97917 26.0659 2.97917 26.0522 2.97231 26.0522 2.97231 26.0386 2.96545 26.0386 2.96545 26.0317 2.95858 26.0317 2.95858 26.0181 2.95172 26.0181 2.95172 26.0044 2.94486 26.0044 2.94486 25.9907 2.93799 25.9907 2.93799 25.977 2.93113 25.977 2.93113 25.9702 2.92427 25.9702 2.92427 25.9565 2.9174 25.9565 2.9174 25.9428 2.91054 25.9428 2.91054 25.9292 2.90368 25.9292 2.90368 25.9155 2.89681 25.9155 2.89681 25.9018 2.88995 25.9018 2.88995 25.8881 2.88309 25.8881 2.88309 25.8813 2.87622 25.8813 2.87622 25.8676 2.86936 25.8676 2.86936 25.8539 2.8625 25.8539 2.8625 25.8403 2.85563 25.8403 2.85563 25.8266 2.84877 25.8266 2.84877 25.8129 2.84191 25.8129 2.84191 25.7992 2.83504 25.7992 2.83504 25.7856 2.82818 25.7856 2.82818 25.7719 2.82132 25.7719 2.82132 25.7582 2.81445 25.7582 2.81445 25.7514 2.80759 25.7514 2.80759 25.7377 2.80073 25.7377 2.80073 25.724 2.79386 25.724 2.79386 25.7104 2.787 25.7104 2.787 25.6967 2.78014 25.6967 2.78014 25.683 2.77327 25.683 2.77327 25.6693 2.76641 25.6693 2.76641 25.6557 2.75955 25.6557 2.75955 25.642 2.75268 25.642 2.75268 25.6351 2.74582 25.6351 2.74582 25.6215 2.73896 25.6215 2.73896 25.6078 2.73209 25.6078 2.73209 25.5941 2.72523 25.5941 2.72523 25.5804 2.71837 25.5804 2.71837 25.5668 2.71151 25.5668 2.71151 25.5531 2.70464 25.5531 2.70464 25.5394 2.69778 25.5394 2.69778 25.5257 2.69092 25.5257 2.69092 25.5121 2.68405 25.5121 2.68405 25.4984 2.67719 25.4984 2.67719 25.4847 2.67033 25.4847 2.67033 25.471 2.66346 25.471 2.66346 25.4574 2.6566 25.4574 2.6566 25.4437 2.64974 25.4437 2.64974 25.43 2.64287 25.43 2.64287 25.4163 2.63601 25.4163 2.63601 25.4027 2.62915 25.4027 2.62915 25.389 2.62228 25.389 2.62228 25.3753 2.61542 25.3753 2.61542 25.3616 2.60856 25.3616 2.60856 25.3479 2.60169 25.3479 2.60169 25.3343 2.59483 25.3343 2.59483 25.3206 2.58797 25.3206 2.58797 25.3069 2.5811 25.3069 2.5811 25.2932 2.57424 25.2932 2.57424 25.2796 2.56738 25.2796 2.56738 25.2659 2.56051 25.2659 2.56051 25.2522 2.55365 25.2522 2.55365 25.2385 2.54679 25.2385 2.54679 25.218 2.53992 25.218 2.53992 25.2044 2.53306 25.2044 2.53306 25.1907 2.5262 25.1907 2.5262 25.177 2.51933 25.177 2.51933 25.1633 2.51247 25.1633 2.51247 25.1497 2.50561 25.1497 2.50561 25.136 2.49874 25.136 2.49874 25.1223 2.49188 25.1223 2.49188 25.1086 2.48502 25.1086 2.48502 25.0949 2.47815 25.0949 2.47815 25.0813 2.47129 25.0813 2.47129 25.0608 2.46443 25.0608 2.46443 25.0471 2.45756 25.0471 2.45756 25.0334 2.4507 25.0334 2.4507 25.0197 2.44384 25.0197 2.44384 25.0061 2.43697 25.0061 2.43697 24.9924 2.43011 24.9924 2.43011 24.9787 2.42325 24.9787 2.42325 24.965 2.41639 24.965 2.41639 24.9514 2.40952 24.9514 2.40952 24.9308 2.40266 24.9308 2.40266 24.9172 2.3958 24.9172 2.3958 24.9035 2.38893 24.9035 2.38893 24.8898 2.38207 24.8898 2.38207 24.8761 2.37521 24.8761 2.37521 24.8556 2.36834 24.8556 2.36834 24.8419 2.36148 24.8419 2.36148 24.8283 2.35462 24.8283 2.35462 24.8146 2.34775 24.8146 2.34775 24.8009 2.34089 24.8009 2.34089 24.7804 2.33403 24.7804 2.33403 24.7667 2.32716 24.7667 2.32716 24.7531 2.3203 24.7531 2.3203 24.7394 2.31344 24.7394 2.31344 24.7257 2.30657 24.7257 2.30657 24.7052 2.29971 24.7052 2.29971 24.6915 2.29285 24.6915 2.29285 24.6778 2.28598 24.6778 2.28598 24.6642 2.27912 24.6642 2.27912 24.6436 2.27226 24.6436 2.27226 24.63 2.26539 24.63 2.26539 24.6163 2.25853 24.6163 2.25853 24.5958 2.25167 24.5958 2.25167 24.5821 2.2448 24.5821 2.2448 24.5684 2.23794 24.5684 2.23794 24.5479 2.23108 24.5479 2.23108 24.5342 2.22421 24.5342 2.22421 24.5206 2.21735 24.5206 2.21735 24.5001 2.21049 24.5001 2.21049 24.4864 2.20362 24.4864 2.20362 24.4727 2.19676 24.4727 2.19676 24.4522 2.1899 24.4522 2.1899 24.4385 2.18303 24.4385 2.18303 24.4248 2.17617 24.4248 2.17617 24.4112 2.16931 24.4112 2.16931 24.3906 2.16244 24.3906 2.16244 24.377 2.15558 24.377 2.15558 24.3633 2.14872 24.3633 2.14872 24.3428 2.14185 24.3428 2.14185 24.3291 2.13499 24.3291 2.13499 24.3086 2.12813 24.3086 2.12813 24.2949 2.12127 24.2949 2.12127 24.2812 2.1144 24.2812 2.1144 24.2607 2.10754 24.2607 2.10754 24.2471 2.10068 24.2471 2.10068 24.2265 2.09381 24.2265 2.09381 24.2129 2.08695 24.2129 2.08695 24.1924 2.08009 24.1924 2.08009 24.1787 2.07322 24.1787 2.07322 24.1582 2.06636 24.1582 2.06636 24.1445 2.0595 24.1445 2.0595 24.124 2.05263 24.124 2.05263 24.1103 2.04577 24.1103 2.04577 24.0898 2.03891 24.0898 2.03891 24.0761 2.03204 24.0761 2.03204 24.0556 2.02518 24.0556 2.02518 24.0419 2.01832 24.0419 2.01832 24.0214 2.01145 24.0214 2.01145 24.0077 2.00459 24.0077 2.00459 23.9941 1.99773 23.9941 1.99773 23.9735 1.99086 23.9735 1.99086 23.953 1.984 23.953 1.984 23.9394 1.97714 23.9394 1.97714 23.9188 1.97027 23.9188 1.97027 23.9052 1.96341 23.9052 1.96341 23.8846 1.95655 23.8846 1.95655 23.8641 1.94968 23.8641 1.94968 23.8505 1.94282 23.8505 1.94282 23.8299 1.93596 23.8299 1.93596 23.8094 1.92909 23.8094 1.92909 23.7958 1.92223 23.7958 1.92223 23.7752 1.91537 23.7752 1.91537 23.7547 1.9085 23.7547 1.9085 23.7411 1.90164 23.7411 1.90164 23.7205 1.89478 23.7205 1.89478 23.7069 1.88791 23.7069 1.88791 23.6864 1.88105 23.6864 1.88105 23.6658 1.87419 23.6658 1.87419 23.6522 1.86732 23.6522 1.86732 23.6316 1.86046 23.6316 1.86046 23.6111 1.8536 23.6111 1.8536 23.5906 1.84673 23.5906 1.84673 23.5769 1.83987 23.5769 1.83987 23.5564 1.83301 23.5564 1.83301 23.5359 1.82614 23.5359 1.82614 23.5154 1.81928 23.5154 1.81928 23.4949 1.81242 23.4949 1.81242 23.4744 1.80556 23.4744 1.80556 23.4607 1.79869 23.4607 1.79869 23.4402 1.79183 23.4402 1.79183 23.4197 1.78497 23.4197 1.78497 23.3992 1.7781 23.3992 1.7781 23.3786 1.77124 23.3786 1.77124 23.365 1.76438 23.365 1.76438 23.3445 1.75751 23.3445 1.75751 23.3239 1.75065 23.3239 1.75065 23.3034 1.74379 23.3034 1.74379 23.2829 1.73692 23.2829 1.73692 23.2624 1.73006 23.2624 1.73006 23.2419 1.7232 23.2419 1.7232 23.2214 1.71633 23.2214 1.71633 23.2009 1.70947 23.2009 1.70947 23.1803 1.70261 23.1803 1.70261 23.1598 1.69574 23.1598 1.69574 23.1393 1.68888 23.1393 1.68888 23.1188 1.68202 23.1188 1.68202 23.0983 1.67515 23.0983 1.67515 23.0778 1.66829 23.0778 1.66829 23.0573 1.66143 23.0573 1.66143 23.0368 1.65456 23.0368 1.65456 23.0162 1.6477 23.0162 1.6477 22.9957 1.64084 22.9957 1.64084 22.9752 1.63397 22.9752 1.63397 22.9547 1.62711 22.9547 1.62711 22.9342 1.62025 22.9342 1.62025 22.9137 1.61338 22.9137 1.61338 22.8932 1.60652 22.8932 1.60652 22.8658 1.59966 22.8658 1.59966 22.8453 1.59279 22.8453 1.59279 22.8248 1.58593 22.8248 1.58593 22.7974 1.57907 22.7974 1.57907 22.7769 1.5722 22.7769 1.5722 22.7564 1.56534 22.7564 1.56534 22.7291 1.55848 22.7291 1.55848 22.7085 1.55161 22.7085 1.55161 22.688 1.54475 22.688 1.54475 22.6675 1.53789 22.6675 1.53789 22.6402 1.53102 22.6402 1.53102 22.6196 1.52416 22.6196 1.52416 22.5991 1.5173 22.5991 1.5173 22.5718 1.51044 22.5718 1.51044 22.5513 1.50357 22.5513 1.50357 22.5308 1.49671 22.5308 1.49671 22.5034 1.48985 22.5034 1.48985 22.4829 1.48298 22.4829 1.48298 22.4555 1.47612 22.4555 1.47612 22.4282 1.46926 22.4282 1.46926 22.4077 1.46239 22.4077 1.46239 22.3803 1.45553 22.3803 1.45553 22.3598 1.44867 22.3598 1.44867 22.3325 1.4418 22.3325 1.4418 22.3051 1.43494 22.3051 1.43494 22.2846 1.42808 22.2846 1.42808 22.2572 1.42121 22.2572 1.42121 22.2367 1.41435 22.2367 1.41435 22.2094 1.40749 22.2094 1.40749 22.1889 1.40062 22.1889 1.40062 22.1615 1.39376 22.1615 1.39376 22.1342 1.3869 22.1342 1.3869 22.1068 1.38003 22.1068 1.38003 22.0795 1.37317 22.0795 1.37317 22.0521 1.36631 22.0521 1.36631 22.0248 1.35944 22.0248 1.35944 21.9974 1.35258 21.9974 1.35258 21.97 1.34572 21.97 1.34572 21.9427 1.33885 21.9427 1.33885 21.9153 1.33199 21.9153 1.33199 21.888 1.32513 21.888 1.32513 21.8606 1.31826 21.8606 1.31826 21.8333 1.3114 21.8333 1.3114 21.8128 1.30454 21.8128 1.30454 21.7854 1.29767 21.7854 1.29767 21.7512 1.29081 21.7512 1.29081 21.7239 1.28395 21.7239 1.28395 21.6897 1.27708 21.6897 1.27708 21.6623 1.27022 21.6623 1.27022 21.635 1.26336 21.635 1.26336 21.6008 1.25649 21.6008 1.25649 21.5735 1.24963 21.5735 1.24963 21.5393 1.24277 21.5393 1.24277 21.5119 1.2359 21.5119 1.2359 21.4846 1.22904 21.4846 1.22904 21.4504 1.22218 21.4504 1.22218 21.423 1.21532 21.423 1.21532 21.3888 1.20845 21.3888 1.20845 21.3546 1.20159 21.3546 1.20159 21.3205 1.19473 21.3205 1.19473 21.2931 1.18786 21.2931 1.18786 21.2589 1.181 21.2589 1.181 21.2247 1.17414 21.2247 1.17414 21.1905 1.16727 21.1905 1.16727 21.1563 1.16041 21.1563 1.16041 21.1222 1.15355 21.1222 1.15355 21.088 1.14668 21.088 1.14668 21.0538 1.13982 21.0538 1.13982 21.0196 1.13296 21.0196 1.13296 20.9854 1.12609 20.9854 1.12609 20.9444 1.11923 20.9444 1.11923 20.9033 1.11237 20.9033 1.11237 20.8692 1.1055 20.8692 1.1055 20.8281 1.09864 20.8281 1.09864 20.7871 1.09178 20.7871 1.09178 20.7529 1.08491 20.7529 1.08491 20.7119 1.07805 20.7119 1.07805 20.6709 1.07119 20.6709 1.07119 20.6367 1.06432 20.6367 1.06432 20.5956 1.05746 20.5956 1.05746 20.5478 1.0506 20.5478 1.0506 20.4999 1.04373 20.4999 1.04373 20.4589 1.03687 20.4589 1.03687 20.411 1.03001 20.411 1.03001 20.3632 1.02314 20.3632 1.02314 20.3221 1.01628 20.3221 1.01628 20.2743 1.00942 20.2743 1.00942 20.2264 1.00255 20.2264 1.00255 20.1854 0.995691 20.1854 0.995691 20.1307 0.988828 20.1307 0.988828 20.0691 0.981964 20.0691 0.981964 20.0144 0.975101 20.0144 0.975101 19.9597 0.968238 19.9597 0.968238 19.905 0.961375 19.905 0.961375 19.8503 0.954511 19.8503 0.954511 19.7956 0.947648 19.7956 0.947648 19.7341 0.940785 19.7341 0.940785 19.6657 0.933922 19.6657 0.933922 19.5905 0.927058 19.5905 0.927058 19.5221 0.920195 19.5221 0.920195 19.4537 0.913332 19.4537 0.913332 19.3853 0.906469 19.3853 0.906469 19.2964 0.899605 19.2964 0.899605 19.2007 0.892742 19.2007 0.892742 19.105 0.885879 19.105 0.885879 19.0093 0.879016 19.0093 0.879016 18.9135 0.872152 18.9135 0.872152 18.7563 0.865289 18.7563 0.865289 18.6058 0.858426 18.6058 0.858426 18.4075 0.851562 18.4075 0.851562 17.4981 0.858426 17.4981 0.858426 17.2724 0.865289 17.2724 0.865289 17.1288 0.872152 17.1288 0.872152 16.9921 0.879016 16.9921 0.879016 16.8827 0.885879 16.8827 0.885879 16.7664 0.892742 16.7664 0.892742 16.657 0.899605 16.657 0.899605 16.5681 0.906469 16.5681 0.906469 16.4724 0.913332 16.4724 0.913332 16.3835 0.920195 16.3835 0.920195 16.2946 0.927058 16.2946 0.927058 16.2126 0.933922 16.2126 0.933922 16.1374 0.940785 16.1374 0.940785 16.0621 0.947648 16.0621 0.947648 15.9869 0.954511 15.9869 0.954511 15.9117 0.961375 15.9117 0.961375 15.8365 0.968238 15.8365 0.968238 15.775 0.975101 15.775 0.975101 15.7134 0.981964 15.7134 0.981964 15.645 0.988828 15.645 0.988828 15.5835 0.995691 15.5835 0.995691 15.522 1.00255 15.522 1.00255 15.4604 1.00942 15.4604 1.00942 15.3989 1.01628 15.3989 1.01628 15.3442 1.02314 15.3442 1.02314 15.2895 1.03001 15.2895 1.03001 15.2348 1.03687 15.2348 1.03687 15.1869 1.04373 15.1869 1.04373 15.1322 1.0506 15.1322 1.0506 15.0775 1.05746 15.0775 1.05746 15.0228 1.06432 15.0228 1.06432 14.9681 1.07119 14.9681 1.07119 14.9202 1.07805 14.9202 1.07805 14.8724 1.08491 14.8724 1.08491 14.8313 1.09178 14.8313 1.09178 14.7835 1.09864 14.7835 1.09864 14.7356 1.1055 14.7356 1.1055 14.6877 1.11237 14.6877 1.11237 14.6399 1.11923 14.6399 1.11923 14.592 1.12609 14.592 1.12609 14.5441 1.13296 14.5441 1.13296 14.5031 1.13982 14.5031 1.13982 14.4621 1.14668 14.4621 1.14668 14.4211 1.15355 14.4211 1.15355 14.38 1.16041 14.38 1.16041 14.339 1.16727 14.339 1.16727 14.298 1.17414 14.298 1.17414 14.257 1.181 14.257 1.181 14.2091 1.18786 14.2091 1.18786 14.1681 1.19473 14.1681 1.19473 14.127 1.20159 14.127 1.20159 14.0928 1.20845 14.0928 1.20845 14.0518 1.21532 14.0518 1.21532 14.0176 1.22218 14.0176 1.22218 13.9766 1.22904 13.9766 1.22904 13.9424 1.2359 13.9424 1.2359 13.9014 1.24277 13.9014 1.24277 13.8672 1.24963 13.8672 1.24963 13.8262 1.25649 13.8262 1.25649 13.792 1.26336 13.792 1.26336 13.7509 1.27022 13.7509 1.27022 13.7168 1.27708 13.7168 1.27708 13.6826 1.28395 13.6826 1.28395 13.6484 1.29081 13.6484 1.29081 13.6142 1.29767 13.6142 1.29767 13.58 1.30454 13.58 1.30454 13.5458 1.3114 13.5458 1.3114 13.5116 1.31826 13.5116 1.31826 13.4774 1.32513 13.4774 1.32513 13.4432 1.33199 13.4432 1.33199 13.4091 1.33885 13.4091 1.33885 13.3749 1.34572 13.3749 1.34572 13.3407 1.35258 13.3407 1.35258 13.3133 1.35944 13.3133 1.35944 13.2791 1.36631 13.2791 1.36631 13.2449 1.37317 13.2449 1.37317 13.2176 1.38003 13.2176 1.38003 13.1834 1.3869 13.1834 1.3869 13.1561 1.39376 13.1561 1.39376 13.1219 1.40062 13.1219 1.40062 13.0877 1.40749 13.0877 1.40749 13.0603 1.41435 13.0603 1.41435 13.0261 1.42121 13.0261 1.42121 12.9988 1.42808 12.9988 1.42808 12.9646 1.43494 12.9646 1.43494 12.9372 1.4418 12.9372 1.4418 12.9099 1.44867 12.9099 1.44867 12.8757 1.45553 12.8757 1.45553 12.8484 1.46239 12.8484 1.46239 12.821 1.46926 12.821 1.46926 12.7936 1.47612 12.7936 1.47612 12.7595 1.48298 12.7595 1.48298 12.7321 1.48985 12.7321 1.48985 12.7048 1.49671 12.7048 1.49671 12.6774 1.50357 12.6774 1.50357 12.6432 1.51044 12.6432 1.51044 12.6159 1.5173 12.6159 1.5173 12.5885 1.52416 12.5885 1.52416 12.5612 1.53102 12.5612 1.53102 12.5338 1.53789 12.5338 1.53789 12.5065 1.54475 12.5065 1.54475 12.4791 1.55161 12.4791 1.55161 12.4518 1.55848 12.4518 1.55848 12.4244 1.56534 12.4244 1.56534 12.3971 1.5722 12.3971 1.5722 12.3697 1.57907 12.3697 1.57907 12.3424 1.58593 12.3424 1.58593 12.3218 1.59279 12.3218 1.59279 12.2945 1.59966 12.2945 1.59966 12.2671 1.60652 12.2671 1.60652 12.2398 1.61338 12.2398 1.61338 12.2124 1.62025 12.2124 1.62025 12.1851 1.62711 12.1851 1.62711 12.1577 1.63397 12.1577 1.63397 12.1372 1.64084 12.1372 1.64084 12.1099 1.6477 12.1099 1.6477 12.0825 1.65456 12.0825 1.65456 12.062 1.66143 12.062 1.66143 12.0346 1.66829 12.0346 1.66829 12.0073 1.67515 12.0073 1.67515 11.9868 1.68202 11.9868 1.68202 11.9594 1.68888 11.9594 1.68888 11.9321 1.69574 11.9321 1.69574 11.9116 1.70261 11.9116 1.70261 11.8842 1.70947 11.8842 1.70947 11.8569 1.71633 11.8569 1.71633 11.8363 1.7232 11.8363 1.7232 11.809 1.73006 11.809 1.73006 11.7885 1.73692 11.7885 1.73692 11.768 1.74379 11.768 1.74379 11.7406 1.75065 11.7406 1.75065 11.7201 1.75751 11.7201 1.75751 11.6928 1.76438 11.6928 1.76438 11.6722 1.77124 11.6722 1.77124 11.6449 1.7781 11.6449 1.7781 11.6244 1.78497 11.6244 1.78497 11.6039 1.79183 11.6039 1.79183 11.5765 1.79869 11.5765 1.79869 11.556 1.80556 11.556 1.80556 11.5286 1.81242 11.5286 1.81242 11.5081 1.81928 11.5081 1.81928 11.4808 1.82614 11.4808 1.82614 11.4603 1.83301 11.4603 1.83301 11.4398 1.83987 11.4398 1.83987 11.4192 1.84673 11.4192 1.84673 11.3919 1.8536 11.3919 1.8536 11.3714 1.86046 11.3714 1.86046 11.3509 1.86732 11.3509 1.86732 11.3303 1.87419 11.3303 1.87419 11.303 1.88105 11.303 1.88105 11.2825 1.88791 11.2825 1.88791 11.262 1.89478 11.262 1.89478 11.2415 1.90164 11.2415 1.90164 11.2209 1.9085 11.2209 1.9085 11.1936 1.91537 11.1936 1.91537 11.1731 1.92223 11.1731 1.92223 11.1526 1.92909 11.1526 1.92909 11.1321 1.93596 11.1321 1.93596 11.1115 1.94282 11.1115 1.94282 11.091 1.94968 11.091 1.94968 11.0637 1.95655 11.0637 1.95655 11.0432 1.96341 11.0432 1.96341 11.0226 1.97027 11.0226 1.97027 11.0021 1.97714 11.0021 1.97714 10.9816 1.984 10.9816 1.984 10.9611 1.99086 10.9611 1.99086 10.9406 1.99773 10.9406 1.99773 10.9201 2.00459 10.9201 2.00459 10.8996 2.01145 10.8996 2.01145 10.8791 2.01832 10.8791 2.01832 10.8585 2.02518 10.8585 2.02518 10.838 2.03204 10.838 2.03204 10.8175 2.03891 10.8175 2.03891 10.797 2.04577 10.797 2.04577 10.7765 2.05263 10.7765 2.05263 10.756 2.0595 10.756 2.0595 10.7355 2.06636 10.7355 2.06636 10.7149 2.07322 10.7149 2.07322 10.6944 2.08009 10.6944 2.08009 10.6739 2.08695 10.6739 2.08695 10.6602 2.09381 10.6602 2.09381 10.6397 2.10068 10.6397 2.10068 10.6192 2.10754 10.6192 2.10754 10.5987 2.1144 10.5987 2.1144 10.5782 2.12127 10.5782 2.12127 10.5577 2.12813 10.5577 2.12813 10.5372 2.13499 10.5372 2.13499 10.5166 2.14185 10.5166 2.14185 10.503 2.14872 10.503 2.14872 10.4825 2.15558 10.4825 2.15558 10.4619 2.16244 10.4619 2.16244 10.4414 2.16931 10.4414 2.16931 10.4209 2.17617 10.4209 2.17617 10.4004 2.18303 10.4004 2.18303 10.3867 2.1899 10.3867 2.1899 10.3662 2.19676 10.3662 2.19676 10.3457 2.20362 10.3457 2.20362 10.3252 2.21049 10.3252 2.21049 10.3115 2.21735 10.3115 2.21735 10.291 2.22421 10.291 2.22421 10.2705 2.23108 10.2705 2.23108 10.2568 2.23794 10.2568 2.23794 10.2363 2.2448 10.2363 2.2448 10.2158 2.25167 10.2158 2.25167 10.1953 2.25853 10.1953 2.25853 10.1816 2.26539 10.1816 2.26539 10.1611 2.27226 10.1611 2.27226 10.1406 2.27912 10.1406 2.27912 10.12 2.28598 10.12 2.28598 10.1064 2.29285 10.1064 2.29285 10.0859 2.29971 10.0859 2.29971 10.0722 2.30657 10.0722 2.30657 10.0517 2.31344 10.0517 2.31344 10.0312 2.3203 10.0312 2.3203 10.0175 2.32716 10.0175 2.32716 9.99697 2.33403 9.99697 2.33403 9.98329 2.34089 9.98329 2.34089 9.96278 2.34775 9.96278 2.34775 9.94227 2.35462 9.94227 2.35462 9.92859 2.36148 9.92859 2.36148 9.90808 2.36834 9.90808 2.36834 9.8944 2.37521 9.8944 2.37521 9.87389 2.38207 9.87389 2.38207 9.85337 2.38893 9.85337 2.38893 9.8397 2.3958 9.8397 2.3958 9.81918 2.40266 9.81918 2.40266 9.80551 2.40952 9.80551 2.40952 9.78499 2.41639 9.78499 2.41639 9.76448 2.42325 9.76448 2.42325 9.7508 2.43011 9.7508 2.43011 9.73029 2.43697 9.73029 2.43697 9.71662 2.44384 9.71662 2.44384 9.70294 2.4507 9.70294 2.4507 9.68243 2.45756 9.68243 2.45756 9.66875 2.46443 9.66875 2.46443 9.64824 2.47129 9.64824 2.47129 9.63456 2.47815 9.63456 2.47815 9.61405 2.48502 9.61405 2.48502 9.60037 2.49188 9.60037 2.49188 9.57986 2.49874 9.57986 2.49874 9.56618 2.50561 9.56618 2.50561 9.54567 2.51247 9.54567 2.51247 9.53199 2.51933 9.53199 2.51933 9.51148 2.5262 9.51148 2.5262 9.4978 2.53306 9.4978 2.53306 9.47729 2.53992 9.47729 2.53992 9.46362 2.54679 9.46362 2.54679 9.4431 2.55365 9.4431 2.55365 9.42943 2.56051 9.42943 2.56051 9.41575 2.56738 9.41575 2.56738 9.39524 2.57424 9.39524 2.57424 9.38156 2.5811 9.38156 2.5811 9.36788 2.58797 9.36788 2.58797 9.34737 2.59483 9.34737 2.59483 9.3337 2.60169 9.3337 2.60169 9.32002 2.60856 9.32002 2.60856 9.29951 2.61542 9.29951 2.61542 9.28583 2.62228 9.28583 2.62228 9.26532 2.62915 9.26532 2.62915 9.25164 2.63601 9.25164 2.63601 9.23797 2.64287 9.23797 2.64287 9.21745 2.64974 9.21745 2.64974 9.20378 2.6566 9.20378 2.6566 9.1901 2.66346 9.1901 2.66346 9.16959 2.67033 9.16959 2.67033 9.15591 2.67719 9.15591 2.67719 9.14224 2.68405 9.14224 2.68405 9.12172 2.69092 9.12172 2.69092 9.10805 2.69778 9.10805 2.69778 9.09437 2.70464 9.09437 2.70464 9.07386 2.71151 9.07386 2.71151 9.06018 2.71837 9.06018 2.71837 9.04651 2.72523 9.04651 2.72523 9.03283 2.73209 9.03283 2.73209 9.01232 2.73896 9.01232 2.73896 8.99864 2.74582 8.99864 2.74582 8.98497 2.75268 8.98497 2.75268 8.97129 2.75955 8.97129 2.75955 8.95078 2.76641 8.95078 2.76641 8.9371 2.77327 8.9371 2.77327 8.92342 2.78014 8.92342 2.78014 8.90975 2.787 8.90975 2.787 8.88923 2.79386 8.88923 2.79386 8.87556 2.80073 8.87556 2.80073 8.86188 2.80759 8.86188 2.80759 8.84821 2.81445 8.84821 2.81445 8.8277 2.82132 8.8277 2.82132 8.81402 2.82818 8.81402 2.82818 8.80034 2.83504 8.80034 2.83504 8.78667 2.84191 8.78667 2.84191 8.77299 2.84877 8.77299 2.84877 8.75248 2.85563 8.75248 2.85563 8.7388 2.8625 8.7388 2.8625 8.72513 2.86936 8.72513 2.86936 8.71145 2.87622 8.71145 2.87622 8.69778 2.88309 8.69778 2.88309 8.6841 2.88995 8.6841 2.88995 8.66359 2.89681 8.66359 2.89681 8.64991 2.90368 8.64991 2.90368 8.63624 2.91054 8.63624 2.91054 8.62256 2.9174 8.62256 2.9174 8.60888 2.92427 8.60888 2.92427 8.59521 2.93113 8.59521 2.93113 8.57469 2.93799 8.57469 2.93799 8.56102 2.94486 8.56102 2.94486 8.54734 2.95172 8.54734 2.95172 8.53367 2.95858 8.53367 2.95858 8.51999 2.96545 8.51999 2.96545 8.50632 2.97231 8.50632 2.97231 8.49264 2.97917 8.49264 2.97917 8.47896 2.98604 8.47896 2.98604 8.46529 2.9929 8.46529 2.9929 8.44477 2.99976 8.44477 2.99976 8.4311 3.00663 8.4311 3.00663 8.41742 3.01349 8.41742 3.01349 8.40375 3.02035 8.40375 3.02035 8.39007 3.02721 8.39007 3.02721 8.3764 3.03408 8.3764 3.03408 8.36272 3.04094 8.36272 3.04094 8.34905 3.0478 8.34905 3.0478 8.33537 3.05467 8.33537 3.05467 8.32169 3.06153 8.32169 3.06153 8.30802 3.06839 8.30802 3.06839 8.29434 3.07526 8.29434 3.07526 8.27383 3.08212 8.27383 3.08212 8.26015 3.08898 8.26015 3.08898 8.24648 3.09585 8.24648 3.09585 8.2328 3.10271 8.2328 3.10271 8.21913 3.10957 8.21913 3.10957 8.20545 3.11644 8.20545 3.11644 8.19177 3.1233 8.19177 3.1233 8.1781 3.13016 8.1781 3.13016 8.16442 3.13703 8.16442 3.13703 8.15075 3.14389 8.15075 3.14389 8.13707 3.15075 8.13707 3.15075 8.1234 3.15762 8.1234 3.15762 8.10972 3.16448 8.10972 3.16448 8.09604 3.17134 8.09604 3.17134 8.08237 3.17821 8.08237 3.17821 8.06869 3.18507 8.06869 3.18507 8.05502 3.19193 8.05502 3.19193 8.04134 3.1988 8.04134 3.1988 8.02767 3.20566 8.02767 3.20566 8.01399 3.21252 8.01399 3.21252 8.00031 3.21939 8.00031 3.21939 7.98664 3.22625 7.98664 3.22625 7.97296 3.23311 7.97296 3.23311 7.95929 3.23998 7.95929 3.23998 7.94561 3.24684 7.94561 3.24684 7.93194 3.2537 7.93194 3.2537 7.91826 3.26057 7.91826 3.26057 7.91142 3.26743 7.91142 3.26743 7.89775 3.27429 7.89775 3.27429 7.88407 3.28116 7.88407 3.28116 7.8704 3.28802 7.8704 3.28802 7.85672 3.29488 7.85672 3.29488 7.84304 3.30175 7.84304 3.30175 7.82937 3.30861 7.82937 3.30861 7.81569 3.31547 7.81569 3.31547 7.80202 3.32233 7.80202 3.32233 7.78834 3.3292 7.78834 3.3292 7.77467 3.33606 7.77467 3.33606 7.76099 3.34292 7.76099 3.34292 7.74731 3.34979 7.74731 3.34979 7.73364 3.35665 7.73364 3.35665 7.7268 3.36351 7.7268 3.36351 7.71312 3.37038 7.71312 3.37038 7.69945 3.37724 7.69945 3.37724 7.68577 3.3841 7.68577 3.3841 7.6721 3.39097 7.6721 3.39097 7.65842 3.39783 7.65842 3.39783 7.64475 3.40469 7.64475 3.40469 7.63107 3.41156 7.63107 3.41156 7.61739 3.41842 7.61739 3.41842 7.61056 3.42528 7.61056 3.42528 7.59688 3.43215 7.59688 3.43215 7.58321 3.43901 7.58321 3.43901 7.56953 3.44587 7.56953 3.44587 7.55585 3.45274 7.55585 3.45274 7.54218 3.4596 7.54218 3.4596 7.5285 3.46646 7.5285 3.46646 7.52166 3.47333 7.52166 3.47333 7.50799 3.48019 7.50799 3.48019 7.49431 3.48705 7.49431 3.48705 7.48064 3.49392 7.48064 3.49392 7.46696 3.50078 7.46696 3.50078 7.45329 3.50764 7.45329 3.50764 7.43961 3.51451 7.43961 3.51451 7.43277 3.52137 7.43277 3.52137 7.4191 3.52823 7.4191 3.52823 7.40542 3.5351 7.40542 3.5351 7.39175 3.54196 7.39175 3.54196 7.37807 3.54882 7.37807 3.54882 7.37123 3.55569 7.37123 3.55569 7.35756 3.56255 7.35756 3.56255 7.34388 3.56941 7.34388 3.56941 7.33021 3.57628 7.33021 3.57628 7.31653 3.58314 7.31653 3.58314 7.30969 3.59 7.30969 3.59 7.29602 3.59687 7.29602 3.59687 7.28234 3.60373 7.28234 3.60373 7.26866 3.61059 7.26866 3.61059 7.25499 3.61746 7.25499 3.61746 7.24815 3.62432 7.24815 3.62432 7.23448 3.63118 7.23448 3.63118 7.2208 3.63804 7.2208 3.63804 7.20712 3.64491 7.20712 3.64491 7.19345 3.65177 7.19345 3.65177 7.18661 3.65863 7.18661 3.65863 7.17293 3.6655 7.17293 3.6655 7.15926 3.67236 7.15926 3.67236 7.14558 3.67922 7.14558 3.67922 7.13874 3.68609 7.13874 3.68609 7.12507 3.69295 7.12507 3.69295 7.11139 3.69981 7.11139 3.69981 7.09772 3.70668 7.09772 3.70668 7.09088 3.71354 7.09088 3.71354 7.0772 3.7204 7.0772 3.7204 7.06353 3.72727 7.06353 3.72727 7.04985 3.73413 7.04985 3.73413 7.04302 3.74099 7.04302 3.74099 7.02934 3.74786 7.02934 3.74786 7.01566 3.75472 7.01566 3.75472 7.00199 3.76158 7.00199 3.76158 6.99515 3.76845 6.99515 3.76845 6.98148 3.77531 6.98148 3.77531 6.9678 3.78217 6.9678 3.78217 6.95412 3.78904 6.95412 3.78904 6.94729 3.7959 6.94729 3.7959 6.93361 3.80276 6.93361 3.80276 6.91993 3.80963 6.91993 3.80963 6.9131 3.81649 6.9131 3.81649 6.89942 3.82335 6.89942 3.82335 6.88575 3.83022 6.88575 3.83022 6.87207 3.83708 6.87207 3.83708 6.86523 3.84394 6.86523 3.84394 6.85156 3.85081 6.85156 3.85081 6.83788 3.85767 6.83788 3.85767 6.83104 3.86453 6.83104 3.86453 6.81737 3.8714 6.81737 3.8714 6.80369 3.87826 6.80369 3.87826 6.79685 3.88512 6.79685 3.88512 6.78318 3.89199 6.78318 3.89199 6.7695 3.89885 6.7695 3.89885 6.76266 3.90571 6.76266 3.90571 6.74899 3.91258 6.74899 3.91258 6.73531 3.91944 6.73531 3.91944 6.72847 3.9263 6.72847 3.9263 6.7148 3.93316 6.7148 3.93316 6.70112 3.94003 6.70112 3.94003 6.69428 3.94689 6.69428 3.94689 6.68061 3.95375 6.68061 3.95375 6.66693 3.96062 6.66693 3.96062 6.66009 3.96748 6.66009 3.96748 6.64642 3.97434 6.64642 3.97434 6.63274 3.98121 6.63274 3.98121 6.62591 3.98807 6.62591 3.98807 6.61223 3.99493 6.61223 3.99493 6.59856 4.0018 6.59856 4.0018 6.59172 4.00866 6.59172 4.00866 6.57804 4.01552 6.57804 4.01552 6.56437 4.02239 6.56437 4.02239 6.55753 4.02925 6.55753 4.02925 6.54385 4.03611 6.54385 4.03611 6.53701 4.04298 6.53701 4.04298 6.52334 4.04984 6.52334 4.04984 6.50966 4.0567 6.50966 4.0567 6.50283 4.06357 6.50283 4.06357 6.48915 4.07043 6.48915 4.07043 6.47547 4.07729 6.47547 4.07729 6.46864 4.08416 6.46864 4.08416 6.45496 4.09102 6.45496 4.09102 6.44812 4.09788 6.44812 4.09788 6.43445 4.10475 6.43445 4.10475 6.42077 4.11161 6.42077 4.11161 6.41393 4.11847 6.41393 4.11847 6.40026 4.12534 6.40026 4.12534 6.39342 4.1322 6.39342 4.1322 6.37974 4.13906 6.37974 4.13906 6.36607 4.14593 6.36607 4.14593 6.35923 4.15279 6.35923 4.15279 6.34555 4.15965 6.34555 4.15965 6.33872 4.16652 6.33872 4.16652 6.32504 4.17338 6.32504 4.17338 6.31136 4.18024 6.31136 4.18024 6.30453 4.18711 6.30453 4.18711 6.29085 4.19397 6.29085 4.19397 6.28401 4.20083 6.28401 4.20083 6.27034 4.2077 6.27034 4.2077 6.2635 4.21456 6.2635 4.21456 6.24982 4.22142 6.24982 4.22142 6.23615 4.22828 6.23615 4.22828 6.22931 4.23515 6.22931 4.23515 6.21563 4.24201 6.21563 4.24201 6.2088 4.24887 6.2088 4.24887 6.19512 4.25574 6.19512 4.25574 6.18828 4.2626 6.18828 4.2626 6.17461 4.26946 6.17461 4.26946 6.16093 4.27633 6.16093 4.27633 6.15409 4.28319 6.15409 4.28319 6.14042 4.29005 6.14042 4.29005 6.13358 4.29692 6.13358 4.29692 6.11991 4.30378 6.11991 4.30378 6.11307 4.31064 6.11307 4.31064 6.09939 4.31751 6.09939 4.31751 6.09255 4.32437 6.09255 4.32437 6.07888 4.33123 6.07888 4.33123 6.07204 4.3381 6.07204 4.3381 6.05837 4.34496 6.05837 4.34496 6.05153 4.35182 6.05153 4.35182 6.03785 4.35869 6.03785 4.35869 6.03101 4.36555 6.03101 4.36555 6.01734 4.37241 6.01734 4.37241 6.00366 4.37928 6.00366 4.37928 5.99682 4.38614 5.99682 4.38614 5.98315 4.393 5.98315 4.393 5.97631 4.39987 5.97631 4.39987 5.96263 4.40673 5.96263 4.40673 5.9558 4.41359 5.9558 4.41359 5.94212 4.42046 5.94212 4.42046 5.93528 4.42732 5.93528 4.42732 5.92161 4.43418 5.92161 4.43418 5.91477 4.44105 5.91477 4.44105 5.90109 4.44791 5.90109 4.44791 5.89426 4.45477 5.89426 4.45477 5.88058 4.46164 5.88058 4.46164 5.87374 4.4685 5.87374 4.4685 5.86007 4.47536 5.86007 4.47536 5.85323 4.48223 5.85323 4.48223 5.83955 4.48909 5.83955 4.48909 5.83271 4.49595 5.83271 4.49595 5.81904 4.50282 5.81904 4.50282 5.8122 4.50968 5.8122 4.50968 5.80536 4.51654 5.80536 4.51654 5.79169 4.5234 5.79169 4.5234 5.78485 4.53027 5.78485 4.53027 5.77117 4.53713 5.77117 4.53713 5.76434 4.54399 5.76434 4.54399 5.75066 4.55086 5.75066 4.55086 5.74382 4.55772 5.74382 4.55772 5.73015 4.56458 5.73015 4.56458 5.72331 4.57145 5.72331 4.57145 5.70963 4.57831 5.70963 4.57831 5.7028 4.58517 5.7028 4.58517 5.68912 4.59204 5.68912 4.59204 5.68228 4.5989 5.68228 4.5989 5.66861 4.60576 5.66861 4.60576 5.66177 4.61263 5.66177 4.61263 5.64809 4.61949 5.64809 4.61949 5.64126 4.62635 5.64126 4.62635 5.63442 4.63322 5.63442 4.63322 5.62074 4.64008 5.62074 4.64008 5.6139 4.64694 5.6139 4.64694 5.60023 4.65381 5.60023 4.65381 5.59339 4.66067 5.59339 4.66067 5.57972 4.66753 5.57972 4.66753 5.57288 4.6744 5.57288 4.6744 5.56604 4.68126 5.56604 4.68126 5.55236 4.68812 5.55236 4.68812 5.54553 4.69499 5.54553 4.69499 5.53185 4.70185 5.53185 4.70185 5.52501 4.70871 5.52501 4.70871 5.51134 4.71558 5.51134 4.71558 5.5045 4.72244 5.5045 4.72244 5.49082 4.7293 5.49082 4.7293 5.48398 4.73617 5.48398 4.73617 5.47715 4.74303 5.47715 4.74303 5.46347 4.74989 5.46347 4.74989 5.45663 4.75676 5.45663 4.75676 5.44296 4.76362 5.44296 4.76362 5.43612 4.77048 5.43612 4.77048 5.42928 4.77735 5.42928 4.77735 5.41561 4.78421 5.41561 4.78421 5.40877 4.79107 5.40877 4.79107 5.39509 4.79794 5.39509 4.79794 5.38825 4.8048 5.38825 4.8048 5.38142 4.81166 5.38142 4.81166 5.36774 4.81852 5.36774 4.81852 5.3609 4.82539 5.3609 4.82539 5.34723 4.83225 5.34723 4.83225 5.34039 4.83911 5.34039 4.83911 5.33355 4.84598 5.33355 4.84598 5.31988 4.85284 5.31988 4.85284 5.31304 4.8597 5.31304 4.8597 5.29936 4.86657 5.29936 4.86657 5.29252 4.87343 5.29252 4.87343 5.28569 4.88029 5.28569 4.88029 5.27201 4.88716 5.27201 4.88716 5.26517 4.89402 5.26517 4.89402 5.2515 4.90088 5.2515 4.90088 5.24466 4.90775 5.24466 4.90775 5.23782 4.91461 5.23782 4.91461 5.22415 4.92147 5.22415 4.92147 5.21731 4.92834 5.21731 4.92834 5.21047 4.9352 5.21047 4.9352 5.1968 4.94206 5.1968 4.94206 5.18996 4.94893 5.18996 4.94893 5.18312 4.95579 5.18312 4.95579 5.16944 4.96265 5.16944 4.96265 5.16261 4.96952 5.16261 4.96952 5.14893 4.97638 5.14893 4.97638 5.14209 4.98324 5.14209 4.98324 5.13525 4.99011 5.13525 4.99011 5.12158 4.99697 5.12158 4.99697 5.11474 5.00383 5.11474 5.00383 5.1079 5.0107 5.1079 5.0107 5.09423 5.01756 5.09423 5.01756 5.08739 5.02442 5.08739 5.02442 5.08055 5.03129 5.08055 5.03129 5.06688 5.03815 5.06688 5.03815 5.06004 5.04501 5.06004 5.04501 5.0532 5.05188 5.0532 5.05188 5.03952 5.05874 5.03952 5.05874 5.03269 5.0656 5.03269 5.0656 5.02585 5.07247 5.02585 5.07247 5.01217 5.07933 5.01217 5.07933 5.00533 5.08619 5.00533 5.08619 4.9985 5.09306 4.9985 5.09306 4.98482 5.09992 4.98482 5.09992 4.97798 5.10678 4.97798 5.10678 4.97115 5.11364 4.97115 5.11364 4.95747 5.12051 4.95747 5.12051 4.95063 5.12737 4.95063 5.12737 4.94379 5.13423 4.94379 5.13423 4.93012 5.1411 4.93012 5.1411 4.92328 5.14796 4.92328 5.14796 4.91644 5.15482 4.91644 5.15482 4.90277 5.16169 4.90277 5.16169 4.89593 5.16855 4.89593 5.16855 4.88909 5.17541 4.88909 5.17541 4.87542 5.18228 4.87542 5.18228 4.86858 5.18914 4.86858 5.18914 4.86174 5.196 4.86174 5.196 4.84806 5.20287 4.84806 5.20287 4.84123 5.20973 4.84123 5.20973 4.83439 5.21659 4.83439 5.21659 4.82755 5.22346 4.82755 5.22346 4.81387 5.23032 4.81387 5.23032 4.80704 5.23718 4.80704 5.23718 4.8002 5.24405 4.8002 5.24405 4.78652 5.25091 4.78652 5.25091 4.77969 5.25777 4.77969 5.25777 4.77285 5.26464 4.77285 5.26464 4.75917 5.2715 4.75917 5.2715 4.75234 5.27836 4.75234 5.27836 4.7455 5.28523 4.7455 5.28523 4.73866 5.29209 4.73866 5.29209 4.72498 5.29895 4.72498 5.29895 4.71815 5.30582 4.71815 5.30582 4.71131 5.31268 4.71131 5.31268 4.69763 5.31954 4.69763 5.31954 4.69079 5.32641 4.69079 5.32641 4.68396 5.33327 4.68396 5.33327 4.67712 5.34013 4.67712 5.34013 4.66344 5.347 4.66344 5.347 4.6566 5.35386 4.6566 5.35386 4.64977 5.36072 4.64977 5.36072 4.64293 5.36759 4.64293 5.36759 4.62925 5.37445 4.62925 5.37445 4.62242 5.38131 4.62242 5.38131 4.61558 5.38818 4.61558 5.38818 4.6019 5.39504 4.6019 5.39504 4.59506 5.4019 4.59506 5.4019 4.58823 5.40876 4.58823 5.40876 4.58139 5.41563 4.58139 5.41563 4.56771 5.42249 4.56771 5.42249 4.56087 5.42935 4.56087 5.42935 4.55404 5.43622 4.55404 5.43622 4.5472 5.44308 4.5472 5.44308 4.53352 5.44994 4.53352 5.44994 4.52669 5.45681 4.52669 5.45681 4.51985 5.46367 4.51985 5.46367 4.51301 5.47053 4.51301 5.47053 4.49933 5.4774 4.49933 5.4774 4.4925 5.48426 4.4925 5.48426 4.48566 5.49112 4.48566 5.49112 4.47882 5.49799 4.47882 5.49799 4.46514 5.50485 4.46514 5.50485 4.45831 5.51171 4.45831 5.51171 4.45147 5.51858 4.45147 5.51858 4.44463 5.52544 4.44463 5.52544 4.43095 5.5323 4.43095 5.5323 4.42412 5.53917 4.42412 5.53917 4.41728 5.54603 4.41728 5.54603 4.41044 5.55289 4.41044 5.55289 4.4036 5.55976 4.4036 5.55976 4.38993 5.56662 4.38993 5.56662 4.38309 5.57348 4.38309 5.57348 4.37625 5.58035 4.37625 5.58035 4.36941 5.58721 4.36941 5.58721 4.35574 5.59407 4.35574 5.59407 4.3489 5.60094 4.3489 5.60094 4.34206 5.6078 4.34206 5.6078 4.33523 5.61466 4.33523 5.61466 4.32155 5.62153 4.32155 5.62153 4.31471 5.62839 4.31471 5.62839 4.30787 5.63525 4.30787 5.63525 4.30104 5.64212 4.30104 5.64212 4.2942 5.64898 4.2942 5.64898 4.28052 5.65584 4.28052 5.65584 4.27369 5.66271 4.27369 5.66271 4.26685 5.66957 4.26685 5.66957 4.26001 5.67643 4.26001 5.67643 4.25317 5.6833 4.25317 5.6833 4.2395 5.69016 4.2395 5.69016 4.23266 5.69702 4.23266 5.69702 4.22582 5.70389 4.22582 5.70389 4.21898 5.71075 4.21898 5.71075 4.21214 5.71761 4.21214 5.71761 4.19847 5.72447 4.19847 5.72447 4.19163 5.73134 4.19163 5.73134 4.18479 5.7382 4.18479 5.7382 4.17796 5.74506 4.17796 5.74506 4.17112 5.75193 4.17112 5.75193 4.15744 5.75879 4.15744 5.75879 4.1506 5.76565 4.1506 5.76565 4.14377 5.77252 4.14377 5.77252 4.13693 5.77938 4.13693 5.77938 4.13009 5.78624 4.13009 5.78624 4.11641 5.79311 4.11641 5.79311 4.10958 5.79997 4.10958 5.79997 4.10274 5.80683 4.10274 5.80683 4.0959 5.8137 4.0959 5.8137 4.08906 5.82056 4.08906 5.82056 4.08222 5.82742 4.08222 5.82742 4.06855 5.83429 4.06855 5.83429 4.06171 5.84115 4.06171 5.84115 4.05487 5.84801 4.05487 5.84801 4.04804 5.85488 4.04804 5.85488 4.0412 5.86174 4.0412 5.86174 4.03436 5.8686 4.03436 5.8686 4.02068 5.87547 4.02068 5.87547 4.01385 5.88233 4.01385 5.88233 4.00701 5.88919 4.00701 5.88919 4.00017 5.89606 4.00017 5.89606 3.99333 5.90292 3.99333 5.90292 3.98649 5.90978 3.98649 5.90978 3.97282 5.91665 3.97282 5.91665 3.96598 5.92351 3.96598 5.92351 3.95914 5.93037 3.95914 5.93037 3.9523 5.93724 3.9523 5.93724 3.94547 5.9441 3.94547 5.9441 3.93863 5.95096 3.93863 5.95096 3.93179 5.95783 3.93179 5.95783 3.91812 5.96469 3.91812 5.96469 3.91128 5.97155 3.91128 5.97155 3.90444 5.97842 3.90444 5.97842 3.8976 5.98528 3.8976 5.98528 3.89077 5.99214 3.89077 5.99214 3.88393 5.99901 3.88393 5.99901 3.87709 6.00587 3.87709 6.00587 3.86341 6.01273 3.86341 6.01273 3.85658 6.0196 3.85658 6.0196 3.84974 6.02646 3.84974 6.02646 3.8429 6.03332 3.8429 6.03332 3.83606 6.04018 3.83606 6.04018 3.82922 6.04705 3.82922 6.04705 3.82239 6.05391 3.82239 6.05391 3.80871 6.06077 3.80871 6.06077 3.80187 6.06764 3.80187 6.06764 3.79504 6.0745 3.79504 6.0745 3.7882 6.08136 3.7882 6.08136 3.78136 6.08823 3.78136 6.08823 3.77452 6.09509 3.77452 6.09509 3.76768 6.10195 3.76768 6.10195 3.75401 6.10882 3.75401 6.10882 3.74717 6.11568 3.74717 6.11568 3.74033 6.12254 3.74033 6.12254 3.73349 6.12941 3.73349 6.12941 3.72666 6.13627 3.72666 6.13627 3.71982 6.14313 3.71982 6.14313 3.71298 6.15 3.71298 6.15 3.70614 6.15686 3.70614 6.15686 3.69931 6.16372 3.69931 6.16372 3.68563 6.17059 3.68563 6.17059 3.67879 6.17745 3.67879 6.17745 3.67195 6.18431 3.67195 6.18431 3.66512 6.19118 3.66512 6.19118 3.65828 6.19804 3.65828 6.19804 3.65144 6.2049 3.65144 6.2049 3.6446 6.21177 3.6446 6.21177 3.63776 6.21863 3.63776 6.21863 3.63093 6.22549 3.63093 6.22549 3.61725 6.23236 3.61725 6.23236 3.61041 6.23922 3.61041 6.23922 3.60357 6.24608 3.60357 6.24608 3.59674 6.25295 3.59674 6.25295 3.5899 6.25981 3.5899 6.25981 3.58306 6.26667 3.58306 6.26667 3.57622 6.27354 3.57622 6.27354 3.56939 6.2804 3.56939 6.2804 3.56255 6.28726 3.56255 6.28726 3.55571 6.29413 3.55571 6.29413 3.54887 6.30099 3.54887 6.30099 3.5352 6.30785 3.5352 6.30785 3.52836 6.31471 3.52836 6.31471 3.52152 6.32158 3.52152 6.32158 3.51468 6.32844 3.51468 6.32844 3.50784 6.3353 3.50784 6.3353 3.50101 6.34217 3.50101 6.34217 3.49417 6.34903 3.49417 6.34903 3.48733 6.35589 3.48733 6.35589 3.48049 6.36276 3.48049 6.36276 3.47365 6.36962 3.47365 6.36962 3.46682 6.37648 3.46682 6.37648 3.45998 6.38335 3.45998 6.38335 3.44631 6.39021 3.44631 6.39021 3.43947 6.39707 3.43947 6.39707 3.43263 6.40394 3.43263 6.40394 3.42579 6.4108 3.42579 6.4108 3.41895 6.41766 3.41895 6.41766 3.41212 6.42453 3.41212 6.42453 3.40528 6.43139 3.40528 6.43139 3.39844 6.43825 3.39844 6.43825 3.3916 6.44512 3.3916 6.44512 3.38476 6.45198 3.38476 6.45198 3.37793 6.45884 3.37793 6.45884 3.37109 6.46571 3.37109 6.46571 3.36425 6.47257 3.36425 6.47257 3.35741 6.47943 3.35741 6.47943 3.35058 6.4863 3.35058 6.4863 3.3369 6.49316 3.3369 6.49316 3.33006 6.50002 3.33006 6.50002 3.32322 6.50689 3.32322 6.50689 3.31639 6.51375 3.31639 6.51375 3.30955 6.52061 3.30955 6.52061 3.30271 6.52748 3.30271 6.52748 3.29587 6.53434 3.29587 6.53434 3.28903 6.5412 3.28903 6.5412 3.2822 6.54807 3.2822 6.54807 3.27536 6.55493 3.27536 6.55493 3.26852 6.56179 3.26852 6.56179 3.26168 6.56866 3.26168 6.56866 3.25484 6.57552 3.25484 6.57552 3.24801 6.58238 3.24801 6.58238 3.24117 6.58925 3.24117 6.58925 3.23433 6.59611 3.23433 6.59611 3.22749 6.60297 3.22749 6.60297 3.22066 6.60983 3.22066 6.60983 3.21382 6.6167 3.21382 6.6167 3.20698 6.62356 3.20698 6.62356 3.20014 6.63042 3.20014 6.63042 3.1933 6.63729 3.1933 6.63729 3.18647 6.64415 3.18647 6.64415 3.17963 6.65101 3.17963 6.65101 3.16595 6.65788 3.16595 6.65788 3.15911 6.66474 3.15911 6.66474 3.15228 6.6716 3.15228 6.6716 3.14544 6.67847 3.14544 6.67847 3.1386 6.68533 3.1386 6.68533 3.13176 6.69219 3.13176 6.69219 3.12492 6.69906 3.12492 6.69906 3.11809 6.70592 3.11809 6.70592 3.11125 6.71278 3.11125 6.71278 3.10441 6.71965 3.10441 6.71965 3.09757 6.72651 3.09757 6.72651 3.09074 6.73337 3.09074 6.73337 3.0839 6.74024 3.0839 6.74024 3.07706 6.7471 3.07706 6.7471 3.07022 6.75396 3.07022 6.75396 3.06338 6.76083 3.06338 6.76083 3.05655 6.76769 3.05655 6.76769 3.04971 6.77455 3.04971 6.77455 3.04287 6.78142 3.04287 6.78142 3.03603 6.78828 3.03603 6.78828 3.02919 6.79514 3.02919 6.79514 3.02236 6.80201 3.02236 6.80201 3.01552 6.80887 3.01552 6.80887 3.00868 6.81573 3.00868 6.81573 3.00185 6.8226 3.00185 6.8226 2.99501 6.82946 2.99501 6.82946 2.98817 6.83632 2.98817 6.83632 2.98133 6.84319 2.98133 6.84319 2.97449 6.85005 2.97449 6.85005 2.96766 6.85691 2.96766 6.85691 2.96082 6.86378 2.96082 6.86378 2.95398 6.87064 2.95398 6.87064 2.94714 6.8775 2.94714 6.8775 2.9403 6.88437 2.9403 6.88437 2.93347 6.89123 2.93347 6.89123 2.92663 6.89809 2.92663 6.89809 2.91979 6.90496 2.91979 6.90496 2.91295 6.91182 2.91295 6.91182 2.90611 6.91868 2.90611 6.91868 2.89928 6.92554 2.89928 6.92554 2.89244 6.93241 2.89244 6.93241 2.8856 6.93927 2.8856 6.93927 2.87876 6.94613 2.87876 6.94613 2.87193 6.953 2.87193 6.953 2.86509 6.95986 2.86509 6.95986 2.85825 6.96672 2.85825 6.96672 2.85141 6.97359 2.85141 6.97359 2.84457 6.98045 2.84457 6.98045 2.83774 6.98731 2.83774 6.98731 2.8309 6.99418 2.8309 6.99418 2.82406 7.0079 2.82406 7.0079 2.81722 7.01477 2.81722 7.01477 2.81038 7.02163 2.81038 7.02163 2.80355 7.02849 2.80355 7.02849 2.79671 7.03536 2.79671 7.03536 2.78987 7.04222 2.78987 7.04222 2.78303 7.04908 2.78303 7.04908 2.77619 7.05595 2.77619 7.05595 2.76936 7.06281 2.76936 7.06281 2.76252 7.06967 2.76252 7.06967 2.75568 7.07654 2.75568 7.07654 2.74884 7.0834 2.74884 7.0834 2.74201 7.09026 2.74201 7.09026 2.73517 7.09713 2.73517 7.09713 2.72833 7.10399 2.72833 7.10399 2.72149 7.11085 2.72149 7.11085 2.71465 7.11772 2.71465 7.11772 2.70782 7.12458 2.70782 7.12458 2.70098 7.13144 2.70098 7.13144 2.69414 7.13831 2.69414 7.13831 2.6873 7.14517 2.6873 7.14517 2.68046 7.15203 2.68046 7.15203 2.67363 7.1589 2.67363 7.1589 2.66679 7.17262 2.66679 7.17262 2.65995 7.17949 2.65995 7.17949 2.65311 7.18635 2.65311 7.18635 2.64628 7.19321 2.64628 7.19321 2.63944 7.20007 2.63944 7.20007 2.6326 7.20694 2.6326 7.20694 2.62576 7.2138 2.62576 7.2138 2.61892 7.22067 2.61892 7.22067 2.61209 7.22753 2.61209 7.22753 2.60525 7.23439 2.60525 7.23439 2.59841 7.24125 2.59841 7.24125 2.59157 7.24812 2.59157 7.24812 2.58473 7.25498 2.58473 7.25498 2.5779 7.26184 2.5779 7.26184 2.57106 7.26871 2.57106 7.26871 2.56422 7.28243 2.56422 7.28243 2.55738 7.2893 2.55738 7.2893 2.55054 7.29616 2.55054 7.29616 2.54371 7.30302 2.54371 7.30302 2.53687 7.30989 2.53687 7.30989 2.53003 7.31675 2.53003 7.31675 2.5232 7.32361 2.5232 7.32361 2.51636 7.33048 2.51636 7.33048 2.50952 7.33734 2.50952 7.33734 2.50268 7.3442 2.50268 7.3442 2.49584 7.35107 2.49584 7.35107 2.48901 7.36479 2.48901 7.36479 2.48217 7.37166 2.48217 7.37166 2.47533 7.37852 2.47533 7.37852 2.46849 7.38538 2.46849 7.38538 2.46165 7.39225 2.46165 7.39225 2.45482 7.39911 2.45482 7.39911 2.44798 7.40597 2.44798 7.40597 2.44114 7.41284 2.44114 7.41284 2.4343 7.4197 2.4343 7.4197 2.42746 7.42656 2.42746 7.42656 2.42063 7.44029 2.42063 7.44029 2.41379 7.44715 2.41379 7.44715 2.40695 7.45402 2.40695 7.45402 2.40011 7.46088 2.40011 7.46088 2.39328 7.46774 2.39328 7.46774 2.38644 7.47461 2.38644 7.47461 2.3796 7.48147 2.3796 7.48147 2.37276 7.48833 2.37276 7.48833 2.36592 7.4952 2.36592 7.4952 2.35909 7.50892 2.35909 7.50892 2.35225 7.51578 2.35225 7.51578 2.34541 7.52265 2.34541 7.52265 2.33857 7.52951 2.33857 7.52951 2.33173 7.53637 2.33173 7.53637 2.3249 7.54324 2.3249 7.54324 2.31806 7.5501 2.31806 7.5501 2.31122 7.55696 2.31122 7.55696 2.30438 7.57069 2.30438 7.57069 2.29754 7.57755 2.29754 7.57755 2.29071 7.58442 2.29071 7.58442 2.28387 7.59128 2.28387 7.59128 2.27703 7.59814 2.27703 7.59814 2.27019 7.60501 2.27019 7.60501 2.26336 7.61187 2.26336 7.61187 2.25652 7.6256 2.25652 7.6256 2.24968 7.63246 2.24968 7.63246 2.24284 7.63932 2.24284 7.63932 2.236 7.64619 2.236 7.64619 2.22917 7.65305 2.22917 7.65305 2.22233 7.65991 2.22233 7.65991 2.21549 7.66678 2.21549 7.66678 2.20865 7.6805 2.20865 7.6805 2.20181 7.68737 2.20181 7.68737 2.19498 7.69423 2.19498 7.69423 2.18814 7.70109 2.18814 7.70109 2.1813 7.70796 2.1813 7.70796 2.17446 7.71482 2.17446 7.71482 2.16763 7.72855 2.16763 7.72855 2.16079 7.73541 2.16079 7.73541 2.15395 7.74227 2.15395 7.74227 2.14711 7.74914 2.14711 7.74914 2.14027 7.756 2.14027 7.756 2.13344 7.76973 2.13344 7.76973 2.1266 7.77659 2.1266 7.77659 2.11976 7.78345 2.11976 7.78345 2.11292 7.79032 2.11292 7.79032 2.10608 7.79718 2.10608 7.79718 2.09925 7.80404 2.09925 7.80404 2.09241 7.81777 2.09241 7.81777 2.08557 7.82463 2.08557 7.82463 2.07873 7.83149 2.07873 7.83149 2.0719 7.83836 2.0719 7.83836 2.06506 7.84522 2.06506 7.84522 2.05822 7.85895 2.05822 7.85895 2.05138 7.86581 2.05138 7.86581 2.04455 7.87267 2.04455 7.87267 2.03771 7.87954 2.03771 7.87954 2.03087 7.8864 2.03087 7.8864 2.02403 7.90013 2.02403 7.90013 2.01719 7.90699 2.01719 7.90699 2.01036 7.91385 2.01036 7.91385 2.00352 7.92072 2.00352 7.92072 1.99668 7.92758 1.99668 7.92758 1.98984 7.94131 1.98984 7.94131 1.983 7.94817 1.983 7.94817 1.97617 7.95503 1.97617 7.95503 1.96933 7.9619 1.96933 7.9619 1.96249 7.97562 1.96249 7.97562 1.95565 7.98249 1.95565 7.98249 1.94881 7.98935 1.94881 7.98935 1.94198 7.99621 1.94198 7.99621 1.93514 8.00308 1.93514 8.00308 1.9283 8.0168 1.9283 8.0168 1.92146 8.02367 1.92146 8.02367 1.91463 8.03053 1.91463 8.03053 1.90779 8.03739 1.90779 8.03739 1.90095 8.05112 1.90095 8.05112 1.89411 8.05798 1.89411 8.05798 1.88727 8.06485 1.88727 8.06485 1.88044 8.07171 1.88044 8.07171 1.8736 8.08544 1.8736 8.08544 1.86676 8.0923 1.86676 8.0923 1.85992 8.09916 1.85992 8.09916 1.85308 8.10603 1.85308 8.10603 1.84625 8.11975 1.84625 8.11975 1.83941 8.12661 1.83941 8.12661 1.83257 8.13348 1.83257 8.13348 1.82573 8.1472 1.82573 8.1472 1.8189 8.15407 1.8189 8.15407 1.81206 8.16093 1.81206 8.16093 1.80522 8.16779 1.80522 8.16779 1.79838 8.17466 1.79838 8.17466 1.79154 8.18152 1.79154 8.18152 1.78471 8.18838 1.78471 8.18838 1.77787 8.19525 1.77787 8.19525 1.77103 8.20211 1.77103 8.20211 1.76419 8.20897 1.76419 8.20897 1.75735 8.21584 1.75735 8.21584 1.75052 8.2227 1.75052 8.2227 1.73684 8.22956 1.73684 8.22956 1.73 8.23643 1.73 8.23643 1.72316 8.24329 1.72316 8.24329 1.71633 8.25015 1.71633 8.25015 1.70949 8.25702 1.70949 8.25702 1.70265 8.26388 1.70265 8.26388 1.69581 8.27074 1.69581 8.27074 1.68898 8.27761 1.68898 8.27761 1.68214 8.28447 1.68214 8.28447 1.6753 8.29133 1.6753 8.29133 1.66162 8.2982 1.66162 8.2982 1.65479 8.30506 1.65479 8.30506 1.64795 8.31192 1.64795 8.31192 1.64111 8.31879 1.64111 8.31879 1.63427 8.32565 1.63427 8.32565 1.62744 8.33251 1.62744 8.33251 1.61376 8.33938 1.61376 8.33938 1.60692 8.34624 1.60692 8.34624 1.60008 8.3531 1.60008 8.3531 1.59325 8.35997 1.59325 8.35997 1.58641 8.36683 1.58641 8.36683 1.57957 8.37369 1.57957 8.37369 1.57273 8.38056 1.57273 8.38056 1.55906 8.38742 1.55906 8.38742 1.55222 8.39428 1.55222 8.39428 1.54538 8.40114 1.54538 8.40114 1.53854 8.40801 1.53854 8.40801 1.53171 8.41487 1.53171 8.41487 1.51803 8.42173 1.51803 8.42173 1.51119 8.4286 1.51119 8.4286 1.50435 8.43546 1.50435 8.43546 1.49752 8.44232 1.49752 8.44232 1.49068 8.44919 1.49068 8.44919 1.477 8.45605 1.477 8.45605 1.47017 8.46291 1.47017 8.46291 1.46333 8.46978 1.46333 8.46978 1.45649 8.47664 1.45649 8.47664 1.44281 8.4835 1.44281 8.4835 1.43598 8.49037 1.43598 8.49037 1.42914 8.49723 1.42914 8.49723 1.4223 8.50409 1.4223 8.50409 1.40862 8.51096 1.40862 8.51096 1.40179 8.51782 1.40179 8.51782 1.39495 8.52468 1.39495 8.52468 1.38127 8.53155 1.38127 8.53155 1.37443 8.53841 1.37443 8.53841 1.3676 8.54527 1.3676 8.54527 1.35392 8.55214 1.35392 8.55214 1.34708 8.559 1.34708 8.559 1.34025 8.56586 1.34025 8.56586 1.32657 8.57273 1.32657 8.57273 1.31973 8.57959 1.31973 8.57959 1.31289 8.58645 1.31289 8.58645 1.29922 8.59332 1.29922 8.59332 1.29238 8.60018 1.29238 8.60018 1.2787 8.60704 1.2787 8.60704 1.27187 8.61391 1.27187 8.61391 1.25819 8.62077 1.25819 8.62077 1.25135 8.62763 1.25135 8.62763 1.23768 8.6345 1.23768 8.6345 1.23084 8.64136 1.23084 8.64136 1.21716 8.64822 1.21716 8.64822 1.21033 8.65509 1.21033 8.65509 1.19665 8.66195 1.19665 8.66195 1.18981 8.66881 1.18981 8.66881 1.17614 8.67568 1.17614 8.67568 1.16246 8.68254 1.16246 8.68254 1.15562 8.6894 1.15562 8.6894 1.14195 8.69627 1.14195 8.69627 1.12827 8.70313 1.12827 8.70313 1.12143 8.70999 1.12143 8.70999 1.10776 8.71685 1.10776 8.71685 1.09408 8.72372 1.09408 8.72372 1.08041 8.73058 1.08041 8.73058 1.06673 8.73744 1.06673 8.73744 1.05306 8.74431 1.05306 8.74431 1.03938 8.75117 1.03938 8.75117 1.0257 8.75803 1.0257 8.75803 1.01203 8.7649 1.01203 8.7649 1.00519 8.77176 1.00519 8.77176 0.984678 8.77862 0.984678 8.77862 0.971002 8.78549 0.971002 8.78549 0.957326 8.79235 0.957326 8.79235 0.94365 8.79921 0.94365 8.79921 0.923136 8.80608 0.923136 8.80608 0.90946 8.81294 0.90946 8.81294 0.888946 8.8198 0.888946 8.8198 0.875272 8.82667 0.875272 8.82667 0.854759 8.83353 0.854759 8.83353 0.834245 8.84039 0.834245 8.84039 0.813731 8.84726 0.813731 8.84726 0.793217 8.85412 0.793217 8.85412 0.772703 8.86098 0.772703 8.86098 0.745353 8.86785 0.745353 8.86785 0.724839 8.87471 0.724839 8.87471 0.697487 8.88157 0.697487 8.88157 0.670135 8.88844 0.670135 8.88844 0.635948 8.8953 0.635948 8.8953 0.608596 8.90216 0.608596 8.90216 0.574406 8.90903 0.574406 8.90903 0.533378 8.91589 0.533378 8.91589 0.492352 8.92275 0.492352 8.92275 0.444486 8.92962 0.444486 8.92962 0.389785 8.93648 0.389785 8.93648 0.328243 8.94334 0.328243 8.94334 0.259865 8.95021 0.259865 8.95021 0.177812 8.95707 0.177812 8.95707 0.0957559 8.96393 0.0957559 8.96393 0.00686431 8.9708 0.00686431 8.9708 2.63431e-05 8.97766 2.63431e-05 8.97766 0.00686431 8.98452 0.00686431 8.98452 0.0273782 8.99138 0.0273782 8.99138 0.0478921 8.99825 0.0478921 8.99825 0.068404 9.00511 0.068404 9.00511 0.0957559 9.01198 0.0957559 9.01198 0.11627 9.01884 0.11627 9.01884 0.143622 9.0257 0.143622 9.0257 0.177812 9.03256 0.177812 9.03256 0.205161 9.03943 0.205161 9.03943 0.239351 9.04629 0.239351 9.04629 0.280379 9.05315 0.280379 9.05315 0.321405 9.06002 0.321405 9.06002 0.355595 9.06688 0.355595 9.06688 0.403461 9.07374 0.403461 9.07374 0.451324 9.08061 0.451324 9.08061 0.49919 9.08747 0.49919 9.08747 0.553892 9.09433 0.553892 9.09433 0.608596 9.1012 0.608596 9.1012 0.670135 9.10806 0.670135 9.10806 0.731677 9.11492 0.731677 9.11492 0.793217 9.12179 0.793217 9.12179 0.868434 9.12865 0.868434 9.12865 0.936812 9.13551 0.936812 9.13551 1.01203 9.14238 1.01203 9.14238 1.09408 9.14924 1.09408 9.14924 1.17614 9.1561 1.17614 9.1561 1.26503 9.16297 1.26503 9.16297 1.35392 9.16983 1.35392 9.16983 1.44965 9.17669 1.44965 9.17669 1.55222 9.18356 1.55222 9.18356 1.65479 9.19042 1.65479 9.19042 1.77103 9.19728 1.77103 9.19728 1.88044 9.20415 1.88044 9.20415 2.00352 9.21101 2.00352 9.21101 2.13344 9.21787 2.13344 9.21787 2.26336 9.22474 2.26336 9.22474 2.40011 9.2316 2.40011 9.2316 2.55054 9.23846 2.55054 9.23846 2.70098 9.24533 2.70098 9.24533 2.86509 9.25219 2.86509 9.25219 3.02919 9.25905 3.02919 9.25905 3.20698 9.26592 3.20698 9.26592 3.3916 9.27278 3.3916 9.27278 3.5899 9.27964 3.5899 9.27964 3.79504 9.28651 3.79504 9.28651 4.00701 9.29337 4.00701 9.29337 4.23266 9.30023 4.23266 9.30023 4.47882 9.30709 4.47882 9.30709 4.73182 9.31396 4.73182 9.31396 5.00533 9.32082 5.00533 9.32082 5.29252 9.32768 5.29252 9.32768 5.60023 9.33455 5.60023 9.33455 5.92161 9.34141 5.92161 9.34141 6.27718 9.34827 6.27718 9.34827 6.65326 9.35514 6.65326 9.35514 7.05669 9.362 7.05669 9.362 7.50115 9.36886 7.50115 9.36886 7.98664 9.37573 7.98664 9.37573 8.51999 9.38259 8.51999 9.38259 9.10805 9.38945 9.10805 9.38945 9.77816 9.39632 9.77816 9.39632 10.544 9.40318 10.544 9.40318 11.4398 9.41004 11.4398 9.41004 12.5133 9.41691 12.5133 9.41691 13.8262 9.42377 13.8262 9.42377 15.3373 9.43063 15.3373 9.43063 16.6502 9.4375 16.6502 9.4375 17.4366 9.44436 17.4366 9.44436 17.8331 9.45122 17.8331 9.45122 18.0656 9.45809 18.0656 9.45809 18.3391 9.46495 18.3391 9.46495 18.6263 9.47181 18.6263 9.47181 18.9751 9.47868 18.9751 9.47868 19.4059 9.48554 19.4059 9.48554 20.0691 9.4924 20.0691 9.4924 21.3888 9.48554 21.3888 9.48554 22.0589 9.47868 22.0589 9.47868 22.4897 9.47181 22.4897 9.47181 22.8521 9.46495 22.8521 9.46495 23.1256 9.45809 23.1256 9.45809 23.3992 9.45122 23.3992 9.45122 23.6248 9.44436 23.6248 9.44436 23.8436 9.4375 23.8436 9.4375 24.0556 9.43063 24.0556 9.43063 24.2402 9.42377 24.2402 9.42377 24.418 9.41691 24.418 9.41691 24.6026 9.41004 24.6026 9.41004 24.7599 9.40318 24.7599 9.40318 24.9103 9.39632 24.9103 9.39632 25.0676 9.38945 25.0676 9.38945 25.218 9.38259 25.218 9.38259 25.3548 9.37573 25.3548 9.37573 25.4847 9.36886 25.4847 9.36886 25.6215 9.362 25.6215 9.362 25.7514 9.35514 25.7514 9.35514 25.8745 9.34827 25.8745 9.34827 25.9907 9.34141 25.9907 9.34141 26.1138 9.33455 26.1138 9.33455 26.23 9.32768 26.23 9.32768 26.3394 9.32082 26.3394 9.32082 26.4488 9.31396 26.4488 9.31396 26.5582 9.30709 26.5582 9.30709 26.6677 9.30023 26.6677 9.30023 26.7702 9.29337 26.7702 9.29337 26.866 9.28651 26.866 9.28651 26.9617 9.27964 26.9617 9.27964 27.0574 9.27278 27.0574 9.27278 27.16 9.26592 27.16 9.26592 27.2489 9.25905 27.2489 9.25905 27.3378 9.25219 27.3378 9.25219 27.4267 9.24533 27.4267 9.24533 27.5155 9.23846 27.5155 9.23846 27.6044 9.2316 27.6044 9.2316 27.6933 9.22474 27.6933 9.22474 27.7754 9.21787 27.7754 9.21787 27.8574 9.21101 27.8574 9.21101 27.9395 9.20415 27.9395 9.20415 28.0215 9.19728 28.0215 9.19728 28.0968 9.19042 28.0968 9.19042 28.1788 9.18356 28.1788 9.18356 28.254 9.17669 28.254 9.17669 28.3293 9.16983 28.3293 9.16983 28.3976 9.16297 28.3976 9.16297 28.4728 9.1561 28.4728 9.1561 28.5481 9.14924 28.5481 9.14924 28.6233 9.14238 28.6233 9.14238 28.6917 9.13551 28.6917 9.13551 28.76 9.12865 28.76 9.12865 28.8216 9.12179 28.8216 9.12179 28.89 9.11492 28.89 9.11492 28.9583 9.10806 28.9583 9.10806 29.0267 9.1012 29.0267 9.1012 29.0883 9.09433 29.0883 9.09433 29.1498 9.08747 29.1498 9.08747 29.2182 9.08061 29.2182 9.08061 29.2797 9.07374 29.2797 9.07374 29.3413 9.06688 29.3413 9.06688 29.4028 9.06002 29.4028 9.06002 29.4643 9.05315 29.4643 9.05315 29.519 9.04629 29.519 9.04629 29.5737 9.03943 29.5737 9.03943 29.6353 9.03256 29.6353 9.03256 29.69 9.0257 29.69 9.0257 29.7515 9.01884 29.7515 9.01884 29.8062 9.01198 29.8062 9.01198 29.8609 9.00511 29.8609 9.00511 29.9088 8.99825 29.9088 8.99825 29.9635 8.99138 29.9635 8.99138 30.0182 8.98452 30.0182 8.98452 30.0729 8.97766 30.0729 8.97766 30.1208 8.9708 30.1208 8.9708 30.1755 8.96393 30.1755 8.96393 30.2233 8.95707 30.2233 8.95707 30.2712 8.95021 30.2712 8.95021 30.3191 8.94334 30.3191 8.94334 30.3669 8.93648 30.3669 8.93648 30.4148 8.92962 30.4148 8.92962 30.4627 8.92275 30.4627 8.92275 30.5105 8.91589 30.5105 8.91589 30.5584 8.90903 30.5584 8.90903 30.5994 8.90216 30.5994 8.90216 30.6473 8.8953 30.6473 8.8953 30.6883 8.88844 30.6883 8.88844 30.7362 8.88157 30.7362 8.88157 30.7772 8.87471 30.7772 8.87471 30.8182 8.86785 30.8182 8.86785 30.8661 8.86098 30.8661 8.86098 30.9003 8.85412 30.9003 8.85412 30.9413 8.84726 30.9413 8.84726 30.9823 8.84039 30.9823 8.84039 31.0234 8.83353 31.0234 8.83353 31.0644 8.82667 31.0644 8.82667 31.1054 8.8198 31.1054 8.8198 31.1396 8.81294 31.1396 8.81294 31.1806 8.80608 31.1806 8.80608 31.2148 8.79921 31.2148 8.79921 31.249 8.79235 31.249 8.79235 31.29 8.78549 31.29 8.78549 31.3242 8.77862 31.3242 8.77862 31.3584 8.77176 31.3584 8.77176 31.3926 8.7649 31.3926 8.7649 31.4268 8.75803 31.4268 8.75803 31.461 8.75117 31.461 8.75117 31.4952 8.74431 31.4952 8.74431 31.5225 8.73744 31.5225 8.73744 31.5567 8.73058 31.5567 8.73058 31.5909 8.72372 31.5909 8.72372 31.6251 8.71685 31.6251 8.71685 31.6524 8.70999 31.6524 8.70999 31.6866 8.70313 31.6866 8.70313 31.714 8.69627 31.714 8.69627 31.7413 8.6894 31.7413 8.6894 31.7687 8.68254 31.7687 8.68254 31.796 8.67568 31.796 8.67568 31.8234 8.66881 31.8234 8.66881 31.8576 8.66195 31.8576 8.66195 31.8849 8.65509 31.8849 8.65509 31.9055 8.64822 31.9055 8.64822 31.9328 8.64136 31.9328 8.64136 31.9602 8.6345 31.9602 8.6345 31.9807 8.62763 31.9807 8.62763 32.008 8.62077 32.008 8.62077 32.0354 8.61391 32.0354 8.61391 32.0559 8.60704 32.0559 8.60704 32.0764 8.60018 32.0764 8.60018 32.1037 8.59332 32.1037 8.59332 32.1243 8.58645 32.1243 8.58645 32.1448 8.57959 32.1448 8.57959 32.1653 8.57273 32.1653 8.57273 32.1858 8.56586 32.1858 8.56586 32.2063 8.559 32.2063 8.559 32.2268 8.55214 32.2268 8.55214 32.2473 8.54527 32.2473 8.54527 32.2679 8.53841 32.2679 8.53841 32.2815 8.53155 32.2815 8.53155 32.302 8.52468 32.302 8.52468 32.3226 8.51782 32.3226 8.51782 32.3362 8.51096 32.3362 8.51096 32.3499 8.50409 32.3499 8.50409 32.3636"></polyline>
                    <path d="M106.294,29.2283 C106.866,29.6844 108.011,29.8722 109.02,29.8722 C110.329,29.8722 111.611,29.6304 112.863,28.5044 C114.145,27.3506 115.017,25.5805 115.017,22.7642 C115.017,20.0552 113.981,17.8557 111.855,16.5682 C110.656,15.8173 109.102,15.5224 107.329,15.5224 C106.812,15.5224 106.294,15.5491 105.994,15.6832 C105.912,15.7368 105.748,15.9514 105.748,16.0589 C105.695,16.5416 105.695,20.2162 105.695,22.3886 C105.695,24.6147 105.695,27.7261 105.748,28.102 C105.776,28.4237 105.94,28.9869 106.294,29.2283 Z M100.853,14.3153 C101.316,14.3153 103.078,14.3957 103.895,14.3957 C105.422,14.3957 106.485,14.3153 109.347,14.3153 C111.746,14.3153 113.763,14.9591 115.208,16.1927 C116.953,17.6949 117.88,19.787 117.88,22.335 C117.88,25.956 116.217,28.0481 114.554,29.2283 C112.891,30.462 110.738,31.1595 107.657,31.1595 C106.021,31.1595 103.213,31.1058 100.868,31.0793 L100.837,31.0793 C100.728,30.8644 101.038,30.028 101.23,30.0063 C101.864,29.9348 102.035,29.9105 102.329,29.7898 C102.824,29.587 102.94,29.3357 102.996,28.4505 C103.078,26.7876 103.05,24.8029 103.05,22.5496 C103.05,20.9404 103.078,17.8022 103.023,16.8097 C102.94,15.9783 102.587,15.7638 101.879,15.6027 C101.523,15.5224 101.033,15.4418 100.352,15.3613 C100.297,15.2005 100.717,14.476 100.853,14.3153 Z" id="Shape"></path>
                    <path d="M125.1,15.6293 C124.991,15.6561 124.855,15.9245 124.855,16.0585 C124.828,17.0239 124.801,19.5452 124.801,21.2885 C124.801,21.3422 124.882,21.4226 124.936,21.4226 C125.291,21.4498 126.163,21.4766 126.899,21.4766 C127.935,21.4766 128.535,21.3422 128.863,21.1812 C129.735,20.7523 130.143,19.8134 130.143,18.7942 C130.143,16.4607 128.508,15.5755 126.082,15.5755 C125.918,15.5755 125.454,15.5755 125.1,15.6293 Z M131.288,26.3582 C131.288,23.9979 129.544,22.6569 126.354,22.6569 C126.218,22.6569 125.209,22.6298 124.964,22.6837 C124.882,22.7103 124.801,22.7639 124.801,22.8175 C124.801,24.5076 124.773,27.2166 124.855,28.2893 C124.909,28.7453 125.236,29.3891 125.645,29.5769 C126.082,29.8183 127.063,29.872 127.744,29.872 C129.625,29.872 131.288,28.8257 131.288,26.3582 Z M120.177,14.3149 C120.422,14.3149 121.148,14.3953 123.001,14.3953 C124.746,14.3953 126.163,14.3419 127.854,14.3419 C129.952,14.3419 132.842,15.0928 132.842,18.2043 C132.842,19.733 131.752,20.9669 130.334,21.557 C130.252,21.5839 130.252,21.6375 130.334,21.6644 C132.351,22.1738 134.123,23.4077 134.123,25.768 C134.123,28.0747 132.678,29.5233 130.58,30.4353 C129.298,30.9983 127.718,31.1861 126.108,31.1861 C124.882,31.1861 121.595,31.052 119.768,31.0791 C119.577,30.9983 119.943,30.1399 120.106,30.0061 C120.543,29.9793 120.879,29.948 121.342,29.8139 C121.996,29.6529 122.074,29.4428 122.156,28.477 C122.21,27.6458 122.21,24.6685 122.21,22.5493 C122.21,19.6524 122.238,17.6946 122.21,16.729 C122.183,15.9779 121.91,15.7364 121.392,15.6023 C120.984,15.522 120.302,15.4414 119.758,15.3609 C119.621,15.2268 120.041,14.4222 120.177,14.3149 Z" id="Shape"></path>
                    <path d="M22.6526,31.1476 C22.6072,31.0754 22.5591,30.8621 22.5692,30.6053 C22.5766,30.4103 22.6156,30.2864 22.6523,30.2439 C23.1664,30.1631 23.4098,30.1084 23.6987,30.0315 C24.1806,29.9124 24.3624,29.6531 24.3907,29.039 C24.4699,27.5924 24.4744,24.8799 24.4455,22.9722 L24.4458,22.9159 C24.4481,22.7113 24.4513,22.4315 24.1933,22.2342 C23.8152,21.9861 23.3439,21.7807 22.7474,21.6025 C22.5192,21.5351 22.393,21.4157 22.3998,21.2758 C22.4069,21.1413 22.5501,20.9705 22.8477,20.9134 C23.637,20.8323 25.7068,20.3415 26.5188,19.9681 C26.5669,20.0262 26.6428,20.1524 26.6281,20.3536 C26.622,20.4382 26.6146,20.5266 26.6071,20.6183 C26.584,20.8878 26.5581,21.1934 26.5581,21.4981 C26.5581,21.5878 26.6557,21.6728 26.7593,21.6728 C26.8119,21.6728 26.8605,21.6523 26.9002,21.6134 C28.448,20.4066 29.8323,19.9758 30.545,19.9758 C31.716,19.9758 32.6274,20.5327 33.3317,21.6776 C33.3729,21.7382 33.4285,21.7701 33.4904,21.7701 C33.5495,21.7701 33.6053,21.7399 33.6381,21.6913 C35.0614,20.617 36.4718,19.9758 37.4147,19.9758 C39.6464,19.9758 40.9794,21.6382 40.9794,24.422 C40.9794,25.2219 40.9713,26.2358 40.9642,27.1824 C40.9573,28.0127 40.9515,28.7912 40.9515,29.3299 C40.9515,29.4605 41.1268,29.8227 41.3916,29.8951 C41.7178,30.0532 42.1893,30.134 42.7846,30.2362 L42.8076,30.2401 C42.8527,30.3994 42.758,31.0202 42.6674,31.1473 C42.5198,31.146 42.3149,31.1355 42.0602,31.1227 C41.5967,31.099 40.9618,31.0672 40.2225,31.0672 C38.7396,31.0672 37.9649,31.0962 37.2248,31.1438 C37.169,30.9595 37.1496,30.3655 37.2174,30.2416 C37.6491,30.1612 37.8626,30.1069 38.1216,30.0306 C38.5935,29.8757 38.7295,29.6627 38.7571,29.039 C38.7678,28.5951 38.8535,24.6912 38.7016,23.7641 C38.5618,22.8035 37.8341,21.6791 36.2427,21.6791 C35.6526,21.6791 34.6987,21.9234 33.7897,22.6094 C33.7332,22.664 33.7007,22.77 33.7007,22.8396 L33.7024,22.8575 C33.8094,23.3579 33.8094,23.9413 33.8094,24.8244 C33.8094,25.3276 33.8062,25.8616 33.8033,26.3916 C33.7972,27.4679 33.7913,28.4843 33.8094,29.252 C33.8094,29.7754 34.1276,29.9002 34.3833,30.0012 C34.5222,30.0319 34.6326,30.0583 34.7429,30.0845 C34.9571,30.1359 35.1788,30.1889 35.507,30.2413 C35.5517,30.3445 35.5559,30.6526 35.4943,30.9161 C35.4599,31.0618 35.4202,31.1259 35.3995,31.1467 C34.5748,31.1186 33.7287,31.094 32.508,31.094 C32.138,31.094 31.5337,31.1099 31.0007,31.124 C30.5688,31.1355 30.1594,31.1467 29.927,31.1476 C29.8933,31.0947 29.8463,30.9247 29.8463,30.6802 C29.8463,30.4527 29.8881,30.2924 29.9313,30.2429 C30.0458,30.2218 30.1549,30.2027 30.2591,30.1841 C30.5454,30.1334 30.7926,30.09 31.0299,30.0319 C31.434,29.9093 31.5855,29.6857 31.6151,29.1744 C31.694,27.9807 31.7556,24.5424 31.5859,23.6811 C31.2971,22.2993 30.5064,21.599 29.2367,21.599 C28.4921,21.599 27.5526,21.9554 26.7843,22.5286 C26.6555,22.6232 26.5581,22.861 26.5581,23.0807 C26.5581,23.4901 26.5568,23.9778 26.5552,24.5005 C26.55,26.2275 26.5438,28.377 26.586,29.3073 C26.612,29.5931 26.7119,29.9335 27.2536,30.059 C27.3717,30.0919 27.5765,30.1261 27.8138,30.165 C27.9504,30.1877 28.0998,30.2122 28.2533,30.2397 C28.3085,30.3876 28.2747,30.9672 28.1802,31.1476 C27.9434,31.146 27.6519,31.1326 27.3176,31.1179 C26.8067,31.0956 26.1715,31.0672 25.4475,31.0672 C24.5955,31.0672 24.0021,31.0956 23.5257,31.1179 C23.2063,31.1329 22.9291,31.1464 22.6526,31.1476 Z" id="Path"></path>
                    <path d="M49.6975,21.1159 C49.2012,21.1159 48.7381,21.2452 48.3934,21.4802 C47.4466,22.0532 46.9649,23.1971 46.9649,24.8775 C46.9649,28.0243 48.5482,30.2217 50.815,30.2217 C51.4836,30.2217 52.0289,30.0305 52.4819,29.6368 C53.1785,29.0711 53.5478,27.9161 53.5478,26.2989 C53.5478,23.1987 52.0003,21.1159 49.6975,21.1159 Z M50.1341,31.389 C46.0383,31.389 44.5791,28.3992 44.5791,25.6018 C44.5791,23.6476 45.3821,22.1196 46.9666,21.0606 C48.0928,20.3718 49.4372,19.9755 50.6517,19.9755 C53.7773,19.9755 55.9606,22.2119 55.9606,25.4143 C55.9606,27.5916 55.0882,29.31 53.4381,30.384 C52.6468,30.8672 51.2736,31.389 50.1341,31.389 Z" id="Shape"></path>
                    <path d="M92.1095,21.1159 C91.6126,21.1159 91.1493,21.2452 90.8048,21.4802 C89.8584,22.0532 89.3766,23.1967 89.3766,24.8775 C89.3766,28.0243 90.9592,30.2217 93.2268,30.2217 C93.8953,30.2217 94.4403,30.0305 94.8932,29.6364 C95.5899,29.0711 95.9591,27.9164 95.9591,26.2992 C95.9591,23.199 94.4121,21.1159 92.1095,21.1159 Z M92.5453,31.389 C88.4493,31.389 86.9902,28.3996 86.9902,25.6021 C86.9902,23.6473 87.7939,22.1192 89.3786,21.0603 C90.5042,20.3714 91.8487,19.9755 93.0635,19.9755 C96.189,19.9755 98.3722,22.2122 98.3722,25.414 C98.3722,27.5919 97.4999,29.3103 95.85,30.3837 C95.0586,30.8672 93.6853,31.389 92.5453,31.389 Z" id="Shape"></path>
                    <path d="M78.4029,21.0089 C77.1407,21.0089 76.3247,22.0011 76.3247,23.5365 C76.3247,25.0863 77.0261,26.8957 79.0034,26.8957 C79.3431,26.8957 79.9581,26.7456 80.2628,26.4109 C80.7219,25.991 81.0219,25.1234 81.0219,24.2068 C81.0219,22.2042 80.0432,21.0089 78.4029,21.0089 Z M78.2402,31.6032 C77.7659,31.6032 77.4207,31.7405 77.2148,31.8558 C76.2155,32.4932 75.7523,33.13 75.7523,33.8629 C75.7523,34.5543 76.022,35.1036 76.6012,35.5919 C77.3027,36.1836 78.2491,36.4713 79.4934,36.4713 C81.9415,36.4713 83.039,35.1613 83.039,33.8629 C83.039,32.9595 82.5833,32.3537 81.6464,32.0114 C80.9237,31.7485 79.7172,31.6032 78.2402,31.6032 Z M78.4029,37.8266 C76.9327,37.8266 75.8737,37.5178 74.9685,36.8249 C74.0879,36.1484 73.694,35.1457 73.694,34.4527 C73.694,34.2534 73.7413,33.7383 74.1758,33.2462 C74.4325,32.9566 75.0254,32.4144 76.396,31.4762 C76.4386,31.4604 76.4674,31.419 76.4674,31.3688 C76.4674,31.3129 76.4317,31.2676 76.3816,31.257 C75.2519,30.8266 74.9108,30.1202 74.8086,29.7369 C74.8072,29.7232 74.8024,29.7012 74.7976,29.6779 C74.7646,29.5275 74.7344,29.3853 74.939,29.2394 C75.0968,29.127 75.3508,28.9773 75.6198,28.8192 C76.0172,28.5857 76.4674,28.3213 76.7165,28.1086 C76.7557,28.0703 76.7721,28.0141 76.7625,27.9579 C76.7529,27.901 76.72,27.8544 76.6713,27.8304 C74.9994,27.2713 74.1572,26.0354 74.1572,24.1531 C74.1572,22.9381 74.72,21.8398 75.7015,21.1395 C76.3741,20.6107 78.0617,19.9749 79.1558,19.9749 L79.2189,19.9755 C80.3438,20.002 80.9779,20.2364 81.8558,20.5599 C82.3321,20.7355 82.7837,20.8067 83.4144,20.8067 C84.3457,20.8067 84.7521,20.5129 85.1014,20.1757 C85.1213,20.2176 85.1687,20.3501 85.1899,20.6554 C85.2119,20.9667 85.1268,21.4282 84.8873,21.7574 C84.6971,22.0199 84.2558,22.2102 83.8392,22.2102 C83.7974,22.2102 83.7562,22.2083 83.7171,22.2042 C83.2881,22.1623 83.0863,22.1001 83.085,22.0991 L82.9793,22.1356 C82.9463,22.1838 82.9676,22.2374 82.9951,22.3051 C83.0019,22.3214 83.0081,22.3367 83.0108,22.347 C83.0658,22.5641 83.1625,23.198 83.1625,23.3755 C83.1625,25.3494 82.3801,26.2104 81.5346,26.8469 C80.7274,27.453 79.7837,27.8173 78.7206,27.9291 L78.7199,27.9291 C78.698,27.9291 78.5978,27.938 78.3946,27.956 C78.2635,27.9678 78.1002,27.9824 78.0762,27.9824 L78.0521,27.9856 C77.8675,28.0377 77.3885,28.2645 77.3885,28.6866 C77.3885,29.0379 77.606,29.4731 78.6417,29.551 C78.8517,29.5667 79.0775,29.5824 79.3129,29.5983 C80.6814,29.6932 82.3904,29.8113 83.1941,30.0828 C84.3004,30.4839 84.9888,31.47 84.9888,32.6561 C84.9888,34.4275 83.7232,36.0929 81.6039,37.1106 C80.5758,37.5922 79.5319,37.8266 78.4029,37.8266 Z" id="Shape"></path>
                    <path d="M71.7482,30.1617 C71.1484,30.0812 70.7118,30.0007 70.1944,29.7593 C70.1127,29.7057 70.0029,29.4643 70.0029,29.3838 C69.9486,28.5523 69.9487,26.1383 69.9487,24.5559 C69.9487,23.2683 69.7311,22.142 69.1857,21.3369 C68.5313,20.4251 67.6046,19.8887 66.4051,19.8887 C65.3422,19.8887 63.9244,20.613 62.7525,21.6055 C62.7251,21.6323 62.5451,21.8022 62.549,21.538 C62.5531,21.2743 62.5941,20.7375 62.6188,20.3993 C62.6434,20.0614 62.4402,19.9021 62.4402,19.9021 C61.6769,20.2776 59.5273,20.786 58.7334,20.8677 C58.1532,20.9789 58.007,21.5341 58.6247,21.7257 L58.6247,21.7259 C58.6247,21.7268 58.6306,21.7279 58.634,21.7288 C59.2806,21.9224 59.7162,22.1293 60.0414,22.3428 C60.2868,22.5306 60.2593,22.7989 60.2593,23.0135 C60.2866,24.8104 60.2865,27.5734 60.2047,29.0753 C60.1774,29.6655 60.0138,29.8797 59.5777,29.9874 L59.6175,29.9739 C59.2904,30.054 59.0177,30.1081 58.6088,30.1617 C58.4725,30.2955 58.4725,31.0734 58.6088,31.2347 C58.8814,31.2347 60.2718,31.1539 61.4165,31.1539 C62.9975,31.1539 63.8154,31.2347 64.2244,31.2347 C64.3879,31.0466 64.4425,30.3223 64.3334,30.1617 C63.8699,30.1349 63.5428,30.0812 63.2156,30.0007 C62.7794,29.8934 62.6703,29.6789 62.6434,29.196 C62.5888,27.9355 62.5888,25.2534 62.5888,23.4293 C62.5888,22.9196 62.7251,22.6781 62.8888,22.544 C63.4337,22.0612 64.3334,21.7396 65.1241,21.7396 C65.8871,21.7396 66.4051,21.981 66.7867,22.3026 C67.3048,22.7318 67.4956,23.3488 67.5502,23.8048 C67.6592,24.8242 67.6316,26.8626 67.6316,28.6327 C67.6316,29.5984 67.5501,29.8398 67.1957,29.9471 C67.0321,30.0276 66.5959,30.1081 66.0779,30.1617 C65.9147,30.3223 65.9689,31.0734 66.0779,31.2347 C66.7867,31.2347 67.6046,31.1539 68.8039,31.1539 C70.3035,31.1539 71.2575,31.2347 71.6391,31.2347 C71.8024,31.0466 71.8566,30.3492 71.7482,30.1617 Z" id="Path"></path>
                </g>
            </g>
        </g>
    </g>
</svg>