<?xml version="1.0" encoding="UTF-8"?>
<svg width="71px" height="48px" viewBox="0 0 71 48" version="1.1" xmlns="http://www.w3.org/2000/svg" xmlns:xlink="http://www.w3.org/1999/xlink">
    <!-- Generator: Sketch Beta 57 (83077) - https://sketch.com -->
    <title>mysql</title>
    <desc>Created with Sketch Beta.</desc>
    <g id="Page-1" stroke="none" stroke-width="1" fill="none" fill-rule="evenodd">
        <g id="00-home" transform="translate(-697.000000, -4280.000000)" fill="#FFFFFF">
            <g id="Group-3" transform="translate(298.000000, 4280.000000)">
                <g id="mysql" transform="translate(399.000000, 0.000000)">
                    <path d="M47.9906,4.79541 C47.6588,4.79541 47.4248,4.83518 47.1888,4.89277 L47.1888,4.93172 L47.2268,4.93172 C47.3847,5.24121 47.6588,5.45624 47.8527,5.7272 C48.0102,6.03753 48.1472,6.34661 48.3035,6.65735 C48.3227,6.63829 48.3415,6.61799 48.3415,6.61799 C48.6173,6.42491 48.7539,6.11501 48.7539,5.6489 C48.6357,5.51218 48.6173,5.37752 48.5187,5.24121 C48.4017,5.04773 48.1472,4.95077 47.9906,4.79541 Z" id="Path"></path>
                    <path d="M16.8788,43.0754 L14.17,43.0754 C14.0745,38.5411 13.8106,34.2775 13.3789,30.2835 L13.3551,30.2835 L9.23071,43.0754 L7.16822,43.0754 L3.06886,30.2835 L3.0447,30.2835 C2.74061,34.1192 2.54934,38.3829 2.46987,43.0754 L-4.28430001e-07,43.0754 C0.159607,37.3685 0.558962,32.0187 1.19827,27.0249 L4.55571,27.0249 L8.4638,38.8184 L8.48779,38.8184 L12.4199,27.0249 L15.6324,27.0249 C16.3358,32.8735 16.7512,38.225 16.8788,43.0754 Z" id="Path" fill-rule="nonzero"></path>
                    <path d="M28.6271,31.2337 C27.524,37.1694 26.069,41.4827 24.2631,44.1736 C22.8558,46.247 21.3143,47.2837 19.6357,47.2837 C19.1882,47.2837 18.6363,47.15 17.9815,46.8844 L17.9815,45.4536 C18.3014,45.5 18.6768,45.5248 19.1085,45.5248 C19.8916,45.5248 20.5227,45.3102 21.0029,44.8817 C21.5779,44.3597 21.8656,43.773 21.8656,43.1228 C21.8656,42.6787 21.6412,41.7674 21.1943,40.3889 L18.2215,31.2337 L20.8826,31.2337 L23.0163,38.081 C23.4956,39.6356 23.6955,40.7209 23.6156,41.3395 C24.7825,38.2483 25.5978,34.8796 26.0616,31.2337 L28.6271,31.2337 Z" id="Path" fill-rule="nonzero"></path>
                    <polygon id="Path" fill-rule="nonzero" points="64.6871 43.0758 56.9912 43.0758 56.9912 27.0253 59.5809 27.0253 59.5809 41.1014 64.6871 41.1014"></polygon>
                    <path d="M45.339,39.8648 C44.6835,38.8185 44.3551,37.1396 44.3551,34.8245 C44.3551,30.783 45.5943,28.7607 48.0716,28.7607 C49.3668,28.7607 50.3174,29.2443 50.9253,30.2106 C51.58,31.2573 51.9084,32.9217 51.9084,35.2044 C51.9084,39.2784 50.6692,41.3162 48.1919,41.3162 C46.8971,41.3162 45.9461,40.833 45.339,39.8648 Z M54.9773,43.4626 L52.0025,42.0078 C52.2673,41.7924 52.5189,41.56 52.7466,41.2909 C54.0097,39.8183 54.6418,37.6388 54.6418,34.7532 C54.6418,29.4433 52.5398,26.7868 48.3361,26.7868 C46.2741,26.7868 44.6672,27.4601 43.5165,28.8087 C42.253,30.2831 41.6221,32.4545 41.6221,35.3239 C41.6221,38.1452 42.1811,40.2149 43.3001,41.5297 C44.3233,42.718 45.8659,43.313 47.9283,43.313 C48.6983,43.313 49.4049,43.219 50.047,43.0309 L53.9211,45.2667 L54.9773,43.4626 Z" id="Shape"></path>
                    <path d="M40.4937,38.6268 C40.4937,39.9881 39.9894,41.1055 38.9842,41.9799 C37.978,42.8503 36.6264,43.2867 34.9338,43.2867 C33.3507,43.2867 31.8164,42.7845 30.3302,41.7881 L31.0255,40.4094 C32.3045,41.0434 33.4618,41.36 34.5009,41.36 C35.4757,41.36 36.2387,41.1449 36.7906,40.7198 C37.3413,40.2917 37.6714,39.6946 37.6714,38.9373 C37.6714,37.9843 37.0012,37.1696 35.7715,36.4862 C34.6363,35.8684 32.3675,34.5786 32.3675,34.5786 C31.1383,33.6893 30.522,32.7352 30.522,31.1631 C30.522,29.8629 30.9816,28.8119 31.8996,28.0124 C32.8196,27.2112 34.0067,26.8106 35.4603,26.8106 C36.9627,26.8106 38.329,27.2082 39.5595,28.0007 L38.9344,29.3781 C37.8815,28.9354 36.8432,28.7132 35.8196,28.7132 C34.989,28.7132 34.3489,28.911 33.9026,29.3088 C33.4539,29.7033 33.1764,30.2109 33.1764,30.8295 C33.1764,31.7801 33.8613,32.6046 35.1256,33.3012 C36.275,33.9193 38.5993,35.2341 38.5993,35.2341 C39.8637,36.1218 40.4937,37.0681 40.4937,38.6268 Z" id="Path" fill-rule="nonzero"></path>
                    <path d="M67.9365,21.6488 C66.3713,21.61 65.1593,21.7648 64.1427,22.1918 C63.8494,22.3081 63.3806,22.3081 63.3405,22.6766 C63.498,22.8315 63.5168,23.0833 63.6547,23.2976 C63.8887,23.6855 64.2985,24.2083 64.6708,24.4805 C65.0815,24.7909 65.4923,25.1001 65.923,25.3715 C66.6851,25.839 67.5458,26.1093 68.2879,26.5749 C68.7195,26.8461 69.1482,27.1949 69.5798,27.4865 C69.7941,27.6416 69.9299,27.8941 70.2049,27.9901 L70.2049,27.9313 C70.067,27.7573 70.0285,27.5051 69.8923,27.3101 C69.6972,27.1177 69.5012,26.942 69.3053,26.7489 C68.7379,25.9927 68.033,25.334 67.2722,24.7909 C66.6459,24.3631 65.2762,23.7813 65.023,23.0659 C65.023,23.0659 65.0026,23.0453 64.9833,23.0262 C65.4137,22.9869 65.923,22.8315 66.3333,22.7138 C66.9972,22.5398 67.6035,22.5792 68.2879,22.4051 C68.6013,22.327 68.9142,22.2294 69.2284,22.134 L69.2284,21.9583 C68.8745,21.61 68.6213,21.1438 68.2499,20.8144 C67.2534,19.9614 66.157,19.1282 65.023,18.4289 C64.4159,18.041 63.6338,17.7901 62.9883,17.4596 C62.7547,17.343 62.364,17.2856 62.2266,17.0906 C61.8743,16.6641 61.678,16.1024 61.4243,15.5974 C60.8578,14.532 60.3092,13.3494 59.8212,12.2227 C59.4694,11.467 59.2542,10.7112 58.8238,10.0126 C56.8087,6.71512 54.6193,4.71875 51.2558,2.75967 C50.5322,2.35194 49.6719,2.1775 48.7535,1.96411 C48.2638,1.9438 47.7754,1.9061 47.2865,1.88704 C46.9732,1.75071 46.6598,1.38194 46.3865,1.20749 C45.2714,0.509714 42.398,-1.00269 41.5762,0.99451 C41.048,2.25581 42.3583,3.4964 42.8083,4.13658 C43.1405,4.58201 43.5713,5.08711 43.8048,5.59056 C43.9419,5.92039 43.9811,6.2701 44.1186,6.61857 C44.4311,7.47173 44.724,8.42227 45.1356,9.21783 C45.3499,9.62515 45.5843,10.0523 45.858,10.4191 C46.0159,10.6337 46.2888,10.7294 46.3477,11.0795 C46.0748,11.467 46.0535,12.0487 45.8973,12.5339 C45.1937,14.7255 45.4669,17.4405 46.4647,19.0499 C46.7768,19.5346 47.5209,20.6016 48.5183,20.1934 C49.3982,19.8449 49.2027,18.7394 49.4567,17.7704 C49.5152,17.536 49.4759,17.3822 49.5929,17.2273 L49.5929,17.2665 C49.8666,17.8087 50.1411,18.331 50.3951,18.8759 C51.0022,19.8252 52.0572,20.8144 52.938,21.4732 C53.4059,21.8236 53.7778,22.4238 54.3644,22.6378 L54.3644,22.5792 L54.326,22.5792 C54.2082,22.4051 54.0327,22.327 53.876,22.1918 C53.5242,21.8425 53.1339,21.4157 52.859,21.0281 C52.038,19.9425 51.3135,18.7394 50.6696,17.4984 C50.3558,16.8958 50.0826,16.2371 49.8281,15.6363 C49.7111,15.4046 49.7111,15.0545 49.5152,14.9385 C49.221,15.3646 48.7919,15.7337 48.5772,16.2557 C48.2053,17.0906 48.1665,18.1182 48.0286,19.1853 C47.9509,19.2056 47.9901,19.1853 47.9509,19.2238 C47.3258,19.0688 47.1106,18.4289 46.8754,17.8877 C46.2888,16.509 46.1902,14.2983 46.6995,12.708 C46.8357,12.3015 47.424,11.0215 47.1883,10.6337 C47.0701,10.2637 46.6794,10.0523 46.4647,9.76023 C46.2111,9.39186 45.9357,8.92737 45.7615,8.51923 C45.2918,7.43361 45.0558,6.23074 44.549,5.14512 C44.3141,4.64002 43.9026,4.11627 43.5713,3.65178 C43.199,3.12803 42.7887,2.75967 42.495,2.13979 C42.398,1.92599 42.261,1.57669 42.4168,1.34464 C42.4553,1.18926 42.5346,1.13083 42.6913,1.09188 C42.9441,0.878491 43.6686,1.14948 43.9222,1.26592 C44.6463,1.55597 45.2526,1.82903 45.858,2.23551 C46.1321,2.42985 46.4254,2.79821 46.7768,2.89599 L47.1883,2.89599 C47.8138,3.03066 48.5183,2.9337 49.1053,3.10897 C50.1411,3.43839 51.0795,3.92319 51.921,4.44693 C54.4818,6.05671 56.5939,8.34561 58.0208,11.0795 C58.256,11.525 58.3546,11.9327 58.5694,12.3972 C58.9801,13.3494 59.489,14.319 59.8989,15.2489 C60.3092,16.1605 60.7011,17.0906 61.2886,17.8481 C61.581,18.2546 62.7547,18.468 63.2828,18.6814 C63.6731,18.8554 64.2802,19.0108 64.6324,19.2238 C65.2971,19.6304 65.9606,20.0966 66.5874,20.5433 C66.8995,20.7761 67.8776,21.2603 67.9365,21.6488 Z" id="Path"></path>
                    <path d="M66.5356,43.074 L66.9647,43.074 L66.9647,41.441 L67.5263,41.441 L67.5263,41.1075 L65.9523,41.1075 L65.9523,41.441 L66.5356,41.441 L66.5356,43.074 Z M69.8009,43.074 L70.2053,43.074 L70.2053,41.1075 L69.597,41.1075 L69.1019,42.4479 L68.5629,41.1075 L67.9767,41.1075 L67.9767,43.074 L68.3594,43.074 L68.3594,41.5773 L68.3811,41.5773 L68.9456,43.074 L69.2372,43.074 L69.8009,41.5773 L69.8009,43.074 Z" id="Shape" fill-rule="nonzero"></path>
                </g>
            </g>
        </g>
    </g>
</svg>