<?xml version="1.0" encoding="UTF-8"?>
<svg width="86px" height="31px" viewBox="0 0 86 31" version="1.1" xmlns="http://www.w3.org/2000/svg" xmlns:xlink="http://www.w3.org/1999/xlink">
    <!-- Generator: Sketch Beta 57 (83077) - https://sketch.com -->
    <title>neo4j</title>
    <desc>Created with Sketch Beta.</desc>
    <g id="Page-1" stroke="none" stroke-width="1" fill="none" fill-rule="evenodd">
        <g id="00-home" transform="translate(-1056.000000, -4289.000000)" fill="#FFFFFF">
            <g id="Group-3" transform="translate(298.000000, 4280.000000)">
                <g id="neo4j" transform="translate(758.000000, 9.000000)">
                    <path d="M12.8977,1.35254 C6.15827,1.35254 0.686049,6.86111 0.686049,13.6577 C0.686049,20.4424 6.15787,25.9514 12.9091,25.9514 C19.649,25.9514 25.1208,20.454 25.1208,13.6577 C25.1208,6.86131 19.6488,1.35254 12.8977,1.35254 Z M1.3500312e-13,13.6577 C1.3500312e-13,6.48008 5.77897,0.661879 12.8977,0.661879 C20.0277,0.661879 25.8069,6.47987 25.8069,13.6577 C25.8069,20.8358 20.0275,26.6421 12.9091,26.6421 C5.77938,26.6421 1.3500312e-13,20.8243 1.3500312e-13,13.6577 Z" id="Shape"></path>
                    <path d="M5.91146,9.51381 C5.91146,10.0778 5.46553,10.5268 4.90526,10.5268 C4.34499,10.5268 3.89905,10.0778 3.89905,9.51381 C3.89905,8.94977 4.34499,8.50084 4.90526,8.50084 C5.46553,8.50084 5.91146,8.94977 5.91146,9.51381 Z" id="Path" fill-rule="nonzero"></path>
                    <path d="M6.08298,12.288 C6.08298,12.852 5.63704,13.3009 5.07677,13.3009 C4.5165,13.3009 4.07057,12.852 4.07057,12.288 C4.07057,11.7239 4.5165,11.275 5.07677,11.275 C5.63704,11.275 6.08298,11.7239 6.08298,12.288 Z" id="Path" fill-rule="nonzero"></path>
                    <path d="M6.70041,15.2232 C6.70041,15.7873 6.25448,16.2362 5.6942,16.2362 C5.13393,16.2362 4.688,15.7873 4.688,15.2232 C4.688,14.6592 5.13393,14.2103 5.6942,14.2103 C6.24304,14.2103 6.70041,14.6592 6.70041,15.2232 Z" id="Path" fill-rule="nonzero"></path>
                    <path d="M8.0725,17.8592 C8.0725,18.4233 7.62657,18.8722 7.0663,18.8722 C6.50603,18.8722 6.0601,18.4233 6.0601,17.8592 C6.0601,17.2952 6.50603,16.8463 7.0663,16.8463 C7.62657,16.8463 8.0725,17.2952 8.0725,17.8592 Z" id="Path" fill-rule="nonzero"></path>
                    <path d="M18.8206,21.5427 C18.8206,22.1068 18.3747,22.5557 17.8144,22.5557 C17.2541,22.5557 16.8082,22.1068 16.8082,21.5427 C16.8082,20.9787 17.2541,20.5298 17.8144,20.5298 C18.3747,20.5298 18.8206,20.9787 18.8206,21.5427 Z" id="Path" fill-rule="nonzero"></path>
                    <path d="M20.6501,19.3672 C20.6501,19.9312 20.2041,20.3801 19.6439,20.3801 C19.0836,20.3801 18.6377,19.9312 18.6377,19.3672 C18.6377,18.8032 19.0836,18.3542 19.6439,18.3542 C20.2041,18.3542 20.6501,18.8032 20.6501,19.3672 Z" id="Path" fill-rule="nonzero"></path>
                    <path d="M15.3561,3.98855 C15.3561,4.55259 14.9101,5.00152 14.3499,5.00152 C13.7896,5.00152 13.3437,4.55259 13.3437,3.98855 C13.3437,3.42452 13.7896,2.97559 14.3499,2.97559 C14.9101,2.97559 15.3561,3.43603 15.3561,3.98855 Z" id="Path" fill-rule="nonzero"></path>
                    <path d="M12.7148,3.05616 C12.7148,3.62019 12.2688,4.06912 11.7086,4.06912 C11.1483,4.06912 10.7024,3.62019 10.7024,3.05616 C10.7024,2.49212 11.1483,2.04319 11.7086,2.04319 C12.2688,2.04319 12.7148,2.50363 12.7148,3.05616 Z" id="Path" fill-rule="nonzero"></path>
                    <path d="M19.8382,17.3758 C23.5325,17.3758 26.5272,14.3609 26.5272,10.6419 C26.5272,6.92286 23.5325,3.90799 19.8382,3.90799 C16.144,3.90799 13.1493,6.92286 13.1493,10.6419 C13.1493,14.3609 16.144,17.3758 19.8382,17.3758 Z" id="Path" fill-rule="nonzero"></path>
                    <path d="M19.8382,4.10943 C16.2545,4.10943 13.3494,7.03411 13.3494,10.6419 C13.3494,14.2497 16.2545,17.1744 19.8382,17.1744 C23.4219,17.1744 26.3271,14.2497 26.3271,10.6419 C26.3271,7.03411 23.4219,4.10943 19.8382,4.10943 Z M12.9492,10.6419 C12.9492,6.81161 16.0335,3.70655 19.8382,3.70655 C23.643,3.70655 26.7273,6.81161 26.7273,10.6419 C26.7273,14.4722 23.643,17.5772 19.8382,17.5772 C16.0335,17.5772 12.9492,14.4722 12.9492,10.6419 Z" id="Shape"></path>
                    <path d="M10.668,29.8882 C13.6929,29.8882 16.145,27.4196 16.145,24.3744 C16.145,21.3293 13.6929,18.8607 10.668,18.8607 C7.64321,18.8607 5.19109,21.3293 5.19109,24.3744 C5.19109,27.4196 7.64321,29.8882 10.668,29.8882 Z" id="Path" fill-rule="nonzero"></path>
                    <path d="M10.668,19.0621 C7.75372,19.0621 5.39119,21.4405 5.39119,24.3744 C5.39119,27.3083 7.75372,29.6867 10.668,29.6867 C13.5824,29.6867 15.9449,27.3083 15.9449,24.3744 C15.9449,21.4405 13.5824,19.0621 10.668,19.0621 Z M4.99099,24.3744 C4.99099,21.218 7.5327,18.6593 10.668,18.6593 C13.8034,18.6593 16.3451,21.218 16.3451,24.3744 C16.3451,27.5308 13.8034,30.0896 10.668,30.0896 C7.5327,30.0896 4.99099,27.5308 4.99099,24.3744 Z" id="Shape"></path>
                    <path d="M6.163,7.54542 C8.17746,7.54542 9.8105,5.90142 9.8105,3.87343 C9.8105,1.84545 8.17746,0.201442 6.163,0.201442 C4.14855,0.201442 2.51551,1.84545 2.51551,3.87343 C2.51551,5.90142 4.14855,7.54542 6.163,7.54542 Z" id="Path" fill-rule="nonzero"></path>
                    <path d="M6.163,0.402883 C4.25906,0.402883 2.71561,1.9567 2.71561,3.87343 C2.71561,5.79016 4.25906,7.34398 6.163,7.34398 C8.06695,7.34398 9.6104,5.79016 9.6104,3.87343 C9.6104,1.9567 8.06695,0.402883 6.163,0.402883 Z M2.31541,3.87343 C2.31541,1.7342 4.03804,-2.79776202e-14 6.163,-2.79776202e-14 C8.28797,-2.79776202e-14 10.0106,1.7342 10.0106,3.87343 C10.0106,6.01267 8.28797,7.74687 6.163,7.74687 C4.03804,7.74687 2.31541,6.01267 2.31541,3.87343 Z" id="Shape"></path>
                    <path d="M29.6144,6.24472 L30.8265,6.24472 L30.8265,8.61598 C31.4096,7.1656 32.633,6.04904 35.1143,6.04904 C37.9385,6.04904 39.8366,7.95985 39.8366,10.9757 L39.8366,18.596 L38.6245,18.596 L38.6245,11.2174 C38.6245,8.7426 37.1152,7.20013 34.8513,7.20013 C32.3929,7.20013 30.8379,9.11095 30.8379,11.9542 L30.8379,18.596 L29.6144,18.596 L29.6144,6.24472 Z" id="Path" fill-rule="nonzero"></path>
                    <path d="M41.9976,12.4491 C41.9976,8.60443 44.6046,5.95691 47.9891,5.95691 C51.3279,5.95691 53.6833,8.73105 53.6833,12.1038 C53.6833,12.1038 53.6833,12.4721 53.6604,12.7138 L43.1982,12.7138 C43.2668,15.6837 45.2449,17.7902 48.0463,17.7902 C50.3331,17.7902 51.911,16.8117 52.6428,15.8793 L52.6428,17.3182 C51.4994,18.3427 50.1158,18.9297 48.0463,18.9297 C44.5131,18.9297 42.009,16.3283 42.009,12.5066 L42.009,12.4491 L41.9976,12.4491 Z M52.3912,11.6088 C52.3684,9.08789 50.4246,7.10801 47.9891,7.10801 C45.4393,7.10801 43.3354,9.08789 43.2439,11.6203 L52.3912,11.6203 L52.3912,11.6088 Z" id="Shape" fill-rule="nonzero"></path>
                    <path d="M62.0302,5.9224 C65.632,5.9224 68.4791,8.69654 68.4791,12.4146 C68.4791,16.1441 65.632,18.9067 62.0302,18.9067 C58.4285,18.9067 55.5814,16.1326 55.5814,12.4146 C55.5814,8.69654 58.4285,5.9224 62.0302,5.9224 Z M62.0302,17.7557 C65.026,17.7557 67.2671,15.4535 67.2671,12.4146 C67.2671,9.37569 65.026,7.0735 62.0302,7.0735 C59.0345,7.0735 56.7934,9.37569 56.7934,12.4146 C56.7934,15.4535 59.0345,17.7557 62.0302,17.7557 Z" id="Shape" fill-rule="nonzero"></path>
                    <polygon id="Path" fill-rule="nonzero" points="74.9051 6.24469 76.2658 6.24469 71.0518 17.4218 78.6212 17.4218 78.6212 13.3815 79.8904 13.3815 79.8904 23.3269 78.6212 23.3269 78.6212 18.5959 69.1308 18.5959"></polygon>
                    <path d="M84.0524,6.2447 L85.2644,6.2447 L85.2644,20.3111 C85.2644,23.0852 83.6865,23.6377 82.1543,23.6377 C81.857,23.6377 81.5483,23.6147 81.3539,23.5687 L81.3539,22.4176 C81.6512,22.4636 81.9828,22.4866 82.2801,22.4866 C83.5264,22.4866 84.0524,21.8766 84.0524,20.3111 L84.0524,6.2447 Z M83.7894,2.94106 C83.7894,2.42306 84.201,2.05471 84.6698,2.05471 C85.1272,2.05471 85.5503,2.42306 85.5503,2.94106 C85.5503,3.43603 85.1386,3.79287 84.6698,3.79287 C84.201,3.79287 83.7894,3.42452 83.7894,2.94106 Z" id="Shape" fill-rule="nonzero"></path>
                </g>
            </g>
        </g>
    </g>
</svg>