<?xml version="1.0" encoding="UTF-8"?>
<svg width="43px" height="43px" viewBox="0 0 43 43" version="1.1" xmlns="http://www.w3.org/2000/svg" xmlns:xlink="http://www.w3.org/1999/xlink">
    <!-- Generator: Sketch Beta 57 (83077) - https://sketch.com -->
    <title>php</title>
    <desc>Created with Sketch Beta.</desc>
    <g id="Page-1" stroke="none" stroke-width="1" fill="none" fill-rule="evenodd">
        <g id="00-home" transform="translate(-566.000000, -4283.000000)" fill="#FFFFFF">
            <g id="Group-3" transform="translate(298.000000, 4280.000000)">
                <g id="php" transform="translate(268.000000, 3.000000)">
                    <path d="M33.5673,13.9959 C33.6544,13.4372 33.7365,12.9022 33.7464,12.3128 C31.366,12.0207 30.4176,12.5631 30.0439,13.0906 C28.7894,14.863 31.24,19.2064 32.2866,21.0613 C32.5555,21.5376 32.7498,21.8819 32.8392,22.0963 C32.9321,22.3185 33.0387,22.5348 33.1582,22.7442 C33.8779,21.2304 33.6919,19.6963 33.5108,18.2062 C33.4211,17.4684 33.3285,16.7055 33.3525,15.9717 C33.3769,15.2176 33.4736,14.5967 33.5673,13.9959 Z M31.5482,12.8189 C32.0538,12.7493 32.5866,12.8336 32.6284,13.1295 C32.6472,13.2626 32.5448,13.4672 32.3681,13.6508 C32.252,13.7713 32.0077,13.9803 31.6748,14.0258 C31.632,14.0318 31.5893,14.0346 31.5473,14.0346 C31.0484,14.0346 30.627,13.6408 30.5943,13.4103 C30.5535,13.1136 31.043,12.8884 31.5482,12.8189 Z" id="Shape"></path>
                    <path d="M39.0637,6.16018 C37.1098,3.69248 34.35,2.40258 30.8608,2.32646 C29.4838,2.29609 28.2537,2.46792 27.3543,2.65233 C29.4454,3.56421 30.9769,4.91604 32.0273,6.12422 C33.9473,8.33299 34.8893,10.7733 34.967,11.5887 C34.9789,11.7138 34.9696,11.8193 34.947,11.9084 C34.9773,12.7587 34.8671,13.4802 34.7586,14.1771 C34.6702,14.7429 34.5789,15.3279 34.5571,16.01 C34.5359,16.6536 34.6193,17.3387 34.7076,18.0642 C34.9224,19.8316 35.1639,21.8252 33.9294,23.8401 L33.9897,23.9148 C34.0384,23.9748 34.0867,24.0351 34.1347,24.0955 C38.9123,16.6654 40.5626,8.05287 39.0637,6.16018 Z" id="Path" fill-rule="nonzero"></path>
                    <path d="M9.48748,29.2057 C9.70656,29.2778 10.3729,29.4976 11.3377,28.3512 C12.7014,26.73 13.9824,25.3504 14.5718,24.7266 C14.4225,24.6007 14.2796,24.4675 14.1437,24.3276 C12.8195,22.962 12.2168,21.0705 12.4902,19.1381 C12.7846,17.0584 12.6743,15.222 12.6152,14.2354 C12.599,13.9659 12.5873,13.7701 12.5877,13.6316 C12.5792,13.273 12.4975,7.40672 15.9377,3.97319 C15.9543,3.95661 15.9715,3.94063 15.9884,3.92484 L16.029,3.88648 C13.9327,3.21136 8.71535,1.88011 5.54202,4.10406 C3.5921,5.47088 2.697,8.01391 2.88156,11.663 C2.94011,12.8169 3.67852,16.9317 4.94253,21.0238 C6.40299,25.7528 8.05972,28.7352 9.48748,29.2057 Z" id="Path" fill-rule="nonzero"></path>
                    <path d="M13.6839,19.3029 C13.462,20.8719 13.9466,22.403 15.014,23.5035 C15.8533,24.3692 16.957,24.8481 18.0916,24.8513 C18.222,24.3224 18.4322,23.7656 18.6584,23.1666 L18.7476,22.9296 C18.8627,22.6231 18.9976,22.3268 19.1403,22.0136 C19.8331,20.4921 20.6953,18.599 19.7017,14.057 C19.5096,13.1797 19.0479,12.6696 18.2901,12.498 C16.6291,12.122 14.3002,13.3551 13.7976,13.7957 C13.8018,13.8912 13.8091,14.0114 13.8174,14.1485 L13.8184,14.1649 C13.88,15.1929 13.9947,17.1061 13.6839,19.3029 Z M17.0725,13.2634 C17.2734,13.1132 17.6704,13.0574 18.1085,13.1176 C18.6465,13.1915 19.2011,13.4432 19.1478,13.8208 C19.1054,14.1223 18.6228,14.5307 18.092,14.5307 C18.0466,14.5307 18.0005,14.5277 17.9545,14.5213 C17.6361,14.4778 17.3146,14.2796 17.0945,13.9913 C17.0166,13.8894 16.89,13.692 16.9152,13.5134 C16.9247,13.4458 16.9596,13.3479 17.0725,13.2634 Z" id="Shape"></path>
                    <path d="M14.384,29.2874 C14.5588,29.4053 14.8569,29.5473 15.1882,29.6291 C16.7963,30.0269 19.0353,30.0542 20.5721,27.9278 C20.7541,27.6756 20.6985,27.3518 20.6489,27.1811 C20.5443,26.8197 20.286,26.4912 20.0209,26.3829 C19.6938,26.2489 19.5135,26.175 19.1191,26.6113 C18.854,26.9038 18.6628,27.1436 18.4942,27.3554 C17.7586,28.2784 17.4218,28.5917 15.2407,29.0353 C14.7898,29.1272 14.53,29.2195 14.384,29.2874 Z" id="Path" fill-rule="nonzero"></path>
                    <path d="M22.3674,37.8082 C22.9901,39.3464 23.9349,40.6919 26.6032,40.1269 C29.1768,39.5814 30.0921,38.6659 30.521,36.2076 C30.8461,34.3469 31.4856,29.0802 31.5756,27.9554 C31.464,25.7134 32.6878,25.2649 33.369,25.0709 C33.2838,24.95 33.1726,24.8123 33.0573,24.6697 L33.0561,24.6683 L33.0486,24.6591 C32.6625,24.1824 32.1335,23.529 31.725,22.5506 C31.6626,22.401 31.464,22.0487 31.234,21.6413 C29.9795,19.4178 27.3691,14.7915 29.0565,12.4079 C29.8319,11.312 31.3618,10.8732 33.6114,11.0994 C33.3123,10.2211 32.5628,8.59273 31.1784,6.97636 C29.5722,5.10045 26.726,2.84933 22.2874,2.7776 C20.0348,2.74064 18.1861,3.42395 16.7977,4.80755 C14.5928,7.00533 14.0034,10.4788 13.8475,12.3375 C13.9501,12.281 14.0601,12.2229 14.1802,12.1627 C14.7391,11.8826 15.86,11.3941 17.0848,11.2688 C19.1282,11.0596 20.476,11.9605 20.8797,13.8053 C21.9573,18.7305 20.9645,20.9107 20.2394,22.5023 L20.2343,22.5133 C20.1021,22.8042 19.9773,23.0789 19.8773,23.3444 L19.7875,23.5828 C19.5735,24.1496 19.3762,24.6731 19.2623,25.1366 C19.796,25.0015 20.2402,25.1834 20.4823,25.2825 C21.0915,25.532 21.5993,26.134 21.8077,26.8535 C21.841,26.9682 21.8658,27.0848 21.8822,27.2029 C21.9006,27.2627 21.91,27.3262 21.9082,27.3921 C21.7681,32.3373 21.9656,36.8152 22.3674,37.8082 Z" id="Path" fill-rule="nonzero"></path>
                    <path d="M34.7708,28.1414 C35.8783,28.0898 37.0441,27.8501 37.741,27.5306 C38.5511,27.1588 39.1225,26.7446 39.4565,26.4361 L39.4294,26.4413 C36.9535,26.9464 35.1998,26.8772 34.2167,26.2359 C34.1551,26.1959 34.099,26.155 34.0479,26.1138 C33.9655,26.1422 33.8801,26.166 33.7925,26.1901 C33.2358,26.3448 32.7096,26.4906 32.7782,27.8878 C32.9248,28.0059 33.5475,28.1979 34.7708,28.1414 Z" id="Path" fill-rule="nonzero"></path>
                    <path d="M40.379,24.0913 C41.2295,24.2169 41.8869,24.7402 42.1381,25.4916 C42.8703,27.6826 39.7599,29.3054 38.7893,29.7505 C37.5611,30.3146 35.5609,30.6572 33.9251,30.5835 L33.8494,30.5785 L33.5556,30.5531 L33.5294,30.7731 C33.5169,30.8804 33.5037,30.9929 33.4894,31.1106 C33.3797,35.2762 32.7734,37.9199 31.5259,39.6751 C30.2064,41.5318 28.3825,42.0499 26.7764,42.3902 C26.326,42.4857 25.8123,42.5554 25.2738,42.5554 C24.2004,42.5554 23.0283,42.2783 22.0593,41.3742 C21.1236,40.5017 20.7557,39.3874 20.5358,38.7219 C20.5015,38.6172 20.4688,38.5187 20.4447,38.4539 C20.0037,37.2781 19.8549,35.5972 19.7671,33.4358 C19.7542,33.1161 19.7443,32.7743 19.7346,32.4256 C19.7287,32.2107 19.7217,31.9617 19.7124,31.7012 C18.2303,32.3435 16.493,32.458 14.6382,31.9999 C14.1237,31.8726 13.6082,31.658 13.1868,31.3955 C12.8551,31.1883 12.6049,30.9655 12.4175,30.7411 C10.9391,31.9581 9.53312,31.7797 8.75957,31.525 C7.37906,31.0698 6.14939,29.8027 5.00007,27.6507 C4.18978,26.133 3.40654,24.1576 2.67176,21.7788 C1.39363,17.6402 0.581718,13.2764 0.50923,11.842 C0.280458,7.32481 1.5168,4.09028 4.18352,2.22876 C6.38563,0.691111 9.39642,0.218988 13.1321,0.824976 C14.7204,1.08272 16.0958,1.48631 16.9528,1.77282 C18.5007,0.864935 20.3123,0.423182 22.3625,0.455549 C23.4563,0.472932 24.4986,0.567436 25.4682,0.736465 C26.5093,0.417388 28.5055,-0.026164 30.7791,0.00120829 C35.0413,0.0515574 38.5743,1.6943 40.9959,4.75221 C41.911,5.90744 42.694,8.46166 41.2287,14.0682 C40.3225,17.5355 38.7483,21.219 36.8125,24.4489 C37.3254,24.4347 38.0281,24.3612 38.9753,24.168 C39.5188,24.0573 39.978,24.0321 40.379,24.0913 Z M39.1855,25.2749 C40.1773,25.0727 40.7742,25.2509 40.9595,25.8051 C41.3177,26.876 39.3428,28.1086 38.2484,28.6109 C37.2741,29.0578 35.7208,29.3404 34.3744,29.3404 C33.7289,29.3406 33.1318,29.2752 32.668,29.1322 C32.4483,31.1288 31.9811,34.8512 31.7087,36.41 C31.1999,39.3269 29.8846,40.6499 26.8556,41.2915 C26.3399,41.4008 25.8713,41.4497 25.4454,41.4497 C22.5433,41.4497 21.6245,39.1796 21.2484,38.2506 C20.789,37.1159 20.6297,33.3915 20.6618,29.6117 C19.6148,30.5473 18.3048,31.0308 16.8161,31.0308 C16.2039,31.0308 15.562,30.9495 14.8956,30.7847 C14.7046,30.7375 13.0265,30.2922 13.0487,29.2321 C13.0693,28.2616 14.47,27.9763 14.9974,27.8686 C16.8514,27.4914 16.9713,27.341 17.5474,26.6183 C17.6845,26.4449 17.8246,26.2739 17.9676,26.1052 L17.962,26.0409 C17.1307,26.0189 16.3179,25.7997 15.5779,25.4073 C14.4377,26.6107 13.3326,27.8463 12.2645,29.1128 C11.3887,30.1533 10.5469,30.459 9.86042,30.459 C9.58036,30.459 9.32635,30.4083 9.10606,30.3358 C7.22399,29.7152 5.4352,26.6992 3.78958,21.3714 C2.53951,17.3235 1.74739,13.0968 1.67793,11.7228 C1.47137,7.63889 2.53749,4.74801 4.84722,3.13085 C6.783,1.77562 9.49536,1.36403 12.9088,1.90708 C14.8833,2.22156 16.4978,2.76921 17.1226,2.99918 C18.5606,2.02976 20.2977,1.55424 22.3074,1.58641 C23.4032,1.60419 24.41,1.74365 25.3331,1.97042 C25.7717,1.78021 28.0334,1.10309 30.7104,1.13286 C34.6044,1.17362 37.8213,2.65832 40.0129,5.42613 C40.5567,6.11263 40.8202,7.2365 40.7962,8.76595 C40.7744,10.1595 40.5086,11.8692 40.0275,13.7102 C39.0118,17.5964 37.129,21.7616 34.8402,25.2075 C35.1865,25.4595 36.2409,25.8755 39.1855,25.2749 Z" id="Shape"></path>
                </g>
            </g>
        </g>
    </g>
</svg>